blackcompressed.ufo
<glyph name="exclam" format="1">
  <advance width="290"/>
  <unicode hex="0021"/>
  <outline>
    <contour>
      <point x="197.0" y="62.0"/>
      <point x="24.0" y="62.0"/>
      <point x="197.0" y="62.0" type="curve"/>
      <point x="197.0" y="110.0"/>
      <point x="160.0" y="134.0"/>
      <point x="110.0" y="134.0" type="curve"/>
      <point x="61.0" y="134.0"/>
      <point x="24.0" y="108.0"/>
      <point x="24.0" y="62.0" type="curve"/>
      <point x="197.0" y="62.0"/>
      <point x="24.0" y="62.0"/>
      <point x="197.0" y="62.0" type="curve"/>
      <point x="197.0" y="13.0"/>
      <point x="161.0" y="-9.0"/>
      <point x="110.0" y="-9.0" type="curve"/>
      <point x="60.0" y="-9.0"/>
      <point x="24.0" y="16.0"/>
      <point x="24.0" y="62.0" type="curve"/>
    </contour>
    <contour>
      <point x="181.0" y="229.0"/>
      <point x="38.0" y="229.0"/>
      <point x="181.0" y="229.0" type="curve"/>
      <point x="181.0" y="393.0"/>
      <point x="181.0" y="558.0"/>
      <point x="181.0" y="722.0" type="curve"/>
      <point x="38.0" y="722.0"/>
      <point x="181.0" y="722.0"/>
      <point x="38.0" y="722.0" type="curve"/>
      <point x="38.0" y="558.0"/>
      <point x="38.0" y="393.0"/>
      <point x="38.0" y="229.0" type="curve"/>
    </contour>
  </outline>
</glyph>
<glyph name="quotedbl" format="1">
  <advance width="394"/>
  <unicode hex="0022"/>
  <outline>
    <contour>
      <point x="181.0" y="658.0"/>
      <point x="38.0" y="658.0"/>
      <point x="181.0" y="658.0" type="curve"/>
      <point x="181.0" y="720.66604"/>
      <point x="181.0" y="783.33396"/>
      <point x="181.0" y="846.0" type="curve"/>
      <point x="38.0" y="846.0"/>
      <point x="181.0" y="846.0"/>
      <point x="38.0" y="846.0" type="curve"/>
      <point x="38.0" y="783.33396"/>
      <point x="38.0" y="720.66604"/>
      <point x="38.0" y="658.0" type="curve"/>
    </contour>
    <contour>
      <point x="368.0" y="658.0"/>
      <point x="231.0" y="658.0"/>
      <point x="368.0" y="658.0" type="curve"/>
      <point x="368.0" y="721.0"/>
      <point x="368.0" y="783.0"/>
      <point x="368.0" y="846.0" type="curve"/>
      <point x="231.0" y="846.0"/>
      <point x="368.0" y="846.0"/>
      <point x="231.0" y="846.0" type="curve"/>
      <point x="231.0" y="783.0"/>
      <point x="231.0" y="721.0"/>
      <point x="231.0" y="658.0" type="curve"/>
    </contour>
  </outline>
</glyph>
<glyph name="numbersign" format="1">
  <advance width="582"/>
  <unicode hex="0023"/>
  <outline>
    <contour>
      <point x="47.0" y="217.0" type="curve"/>
      <point x="170.0" y="217.0"/>
      <point x="330.0" y="217.0"/>
      <point x="452.0" y="217.0" type="curve"/>
      <point x="480.0" y="328.0"/>
      <point x="452.0" y="217.0"/>
      <point x="480.0" y="328.0" type="curve"/>
      <point x="371.0" y="328.0"/>
      <point x="213.0" y="328.0"/>
      <point x="75.0" y="328.0" type="curve"/>
      <point x="47.0" y="217.0"/>
      <point x="75.0" y="328.0"/>
    </contour>
    <contour>
      <point x="97.0" y="429.0"/>
      <point x="123.0" y="540.0"/>
      <point x="97.0" y="429.0" type="curve"/>
      <point x="220.0" y="429.0"/>
      <point x="380.0" y="429.0"/>
      <point x="502.0" y="429.0" type="curve"/>
      <point x="530.0" y="540.0"/>
      <point x="502.0" y="429.0"/>
      <point x="530.0" y="540.0" type="curve"/>
      <point x="421.0" y="540.0"/>
      <point x="263.0" y="540.0"/>
      <point x="123.0" y="540.0" type="curve"/>
    </contour>
    <contour>
      <point x="386.0" y="39.0"/>
      <point x="243.0" y="39.0"/>
      <point x="386.0" y="39.0" type="curve"/>
      <point x="386.0" y="39.0"/>
      <point x="548.0" y="722.0"/>
      <point x="548.0" y="722.0" type="curve"/>
      <point x="405.0" y="722.0"/>
      <point x="548.0" y="722.0"/>
      <point x="405.0" y="722.0" type="curve"/>
      <point x="405.0" y="722.0"/>
      <point x="243.0" y="39.0"/>
      <point x="243.0" y="39.0" type="curve"/>
    </contour>
    <contour>
      <point x="173.0" y="46.0"/>
      <point x="36.0" y="46.0"/>
      <point x="173.0" y="46.0" type="curve"/>
      <point x="173.0" y="46.0"/>
      <point x="335.0" y="722.0"/>
      <point x="335.0" y="722.0" type="curve"/>
      <point x="192.0" y="722.0"/>
      <point x="335.0" y="722.0"/>
      <point x="192.0" y="722.0" type="curve"/>
      <point x="192.0" y="722.0"/>
      <point x="36.0" y="46.0"/>
      <point x="36.0" y="46.0" type="curve"/>
    </contour>
  </outline>
</glyph>
<glyph name="ampersand" format="1">
  <advance width="644"/>
  <unicode hex="0026"/>
  <outline>
    <contour>
      <point x="629.0" y="-2.62190269495e-11"/>
      <point x="414.0" y="-2.62119215222e-11"/>
      <point x="603.0" y="-2.62190269495e-11" type="curve"/>
      <point x="516.0" y="112.0"/>
      <point x="403.0" y="260.0"/>
      <point x="309.0" y="378.0" type="curve"/>
      <point x="267.0" y="432.0"/>
      <point x="208.0" y="479.0"/>
      <point x="208.0" y="549.0" type="curve"/>
      <point x="208.0" y="582.0"/>
      <point x="212.0" y="617.0"/>
      <point x="241.0" y="617.0" type="curve"/>
      <point x="271.0" y="617.0"/>
      <point x="277.0" y="586.0"/>
      <point x="277.0" y="551.0" type="curve"/>
      <point x="277.0" y="492.0"/>
      <point x="245.0" y="453.0"/>
      <point x="195.0" y="420.0" type="curve"/>
      <point x="105.0" y="359.0"/>
      <point x="24.0" y="307.0"/>
      <point x="24.0" y="201.0" type="curve"/>
      <point x="24.0" y="77.0"/>
      <point x="110.0" y="-5.0"/>
      <point x="235.0" y="-5.0" type="curve"/>
      <point x="409.0" y="-5.0"/>
      <point x="494.0" y="135.0"/>
      <point x="540.0" y="312.0" type="curve"/>
      <point x="417.0" y="340.0"/>
      <point x="540.0" y="312.0"/>
      <point x="417.0" y="340.0" type="curve"/>
      <point x="385.0" y="220.0"/>
      <point x="357.0" y="106.0"/>
      <point x="242.0" y="106.0" type="curve"/>
      <point x="192.0" y="106.0"/>
      <point x="167.0" y="147.0"/>
      <point x="167.0" y="201.0" type="curve"/>
      <point x="167.0" y="261.0"/>
      <point x="203.0" y="297.0"/>
      <point x="254.0" y="332.0" type="curve"/>
      <point x="342.0" y="392.0"/>
      <point x="419.0" y="446.0"/>
      <point x="420.0" y="551.0" type="curve"/>
      <point x="420.0" y="657.0"/>
      <point x="350.0" y="727.0"/>
      <point x="246.0" y="727.0" type="curve"/>
      <point x="142.0" y="727.0"/>
      <point x="75.0" y="655.0"/>
      <point x="75.0" y="549.0" type="curve"/>
      <point x="75.0" y="450.0"/>
      <point x="145.0" y="387.0"/>
      <point x="207.0" y="311.0" type="curve"/>
      <point x="278.0" y="220.0"/>
      <point x="374.0" y="85.0"/>
      <point x="440.0" y="-2.62119215222e-11" type="curve"/>
    </contour>
  </outline>
</glyph>
<glyph name="parenright" format="1">
  <advance width="440"/>
  <unicode hex="0029"/>
  <outline>
    <contour>
      <point x="151.375" y="-295.4125"/>
      <point x="66.875" y="-223.5875"/>
      <point x="151.375" y="-295.4125" type="curve"/>
      <point x="301.422583501" y="-92.1867290505"/>
      <point x="373.625" y="76.0265989903"/>
      <point x="373.625" y="329.2625" type="curve"/>
      <point x="373.625" y="575.538855398"/>
      <point x="308.198396766" y="741.350000604"/>
      <point x="154.375" y="933.675" type="curve"/>
      <point x="69.875" y="856.325"/>
      <point x="154.375" y="933.675"/>
      <point x="69.875" y="856.325" type="curve"/>
      <point x="199.120146038" y="687.944313145"/>
      <point x="234.0" y="536.0"/>
      <point x="234.0" y="324.0" type="curve"/>
      <point x="234.0" y="108.0"/>
      <point x="190.536258913" y="-46.4347104429"/>
      <point x="66.875" y="-223.5875" type="curve"/>
    </contour>
  </outline>
</glyph>
<glyph name="asterisk" format="1">
  <advance width="338"/>
  <unicode hex="002A"/>
  <outline>
    <contour>
      <point x="81.0" y="647.0"/>
      <point x="216.0" y="647.0"/>
      <point x="81.0" y="647.0" type="curve"/>
      <point x="86.0" y="604.0"/>
      <point x="92.0" y="562.0"/>
      <point x="93.0" y="518.0" type="curve"/>
      <point x="210.0" y="518.0"/>
      <point x="93.0" y="518.0"/>
      <point x="210.0" y="518.0" type="curve"/>
      <point x="210.0" y="562.0"/>
      <point x="214.0" y="601.0"/>
      <point x="216.0" y="647.0" type="curve"/>
    </contour>
    <contour>
      <point x="256.0" y="616.0"/>
      <point x="294.0" y="497.0"/>
      <point x="256.0" y="616.0" type="curve"/>
      <point x="217.0" y="596.0"/>
      <point x="163.0" y="565.0"/>
      <point x="128.0" y="548.0" type="curve"/>
      <point x="167.0" y="460.0"/>
      <point x="128.0" y="548.0"/>
      <point x="167.0" y="460.0" type="curve"/>
      <point x="203.0" y="475.0"/>
      <point x="257.0" y="485.0"/>
      <point x="294.0" y="497.0" type="curve"/>
    </contour>
    <contour>
      <point x="291.0" y="433.0"/>
      <point x="187.0" y="350.0"/>
      <point x="291.0" y="433.0" type="curve"/>
      <point x="263.0" y="463.0"/>
      <point x="226.0" y="503.0"/>
      <point x="201.0" y="534.0" type="curve"/>
      <point x="110.0" y="468.0"/>
      <point x="201.0" y="534.0"/>
      <point x="110.0" y="468.0" type="curve"/>
      <point x="136.0" y="434.0"/>
      <point x="163.0" y="385.0"/>
      <point x="187.0" y="350.0" type="curve"/>
    </contour>
    <contour>
      <point x="1.0" y="499.0"/>
      <point x="40.0" y="615.0"/>
      <point x="1.0" y="499.0" type="curve"/>
      <point x="45.0" y="486.0"/>
      <point x="107.0" y="468.0"/>
      <point x="143.0" y="457.0" type="curve"/>
      <point x="182.0" y="545.0"/>
      <point x="143.0" y="457.0"/>
      <point x="182.0" y="545.0" type="curve"/>
      <point x="149.0" y="564.0"/>
      <point x="93.0" y="588.0"/>
      <point x="40.0" y="615.0" type="curve"/>
    </contour>
    <contour>
      <point x="115.0" y="350.0"/>
      <point x="11.0" y="433.0"/>
      <point x="115.0" y="350.0" type="curve"/>
      <point x="140.0" y="385.0"/>
      <point x="171.0" y="432.0"/>
      <point x="198.0" y="466.0" type="curve"/>
      <point x="107.0" y="532.0"/>
      <point x="198.0" y="466.0"/>
      <point x="107.0" y="532.0" type="curve"/>
      <point x="81.0" y="501.0"/>
      <point x="40.0" y="464.0"/>
      <point x="11.0" y="433.0" type="curve"/>
    </contour>
  </outline>
</glyph>
<glyph name="plus" format="1">
  <advance width="594"/>
  <unicode hex="002B"/>
  <outline>
    <contour>
      <point x="42.0" y="254.928703704"/>
      <point x="42.0" y="376.478703704"/>
      <point x="42.0" y="254.928703704" type="curve"/>
      <point x="42.0" y="254.928703704"/>
      <point x="563.0" y="255.0"/>
      <point x="563.0" y="255.0" type="curve"/>
      <point x="563.0" y="376.0"/>
      <point x="563.0" y="255.0"/>
      <point x="563.0" y="376.0" type="curve"/>
      <point x="563.0" y="376.0"/>
      <point x="42.0" y="376.478703704"/>
      <point x="42.0" y="376.478703704" type="curve"/>
    </contour>
    <contour>
      <point x="379.0" y="18.0"/>
      <point x="226.0" y="18.0"/>
      <point x="369.0" y="18.0" type="curve"/>
      <point x="369.0" y="18.0"/>
      <point x="369.0" y="588.0"/>
      <point x="369.0" y="588.0" type="curve"/>
      <point x="226.0" y="588.0"/>
      <point x="379.0" y="588.0"/>
      <point x="236.0" y="588.0" type="curve"/>
      <point x="236.0" y="588.0"/>
      <point x="236.0" y="18.0"/>
      <point x="236.0" y="18.0" type="curve"/>
    </contour>
  </outline>
</glyph>
<glyph name="comma" format="1">
  <advance width="298"/>
  <unicode hex="002C"/>
  <outline>
    <contour>
      <point x="177.0" y="-99.0"/>
      <point x="34.0" y="-99.0"/>
      <point x="177.0" y="-99.0" type="curve"/>
      <point x="278" y="121"/>
      <point x="177" y="-99"/>
      <point x="278" y="121" type="curve"/>
      <point x="96" y="121"/>
      <point x="278" y="121"/>
      <point x="96" y="121" type="curve"/>
      <point x="34" y="-99"/>
      <point x="96" y="121"/>
      <point x="34.0" y="-99.0" type="curve"/>
    </contour>
  </outline>
</glyph>
<glyph name="hyphen" format="1">
  <advance width="472"/>
  <unicode hex="002D"/>
  <outline>
    <contour>
      <point x="68.0" y="223.0"/>
      <point x="68.0" y="344.0"/>
      <point x="68.0" y="223.0" type="curve"/>
      <point x="141.0" y="223.0"/>
      <point x="214.0" y="223.0"/>
      <point x="287.0" y="223.0" type="curve"/>
      <point x="287.0" y="344.0"/>
      <point x="287.0" y="223.0"/>
      <point x="287.0" y="344.0" type="curve"/>
      <point x="214.0" y="344.0"/>
      <point x="141.0" y="344.0"/>
      <point x="68.0" y="344.0" type="curve"/>
    </contour>
  </outline>
</glyph>
<glyph name="slash" format="1">
  <advance width="559"/>
  <unicode hex="002F"/>
  <outline>
    <contour>
      <point x="185.0" y="-13.0"/>
      <point x="42.0" y="-13.0"/>
      <point x="185.0" y="-13.0" type="curve"/>
      <point x="291.0" y="252.0"/>
      <point x="398.0" y="517.0"/>
      <point x="504.0" y="782.0" type="curve"/>
      <point x="361.0" y="782.0"/>
      <point x="504.0" y="782.0"/>
      <point x="361.0" y="782.0" type="curve"/>
      <point x="255.0" y="517.0"/>
      <point x="148.0" y="252.0"/>
      <point x="42.0" y="-13.0" type="curve"/>
    </contour>
  </outline>
</glyph>
<glyph name="one" format="1">
  <advance width="397"/>
  <unicode hex="0031"/>
  <outline>
    <contour>
      <point x="239.0" y="0.0"/>
      <point x="239.0" y="111.0"/>
      <point x="239.0" y="0.0" type="curve"/>
      <point x="284.0" y="0.0"/>
      <point x="330.0" y="0.0"/>
      <point x="376.0" y="0.0" type="curve"/>
      <point x="376.0" y="111.0"/>
      <point x="376.0" y="0.0"/>
      <point x="376.0" y="111.0" type="curve"/>
      <point x="239.0" y="111.0"/>
      <point x="376.0" y="111.0"/>
      <point x="239.0" y="111.0" type="curve"/>
    </contour>
    <contour>
      <point x="239.0" y="111.0"/>
      <point x="239.0" y="0.0"/>
      <point x="239.0" y="111.0" type="curve"/>
      <point x="101.0" y="111.0"/>
      <point x="239.0" y="111.0"/>
      <point x="101.0" y="111.0" type="curve"/>
      <point x="101.0" y="0.0"/>
      <point x="101.0" y="111.0"/>
      <point x="101.0" y="0.0" type="curve"/>
      <point x="147.0" y="0.0"/>
      <point x="193.0" y="0.0"/>
      <point x="239.0" y="0.0" type="curve"/>
    </contour>
    <contour>
      <point x="84.0" y="475.0"/>
      <point x="10.0" y="565.0"/>
      <point x="84.0" y="475.0" type="curve"/>
      <point x="270.0" y="648.0"/>
      <point x="84.0" y="475.0"/>
      <point x="270.0" y="648.0" type="curve"/>
      <point x="166.0" y="722.0"/>
      <point x="270.0" y="648.0"/>
      <point x="166.0" y="722.0" type="curve"/>
      <point x="10.0" y="565.0"/>
      <point x="166.0" y="722.0"/>
      <point x="10.0" y="565.0" type="curve"/>
    </contour>
    <contour>
      <point x="309.0" y="0.0"/>
      <point x="166.0" y="0.0"/>
      <point x="309.0" y="0.0" type="curve"/>
      <point x="309.0" y="241.0"/>
      <point x="309.0" y="481.0"/>
      <point x="309.0" y="722.0" type="curve"/>
      <point x="166.0" y="722.0"/>
      <point x="309.0" y="722.0"/>
      <point x="166.0" y="722.0" type="curve"/>
      <point x="166.0" y="481.0"/>
      <point x="166.0" y="241.0"/>
      <point x="166.0" y="0.0" type="curve"/>
    </contour>
  </outline>
</glyph>
<glyph name="three" format="1">
  <advance width="443"/>
  <unicode hex="0033"/>
  <outline>
    <contour>
      <point x="14.25" y="60.4154202279"/>
      <point x="92.25" y="143.290420228"/>
      <point x="14.25" y="60.4154202279" type="curve"/>
      <point x="67.9615533344" y="20.2962109134"/>
      <point x="113.057438756" y="-5.0"/>
      <point x="180.875" y="-5.0" type="curve"/>
      <point x="324.353801969" y="-5.0"/>
      <point x="412.875" y="72.2550269569"/>
      <point x="412.875" y="218.72724359" type="curve"/>
      <point x="412.875" y="349.06206664"/>
      <point x="320.652852928" y="428.432941595"/>
      <point x="173.25" y="428.432941595" type="curve"/>
      <point x="173.25" y="334.507941595"/>
      <point x="173.25" y="428.432941595"/>
      <point x="173.25" y="334.507941595" type="curve"/>
      <point x="233.613292903" y="334.507941595"/>
      <point x="276.375" y="284.41098762"/>
      <point x="276.375" y="213.20224359" type="curve"/>
      <point x="276.375" y="150.170578287"/>
      <point x="240.084440893" y="110.5"/>
      <point x="187.375" y="110.5" type="curve"/>
      <point x="149.567364986" y="110.5"/>
      <point x="122.909234687" y="121.633118216"/>
      <point x="92.25" y="143.290420228" type="curve"/>
    </contour>
    <contour>
      <point x="104.75" y="561.586431624"/>
      <point x="13.75" y="633.411431624"/>
      <point x="104.75" y="561.586431624" type="curve"/>
      <point x="119.151616024" y="583.142080342"/>
      <point x="143.665149707" y="611.5"/>
      <point x="178.0" y="611.5" type="curve"/>
      <point x="227.236366312" y="611.5"/>
      <point x="251.625" y="576.641871345"/>
      <point x="251.625" y="523.307656695" type="curve"/>
      <point x="251.625" y="468.96087096"/>
      <point x="221.081022652" y="428.432941595"/>
      <point x="173.25" y="428.432941595" type="curve"/>
      <point x="173.25" y="334.507941595"/>
      <point x="173.25" y="428.432941595"/>
      <point x="173.25" y="334.507941595" type="curve"/>
      <point x="299.445958411" y="334.507941595"/>
      <point x="388.125" y="406.538419952"/>
      <point x="388.125" y="528.832656695" type="curve"/>
      <point x="388.125" y="653.576107724"/>
      <point x="313.306571952" y="727.0"/>
      <point x="191.0" y="727.0" type="curve"/>
      <point x="112.720154974" y="727.0"/>
      <point x="45.7826278199" y="683.807101622"/>
      <point x="13.75" y="633.411431624" type="curve"/>
    </contour>
  </outline>
</glyph>
<glyph name="four" format="1">
  <advance width="534"/>
  <unicode hex="0034"/>
  <outline>
    <contour>
      <point x="321.0" y="110.0"/>
      <point x="321.0" y="0.0"/>
      <point x="321.0" y="110.0" type="curve"/>
      <point x="184.0" y="110.0"/>
      <point x="321.0" y="110.0"/>
      <point x="184.0" y="110.0" type="curve"/>
      <point x="184.0" y="0.0"/>
      <point x="184.0" y="110.0"/>
      <point x="184.0" y="0.0" type="curve"/>
      <point x="230.0" y="0.0"/>
      <point x="276.0" y="0.0"/>
      <point x="321.0" y="0.0" type="curve"/>
    </contour>
    <contour>
      <point x="321.0" y="0.0"/>
      <point x="321.0" y="110.0"/>
      <point x="321.0" y="0.0" type="curve"/>
      <point x="367.0" y="0.0"/>
      <point x="413.0" y="0.0"/>
      <point x="459.0" y="0.0" type="curve"/>
      <point x="459.0" y="110.0"/>
      <point x="459.0" y="0.0"/>
      <point x="459.0" y="110.0" type="curve"/>
      <point x="321.0" y="110.0"/>
      <point x="459.0" y="110.0"/>
      <point x="321.0" y="110.0" type="curve"/>
    </contour>
    <contour>
      <point x="81.0" y="226.0"/>
      <point x="18.0" y="348.0"/>
      <point x="81.0" y="226.0" type="curve"/>
      <point x="393.0" y="696.0"/>
      <point x="81.0" y="226.0"/>
      <point x="394.0" y="696.0" type="curve"/>
      <point x="251.0" y="696.0"/>
      <point x="394.0" y="696.0"/>
      <point x="251.0" y="696.0" type="curve"/>
      <point x="19.0" y="349.0"/>
      <point x="250.0" y="695.0"/>
      <point x="18.0" y="348.0" type="curve"/>
    </contour>
    <contour>
      <point x="470.0" y="348.0"/>
      <point x="470.0" y="226.0"/>
      <point x="470.0" y="348.0" type="curve"/>
      <point x="470.0" y="348.0"/>
      <point x="18.0" y="348.0"/>
      <point x="18.0" y="348.0" type="curve"/>
      <point x="81.0" y="226.0"/>
      <point x="18.0" y="348.0"/>
      <point x="81.0" y="226.0" type="curve"/>
      <point x="81.0" y="226.0"/>
      <point x="470.0" y="226.0"/>
      <point x="470.0" y="226.0" type="curve"/>
    </contour>
    <contour>
      <point x="251.0" y="696.0"/>
      <point x="397.0" y="696.0"/>
      <point x="254.0" y="696.0" type="curve"/>
      <point x="254.0" y="696.0"/>
      <point x="254.0" y="47.0"/>
      <point x="254.0" y="47.0" type="curve"/>
      <point x="397.0" y="47.0"/>
      <point x="251.0" y="47.0"/>
      <point x="394.0" y="47.0" type="curve"/>
      <point x="394.0" y="47.0"/>
      <point x="394.0" y="696.0"/>
      <point x="394.0" y="696.0" type="curve"/>
    </contour>
  </outline>
</glyph>
<glyph name="five" format="1">
  <advance width="545"/>
  <unicode hex="0035"/>
  <outline>
    <contour>
      <point x="29.625" y="722.0"/>
      <point x="166.125" y="611.5"/>
      <point x="29.625" y="722.0" type="curve"/>
      <point x="29.625" y="628.110803574"/>
      <point x="30.0" y="524.0"/>
      <point x="30.0" y="390.0" type="curve"/>
      <point x="166.0" y="347.0"/>
      <point x="30.0" y="390.0"/>
      <point x="166.0" y="347.0" type="curve"/>
      <point x="166.0" y="432.0"/>
      <point x="166.125" y="526.819044824"/>
      <point x="166.125" y="611.5" type="curve"/>
    </contour>
    <contour>
      <point x="166.0" y="347.0"/>
      <point x="30.0" y="390.0"/>
      <point x="166.0" y="347.0" type="curve"/>
      <point x="175.0" y="357.0"/>
      <point x="182.0" y="365.0"/>
      <point x="200.0" y="365.0" type="curve"/>
      <point x="255.0" y="365.0"/>
      <point x="268.25" y="308.848188941"/>
      <point x="268.25" y="241.661680912" type="curve"/>
      <point x="268.25" y="173.515552319"/>
      <point x="241.0" y="110.0"/>
      <point x="181.0" y="110.0" type="curve"/>
      <point x="144.0" y="110.0"/>
      <point x="120.163777146" y="121.414057527"/>
      <point x="90.125" y="142.431552707" type="curve"/>
      <point x="18.625" y="42.9815527066"/>
      <point x="90.125" y="142.431552707"/>
      <point x="18.625" y="42.9815527066" type="curve"/>
      <point x="69.4504872106" y="9.76382119816"/>
      <point x="114.0" y="-5.0"/>
      <point x="174.0" y="-5.0" type="curve"/>
      <point x="313.0" y="-5.0"/>
      <point x="411.25" y="99.5468073017"/>
      <point x="411.25" y="241.661680912" type="curve"/>
      <point x="411.25" y="379.033867489"/>
      <point x="339.0" y="483.0"/>
      <point x="206.0" y="483.0" type="curve"/>
      <point x="146.0" y="483.0"/>
      <point x="76.0" y="447.0"/>
      <point x="30.0" y="390.0" type="curve"/>
    </contour>
    <contour>
      <point x="384.0" y="722.0"/>
      <point x="384.0" y="612.0"/>
      <point x="384.0" y="722.0" type="curve"/>
      <point x="279.0" y="722.0"/>
      <point x="134.74894875" y="722.0"/>
      <point x="29.625" y="722.0" type="curve"/>
      <point x="166.125" y="611.5"/>
      <point x="29.625" y="722.0"/>
      <point x="166.125" y="611.5" type="curve"/>
      <point x="225.74940375" y="611.5"/>
      <point x="324.0" y="612.0"/>
      <point x="384.0" y="612.0" type="curve"/>
    </contour>
  </outline>
</glyph>
<glyph name="seven" format="1">
  <advance width="470"/>
  <unicode hex="0037"/>
  <outline>
    <contour>
      <point x="159.0" y="511.0" type="curve"/>
      <point x="159.0" y="632.0"/>
      <point x="159.0" y="491.0"/>
      <point x="159.0" y="612.0" type="curve"/>
      <point x="47.0" y="612.0"/>
      <point x="159.0" y="612.0"/>
      <point x="47.0" y="612.0" type="curve"/>
      <point x="47.0" y="491.0"/>
      <point x="47.0" y="632.0"/>
      <point x="47.0" y="511.0" type="curve"/>
      <point x="159.0" y="511.0"/>
      <point x="47.0" y="511.0"/>
    </contour>
    <contour>
      <point x="47.0" y="612.0"/>
      <point x="47.0" y="722.0"/>
      <point x="47.0" y="612.0" type="curve"/>
      <point x="177.0" y="612.0"/>
      <point x="227.0" y="612.0"/>
      <point x="441.0" y="612.0" type="curve"/>
      <point x="441.0" y="722.0"/>
      <point x="441.0" y="612.0"/>
      <point x="441.0" y="722.0" type="curve"/>
      <point x="259.0" y="722.0"/>
      <point x="151.0" y="722.0"/>
      <point x="47.0" y="722.0" type="curve"/>
    </contour>
    <contour>
      <point x="359.0" y="722.0"/>
      <point x="441.0" y="612.0"/>
      <point x="359.0" y="722.0" type="curve"/>
      <point x="33.0" y="0.0"/>
      <point x="359.0" y="722.0"/>
      <point x="33.0" y="0.0" type="curve"/>
      <point x="175.0" y="0.0"/>
      <point x="33.0" y="0.0"/>
      <point x="175.0" y="0.0" type="curve"/>
      <point x="441.0" y="612.0"/>
      <point x="175.0" y="0.0"/>
      <point x="441.0" y="612.0" type="curve"/>
    </contour>
  </outline>
</glyph>
<glyph name="nine" format="1">
  <advance width="488"/>
  <unicode hex="0039"/>
  <outline>
    <contour>
      <point x="349.0" y="475.0"/>
      <point x="417.0" y="448.0"/>
      <point x="349.0" y="475.0" type="curve"/>
      <point x="325.0" y="409.0"/>
      <point x="293.393351136" y="387.21798433"/>
      <point x="230.75" y="387.21798433" type="curve"/>
      <point x="172.498318714" y="387.21798433"/>
      <point x="145.0" y="437.0"/>
      <point x="145.0" y="502.0" type="curve"/>
      <point x="145.0" y="558.0"/>
      <point x="170.0" y="602.0"/>
      <point x="220.0" y="602.0" type="curve"/>
      <point x="292.0" y="602.0"/>
      <point x="317.625" y="541.8539649"/>
      <point x="317.625" y="462.331873219" type="curve"/>
      <point x="317.625" y="276.160074866"/>
      <point x="227.973910805" y="157.617008088"/>
      <point x="52.25" y="93.6509259259" type="curve"/>
      <point x="78.25" y="-5.79907407407"/>
      <point x="52.25" y="93.6509259259"/>
      <point x="78.25" y="-5.79907407407" type="curve"/>
      <point x="311.0" y="58.0"/>
      <point x="454.125" y="220.12544096"/>
      <point x="454.125" y="467.856873219" type="curve"/>
      <point x="454.125" y="625.806471266"/>
      <point x="374.653181177" y="733.980876068"/>
      <point x="224.875" y="733.980876068" type="curve"/>
      <point x="85.9892311897" y="733.980876068"/>
      <point x="8.0" y="639.08595394"/>
      <point x="8.0" y="496.304095442" type="curve"/>
      <point x="8.0" y="359.432531406"/>
      <point x="84.7363821883" y="271.19298433"/>
      <point x="217.75" y="271.19298433" type="curve"/>
      <point x="331.063027772" y="271.19298433"/>
      <point x="390.0" y="376.0"/>
      <point x="417.0" y="448.0" type="curve"/>
    </contour>
  </outline>
</glyph>
<glyph name="colon" format="1">
  <advance width="216"/>
  <unicode hex="003A"/>
  <outline>
    <contour>
      <point x="194.0" y="377.0"/>
      <point x="26.0" y="377.0"/>
      <point x="194.0" y="377.0" type="curve"/>
      <point x="194.0" y="425.0"/>
      <point x="158.0" y="449.0"/>
      <point x="109.0" y="449.0" type="curve"/>
      <point x="59.0" y="449.0"/>
      <point x="26.0" y="423.0"/>
      <point x="26.0" y="377.0" type="curve"/>
      <point x="194.0" y="377.0"/>
      <point x="26.0" y="377.0"/>
      <point x="194.0" y="377.0" type="curve"/>
      <point x="194.0" y="328.0"/>
      <point x="159.0" y="306.0"/>
      <point x="109.0" y="306.0" type="curve"/>
      <point x="58.0" y="306.0"/>
      <point x="26.0" y="330.0"/>
      <point x="26.0" y="377.0" type="curve"/>
    </contour>
    <contour>
      <point x="194.05" y="62.2186609687"/>
      <point x="25.7" y="62.2186609687"/>
      <point x="194.05" y="62.2186609687" type="curve"/>
      <point x="194.05" y="109.870903869"/>
      <point x="158.295688321" y="134.202952279"/>
      <point x="108.75" y="134.202952279" type="curve"/>
      <point x="59.2482430547" y="134.202952279"/>
      <point x="25.7" y="107.664118259"/>
      <point x="25.7" y="62.2186609687" type="curve"/>
      <point x="194.05" y="62.2186609687"/>
      <point x="25.7" y="62.2186609687"/>
      <point x="194.05" y="62.2186609687" type="curve"/>
      <point x="194.05" y="13.2650724072"/>
      <point x="159.0" y="-9.0"/>
      <point x="109.0" y="-9.0" type="curve"/>
      <point x="58.0" y="-9.0"/>
      <point x="25.7" y="15.3148850718"/>
      <point x="25.7" y="62.2186609687" type="curve"/>
    </contour>
  </outline>
</glyph>
<glyph name="semicolon" format="1">
  <advance width="216"/>
  <unicode hex="003B"/>
  <outline>
    <contour>
      <point x="103.0" y="-99.0"/>
      <point x="-40.0" y="-99.0"/>
      <point x="103.0" y="-99.0" type="curve"/>
      <point x="203.0" y="82.0"/>
      <point x="103.0" y="-99.0"/>
      <point x="203.0" y="82.0" type="curve"/>
      <point x="21.0" y="82.0"/>
      <point x="203.0" y="82.0"/>
      <point x="21.0" y="82.0" type="curve"/>
      <point x="-40.0" y="-99.0"/>
      <point x="21.0" y="82.0"/>
      <point x="-40.0" y="-99.0" type="curve"/>
    </contour>
    <contour>
      <point x="194.0" y="377.0"/>
      <point x="26.0" y="377.0"/>
      <point x="194.0" y="377.0" type="curve"/>
      <point x="194.0" y="425.0"/>
      <point x="158.0" y="449.0"/>
      <point x="109.0" y="449.0" type="curve"/>
      <point x="59.0" y="449.0"/>
      <point x="26.0" y="423.0"/>
      <point x="26.0" y="377.0" type="curve"/>
      <point x="194.0" y="377.0"/>
      <point x="26.0" y="377.0"/>
      <point x="194.0" y="377.0" type="curve"/>
      <point x="194.0" y="328.0"/>
      <point x="159.0" y="306.0"/>
      <point x="109.0" y="306.0" type="curve"/>
      <point x="58.0" y="306.0"/>
      <point x="26.0" y="330.0"/>
      <point x="26.0" y="377.0" type="curve"/>
    </contour>
  </outline>
</glyph>
<glyph name="equal" format="1">
  <advance width="540"/>
  <unicode hex="003D"/>
  <outline>
    <contour>
      <point x="28.5" y="159.4875"/>
      <point x="28.5" y="275.5125"/>
      <point x="28.5" y="159.4875" type="curve"/>
      <point x="185.7484275" y="159.4875"/>
      <point x="343.0015725" y="159.4875"/>
      <point x="500.25" y="159.4875" type="curve"/>
      <point x="500.25" y="275.5125"/>
      <point x="500.25" y="159.4875"/>
      <point x="500.25" y="275.5125" type="curve"/>
      <point x="343.0015725" y="275.5125"/>
      <point x="185.7484275" y="275.5125"/>
      <point x="28.5" y="275.5125" type="curve"/>
    </contour>
    <contour>
      <point x="28.5" y="381.4875"/>
      <point x="28.5" y="497.5125"/>
      <point x="28.5" y="381.4875" type="curve"/>
      <point x="185.7484275" y="381.4875"/>
      <point x="343.0015725" y="381.4875"/>
      <point x="500.25" y="381.4875" type="curve"/>
      <point x="500.25" y="497.5125"/>
      <point x="500.25" y="381.4875"/>
      <point x="500.25" y="497.5125" type="curve"/>
      <point x="343.0015725" y="497.5125"/>
      <point x="185.7484275" y="497.5125"/>
      <point x="28.5" y="497.5125" type="curve"/>
    </contour>
  </outline>
</glyph>
<glyph name="A" format="1">
  <advance width="719"/>
  <unicode hex="0041"/>
  <outline>
    <contour>
      <point x="156.0" y="110.0"/>
      <point x="155.0" y="0.0"/>
      <point x="156.0" y="110.0" type="curve"/>
      <point x="18.0" y="110.0"/>
      <point x="156.0" y="110.0"/>
      <point x="18.0" y="110.0" type="curve"/>
      <point x="18.0" y="0.0"/>
      <point x="18.0" y="110.0"/>
      <point x="18.0" y="0.0" type="curve"/>
      <point x="64.0" y="0.0"/>
      <point x="110.0" y="0.0"/>
      <point x="155.0" y="0.0" type="curve"/>
    </contour>
    <contour>
      <point x="156.0" y="0.0"/>
      <point x="156.0" y="110.0"/>
      <point x="156.0" y="0.0" type="curve"/>
      <point x="212.0" y="0.0"/>
      <point x="156.0" y="0.0"/>
      <point x="325.0" y="0.0" type="curve"/>
      <point x="325.0" y="110.0"/>
      <point x="325.0" y="0.0"/>
      <point x="325.0" y="110.0" type="curve"/>
      <point x="156.0" y="110.0"/>
      <point x="325.0" y="110.0"/>
      <point x="156.0" y="110.0" type="curve"/>
    </contour>
    <contour>
      <point x="566.0" y="0.0"/>
      <point x="566.0" y="110.0"/>
      <point x="566.0" y="0.0" type="curve"/>
      <point x="611.0" y="0.0"/>
      <point x="657.0" y="0.0"/>
      <point x="703.0" y="0.0" type="curve"/>
      <point x="703.0" y="110.0"/>
      <point x="703.0" y="0.0"/>
      <point x="703.0" y="110.0" type="curve"/>
      <point x="566.0" y="110.0"/>
      <point x="703.0" y="110.0"/>
      <point x="566.0" y="110.0" type="curve"/>
    </contour>
    <contour>
      <point x="566.0" y="110.0"/>
      <point x="566.0" y="0.0"/>
      <point x="566.0" y="110.0" type="curve"/>
      <point x="396.0" y="110.0"/>
      <point x="566.0" y="110.0"/>
      <point x="396.0" y="110.0" type="curve"/>
      <point x="396.0" y="0.0"/>
      <point x="396.0" y="110.0"/>
      <point x="396.0" y="0.0" type="curve"/>
      <point x="453.0" y="0.0"/>
      <point x="509.0" y="0.0"/>
      <point x="566.0" y="0.0" type="curve"/>
    </contour>
    <contour>
      <point x="478.0" y="324.0"/>
      <point x="524.0" y="207.0"/>
      <point x="478.0" y="324.0" type="curve"/>
      <point x="406.0" y="324.0"/>
      <point x="333.0" y="324.0"/>
      <point x="261.0" y="324.0" type="curve"/>
      <point x="202.0" y="207.0"/>
      <point x="261.0" y="324.0"/>
      <point x="202.0" y="207.0" type="curve"/>
      <point x="309.0" y="207.0"/>
      <point x="417.0" y="207.0"/>
      <point x="524.0" y="207.0" type="curve"/>
    </contour>
    <contour>
      <point x="649.0" y="0.0"/>
      <point x="500.0" y="0.0"/>
      <point x="649.0" y="0.0" type="curve"/>
      <point x="581.0" y="241.0"/>
      <point x="506.0" y="481.0"/>
      <point x="438.0" y="722.0" type="curve"/>
      <point x="308.0" y="722.0"/>
      <point x="438.0" y="722.0"/>
      <point x="308.0" y="722.0" type="curve"/>
      <point x="374.0" y="482.0"/>
      <point x="433.0" y="240.0"/>
      <point x="500.0" y="0.0" type="curve"/>
    </contour>
    <contour>
      <point x="225.0" y="0.0"/>
      <point x="69.0" y="0.0"/>
      <point x="225.0" y="0.0" type="curve"/>
      <point x="299.0" y="240.0"/>
      <point x="362.0" y="482.0"/>
      <point x="437.0" y="722.0" type="curve"/>
      <point x="307.0" y="722.0"/>
      <point x="437.0" y="722.0"/>
      <point x="307.0" y="722.0" type="curve"/>
      <point x="231.0" y="480.0"/>
      <point x="144.0" y="242.0"/>
      <point x="69.0" y="0.0" type="curve"/>
    </contour>
    <contour>
      <point x="371" y="843" type="move" name="top"/>
    </contour>
    <contour>
      <point x="627" y="7" type="move" name="bottom"/>
    </contour>
  </outline>
</glyph>
<glyph name="B" format="1">
  <advance width="569"/>
  <unicode hex="0042"/>
  <outline>
    <contour>
      <point x="168.0" y="722.0"/>
      <point x="168.0" y="612.0"/>
      <point x="168.0" y="722.0" type="curve"/>
      <point x="122.0" y="722.0"/>
      <point x="76.0" y="722.0"/>
      <point x="31.0" y="722.0" type="curve"/>
      <point x="31.0" y="612.0"/>
      <point x="31.0" y="722.0"/>
      <point x="31.0" y="612.0" type="curve"/>
      <point x="168.0" y="612.0"/>
      <point x="31.0" y="612.0"/>
      <point x="168.0" y="612.0" type="curve"/>
    </contour>
    <contour>
      <point x="167.0" y="110.0"/>
      <point x="167.0" y="0.0"/>
      <point x="167.0" y="110.0" type="curve"/>
      <point x="30.0" y="110.0"/>
      <point x="167.0" y="110.0"/>
      <point x="30.0" y="110.0" type="curve"/>
      <point x="30.0" y="0.0"/>
      <point x="30.0" y="110.0"/>
      <point x="30.0" y="0.0" type="curve"/>
      <point x="76.0" y="0.0"/>
      <point x="122.0" y="0.0"/>
      <point x="167.0" y="0.0" type="curve"/>
    </contour>
    <contour>
      <point x="160.0" y="680.0"/>
      <point x="160.0" y="654.0"/>
      <point x="160.0" y="612.0" type="curve"/>
      <point x="214.0" y="612.0"/>
      <point x="249.0" y="612.0"/>
      <point x="303.0" y="612.0" type="curve"/>
      <point x="345.0" y="612.0"/>
      <point x="361.0" y="577.0"/>
      <point x="361.0" y="530.0" type="curve"/>
      <point x="361.0" y="489.0"/>
      <point x="345.0" y="459.0"/>
      <point x="307.0" y="459.0" type="curve"/>
      <point x="252.0" y="459.0"/>
      <point x="215.0" y="459.0"/>
      <point x="160.0" y="459.0" type="curve"/>
      <point x="160.0" y="417.0"/>
      <point x="160.0" y="390.0"/>
      <point x="160.0" y="348.0" type="curve"/>
      <point x="194.0" y="348.0"/>
      <point x="216.0" y="348.0"/>
      <point x="250.0" y="348.0" type="curve"/>
      <point x="368.0" y="348.0"/>
      <point x="502.0" y="398.0"/>
      <point x="502.0" y="530.0" type="curve"/>
      <point x="502.0" y="652.0"/>
      <point x="427.0" y="722.0"/>
      <point x="303.0" y="722.0" type="curve"/>
      <point x="249.0" y="722.0"/>
      <point x="214.0" y="722.0"/>
      <point x="160.0" y="722.0" type="curve"/>
    </contour>
    <contour>
      <point x="243.0" y="0.0"/>
      <point x="94.0" y="0.0"/>
      <point x="243.0" y="0.0" type="curve"/>
      <point x="243.0" y="241.0"/>
      <point x="243.0" y="481.0"/>
      <point x="243.0" y="722.0" type="curve"/>
      <point x="94.0" y="722.0"/>
      <point x="243.0" y="722.0"/>
      <point x="94.0" y="722.0" type="curve"/>
      <point x="94.0" y="481.0"/>
      <point x="94.0" y="241.0"/>
      <point x="94.0" y="0.0" type="curve"/>
    </contour>
    <contour>
      <point x="160.0" y="417.0"/>
      <point x="160.0" y="390.0"/>
      <point x="160.0" y="348.0" type="curve"/>
      <point x="215.0" y="348.0"/>
      <point x="252.0" y="348.0"/>
      <point x="307.0" y="348.0" type="curve"/>
      <point x="371.0" y="348.0"/>
      <point x="396.0" y="295.0"/>
      <point x="396.0" y="224.0" type="curve"/>
      <point x="396.0" y="157.0"/>
      <point x="369.0" y="110.0"/>
      <point x="308.0" y="110.0" type="curve"/>
      <point x="252.0" y="110.0"/>
      <point x="216.0" y="110.0"/>
      <point x="160.0" y="110.0" type="curve"/>
      <point x="160.0" y="68.0"/>
      <point x="160.0" y="42.0"/>
      <point x="160.0" y="0.0" type="curve"/>
      <point x="216.0" y="0.0"/>
      <point x="252.0" y="0.0"/>
      <point x="308.0" y="0.0" type="curve"/>
      <point x="451.0" y="0.0"/>
      <point x="539.0" y="82.0"/>
      <point x="539.0" y="224.0" type="curve"/>
      <point x="539.0" y="383.0"/>
      <point x="406.0" y="459.0"/>
      <point x="250.0" y="459.0" type="curve"/>
      <point x="216.0" y="459.0"/>
      <point x="194.0" y="459.0"/>
      <point x="160.0" y="459.0" type="curve"/>
    </contour>
  </outline>
</glyph>
<glyph name="D" format="1">
  <advance width="646"/>
  <unicode hex="0044"/>
  <outline>
    <contour>
      <point x="167.0" y="110.0"/>
      <point x="167.0" y="0.0"/>
      <point x="167.0" y="110.0" type="curve"/>
      <point x="30.0" y="110.0"/>
      <point x="167.0" y="110.0"/>
      <point x="30.0" y="110.0" type="curve"/>
      <point x="30.0" y="0.0"/>
      <point x="30.0" y="110.0"/>
      <point x="30.0" y="0.0" type="curve"/>
      <point x="76.0" y="0.0"/>
      <point x="122.0" y="0.0"/>
      <point x="167.0" y="0.0" type="curve"/>
    </contour>
    <contour>
      <point x="167.0" y="722.0"/>
      <point x="167.0" y="612.0"/>
      <point x="167.0" y="722.0" type="curve"/>
      <point x="122.0" y="722.0"/>
      <point x="76.0" y="722.0"/>
      <point x="30.0" y="722.0" type="curve"/>
      <point x="30.0" y="612.0"/>
      <point x="30.0" y="722.0"/>
      <point x="30.0" y="612.0" type="curve"/>
      <point x="167.0" y="612.0"/>
      <point x="30.0" y="612.0"/>
      <point x="167.0" y="612.0" type="curve"/>
    </contour>
    <contour>
      <point x="94.0" y="722.0"/>
      <point x="237.0" y="722.0"/>
      <point x="94.0" y="722.0" type="curve"/>
      <point x="94.0" y="481.0"/>
      <point x="94.0" y="241.0"/>
      <point x="94.0" y="0.0" type="curve"/>
      <point x="237.0" y="0.0"/>
      <point x="94.0" y="0.0"/>
      <point x="237.0" y="0.0" type="curve"/>
      <point x="237.0" y="241.0"/>
      <point x="237.0" y="481.0"/>
      <point x="237.0" y="722.0" type="curve"/>
    </contour>
    <contour>
      <point x="167.0" y="0.0"/>
      <point x="167.0" y="110.0"/>
      <point x="167.0" y="0.0" type="curve"/>
      <point x="215.0" y="0.0"/>
      <point x="263.0" y="0.0"/>
      <point x="312.0" y="0.0" type="curve"/>
      <point x="521.0" y="0.0"/>
      <point x="616.0" y="134.0"/>
      <point x="616.0" y="354.0" type="curve"/>
      <point x="616.0" y="581.0"/>
      <point x="524.0" y="722.0"/>
      <point x="310.0" y="722.0" type="curve"/>
      <point x="263.0" y="722.0"/>
      <point x="215.0" y="722.0"/>
      <point x="167.0" y="722.0" type="curve"/>
      <point x="167.0" y="612.0"/>
      <point x="167.0" y="722.0"/>
      <point x="167.0" y="612.0" type="curve"/>
      <point x="213.0" y="612.0"/>
      <point x="258.0" y="612.0"/>
      <point x="304.0" y="612.0" type="curve"/>
      <point x="440.0" y="612.0"/>
      <point x="473.0" y="502.0"/>
      <point x="473.0" y="348.0" type="curve"/>
      <point x="473.0" y="210.0"/>
      <point x="446.0" y="110.0"/>
      <point x="325.0" y="110.0" type="curve"/>
      <point x="272.0" y="110.0"/>
      <point x="220.0" y="110.0"/>
      <point x="167.0" y="110.0" type="curve"/>
    </contour>
    <contour>
      <point x="287" y="842" type="move" name="top"/>
    </contour>
  </outline>
</glyph>
<glyph name="E" format="1">
  <advance width="540"/>
  <unicode hex="0045"/>
  <outline>
    <contour>
      <point x="495.0" y="55.0"/>
      <point x="383.0" y="55.0"/>
      <point x="495.0" y="55.0" type="curve"/>
      <point x="495.0" y="175.0"/>
      <point x="495.0" y="55.0"/>
      <point x="495.0" y="175.0" type="curve"/>
      <point x="383.0" y="175.0"/>
      <point x="495.0" y="175.0"/>
      <point x="383.0" y="175.0" type="curve"/>
      <point x="383.0" y="55.0"/>
      <point x="383.0" y="175.0"/>
      <point x="383.0" y="55.0" type="curve"/>
    </contour>
    <contour>
      <point x="358.0" y="667.0"/>
      <point x="470.0" y="667.0"/>
      <point x="358.0" y="667.0" type="curve"/>
      <point x="358.0" y="547.0"/>
      <point x="358.0" y="667.0"/>
      <point x="358.0" y="547.0" type="curve"/>
      <point x="470.0" y="547.0"/>
      <point x="358.0" y="547.0"/>
      <point x="470.0" y="547.0" type="curve"/>
      <point x="470.0" y="667.0"/>
      <point x="470.0" y="547.0"/>
      <point x="470.0" y="667.0" type="curve"/>
    </contour>
    <contour>
      <point x="174.0" y="110.0"/>
      <point x="174.0" y="0.0"/>
      <point x="174.0" y="110.0" type="curve"/>
      <point x="37.0" y="110.0"/>
      <point x="174.0" y="110.0"/>
      <point x="37.0" y="110.0" type="curve"/>
      <point x="37.0" y="0.0"/>
      <point x="37.0" y="110.0"/>
      <point x="37.0" y="0.0" type="curve"/>
      <point x="83.0" y="0.0"/>
      <point x="129.0" y="0.0"/>
      <point x="174.0" y="0.0" type="curve"/>
    </contour>
    <contour>
      <point x="174.0" y="722.0"/>
      <point x="174.0" y="612.0"/>
      <point x="174.0" y="722.0" type="curve"/>
      <point x="129.0" y="722.0"/>
      <point x="83.0" y="722.0"/>
      <point x="37.0" y="722.0" type="curve"/>
      <point x="37.0" y="612.0"/>
      <point x="37.0" y="722.0"/>
      <point x="37.0" y="612.0" type="curve"/>
      <point x="174.0" y="612.0"/>
      <point x="37.0" y="612.0"/>
      <point x="174.0" y="612.0" type="curve"/>
    </contour>
    <contour>
      <point x="177.0" y="317.0"/>
      <point x="177.0" y="428.0"/>
      <point x="177.0" y="317.0" type="curve"/>
      <point x="258.0" y="317.0"/>
      <point x="341.0" y="317.0"/>
      <point x="423.0" y="317.0" type="curve"/>
      <point x="423.0" y="428.0"/>
      <point x="423.0" y="317.0"/>
      <point x="423.0" y="428.0" type="curve"/>
      <point x="341.0" y="428.0"/>
      <point x="258.0" y="428.0"/>
      <point x="177.0" y="428.0" type="curve"/>
    </contour>
    <contour>
      <point x="165.0" y="612.0"/>
      <point x="165.0" y="722.0"/>
      <point x="165.0" y="612.0" type="curve"/>
      <point x="267.0" y="612.0"/>
      <point x="368.0" y="612.0"/>
      <point x="470.0" y="612.0" type="curve"/>
      <point x="470.0" y="722.0"/>
      <point x="470.0" y="612.0"/>
      <point x="470.0" y="722.0" type="curve"/>
      <point x="368.0" y="722.0"/>
      <point x="267.0" y="722.0"/>
      <point x="165.0" y="722.0" type="curve"/>
    </contour>
    <contour>
      <point x="245.0" y="0.0"/>
      <point x="102.0" y="0.0"/>
      <point x="245.0" y="0.0" type="curve"/>
      <point x="245.0" y="0.0"/>
      <point x="245.0" y="722.0"/>
      <point x="245.0" y="722.0" type="curve"/>
      <point x="102.0" y="722.0"/>
      <point x="245.0" y="722.0"/>
      <point x="102.0" y="722.0" type="curve"/>
      <point x="102.0" y="481.0"/>
      <point x="102.0" y="241.0"/>
      <point x="102.0" y="0.0" type="curve"/>
    </contour>
    <contour>
      <point x="165.0" y="0.0"/>
      <point x="165.0" y="110.0"/>
      <point x="165.0" y="0.0" type="curve"/>
      <point x="275.0" y="0.0"/>
      <point x="385.0" y="0.0"/>
      <point x="495.0" y="0.0" type="curve"/>
      <point x="495.0" y="110.0"/>
      <point x="495.0" y="0.0"/>
      <point x="495.0" y="110.0" type="curve"/>
      <point x="385.0" y="110.0"/>
      <point x="275.0" y="110.0"/>
      <point x="165.0" y="110.0" type="curve"/>
    </contour>
    <contour>
      <point x="268.0" y="842.0" type="move" name="top"/>
    </contour>
    <contour>
      <point x="472.0" y="14.0" type="move" name="bottom"/>
    </contour>
  </outline>
</glyph>
<glyph name="F" format="1">
  <advance width="500"/>
  <unicode hex="0046"/>
  <outline>
    <contour>
      <point x="173.0" y="0.0"/>
      <point x="173.0" y="110.0"/>
      <point x="173.0" y="0.0" type="curve"/>
      <point x="219.0" y="0.0"/>
      <point x="173.0" y="0.0"/>
      <point x="311.0" y="0.0" type="curve"/>
      <point x="311.0" y="110.0"/>
      <point x="311.0" y="0.0"/>
      <point x="311.0" y="110.0" type="curve"/>
      <point x="173.0" y="110.0"/>
      <point x="311.0" y="110.0"/>
      <point x="173.0" y="110.0" type="curve"/>
    </contour>
    <contour>
      <point x="173.0" y="722.0"/>
      <point x="173.0" y="612.0"/>
      <point x="173.0" y="722.0" type="curve"/>
      <point x="128.0" y="722.0"/>
      <point x="82.0" y="722.0"/>
      <point x="36.0" y="722.0" type="curve"/>
      <point x="36.0" y="612.0"/>
      <point x="36.0" y="722.0"/>
      <point x="36.0" y="612.0" type="curve"/>
      <point x="173.0" y="612.0"/>
      <point x="36.0" y="612.0"/>
      <point x="173.0" y="612.0" type="curve"/>
    </contour>
    <contour>
      <point x="173.0" y="110.0"/>
      <point x="173.0" y="0.0"/>
      <point x="173.0" y="110.0" type="curve"/>
      <point x="36.0" y="110.0"/>
      <point x="173.0" y="110.0"/>
      <point x="36.0" y="110.0" type="curve"/>
      <point x="36.0" y="0.0"/>
      <point x="36.0" y="110.0"/>
      <point x="36.0" y="0.0" type="curve"/>
      <point x="82.0" y="0.0"/>
      <point x="128.0" y="0.0"/>
      <point x="173.0" y="0.0" type="curve"/>
    </contour>
    <contour>
      <point x="361.0" y="667.0"/>
      <point x="473.0" y="667.0"/>
      <point x="361.0" y="667.0" type="curve"/>
      <point x="361.0" y="547.0"/>
      <point x="361.0" y="667.0"/>
      <point x="361.0" y="547.0" type="curve"/>
      <point x="473.0" y="547.0"/>
      <point x="361.0" y="547.0"/>
      <point x="473.0" y="547.0" type="curve"/>
      <point x="473.0" y="667.0"/>
      <point x="473.0" y="547.0"/>
      <point x="473.0" y="667.0" type="curve"/>
    </contour>
    <contour>
      <point x="176.0" y="317.0"/>
      <point x="176.0" y="428.0"/>
      <point x="176.0" y="317.0" type="curve"/>
      <point x="257.0" y="317.0"/>
      <point x="337.0" y="317.0"/>
      <point x="418.0" y="317.0" type="curve"/>
      <point x="418.0" y="428.0"/>
      <point x="418.0" y="317.0"/>
      <point x="418.0" y="428.0" type="curve"/>
      <point x="337.0" y="428.0"/>
      <point x="257.0" y="428.0"/>
      <point x="176.0" y="428.0" type="curve"/>
    </contour>
    <contour>
      <point x="245.0" y="0.0"/>
      <point x="102.0" y="0.0"/>
      <point x="245.0" y="0.0" type="curve"/>
      <point x="245.0" y="0.0"/>
      <point x="245.0" y="722.0"/>
      <point x="245.0" y="722.0" type="curve"/>
      <point x="102.0" y="722.0"/>
      <point x="245.0" y="722.0"/>
      <point x="102.0" y="722.0" type="curve"/>
      <point x="102.0" y="481.0"/>
      <point x="102.0" y="241.0"/>
      <point x="102.0" y="0.0" type="curve"/>
    </contour>
    <contour>
      <point x="165.0" y="612.0"/>
      <point x="165.0" y="722.0"/>
      <point x="165.0" y="612.0" type="curve"/>
      <point x="267.0" y="612.0"/>
      <point x="370.0" y="612.0"/>
      <point x="473.0" y="612.0" type="curve"/>
      <point x="473.0" y="722.0"/>
      <point x="473.0" y="612.0"/>
      <point x="473.0" y="722.0" type="curve"/>
      <point x="370.0" y="722.0"/>
      <point x="267.0" y="722.0"/>
      <point x="165.0" y="722.0" type="curve"/>
    </contour>
  </outline>
</glyph>
<glyph name="I" format="1">
  <advance width="358"/>
  <unicode hex="0049"/>
  <outline>
    <contour>
      <point x="181.0" y="722.0"/>
      <point x="181.0" y="612.0"/>
      <point x="181.0" y="722.0" type="curve"/>
      <point x="135.0" y="722.0"/>
      <point x="89.0" y="722.0"/>
      <point x="43.0" y="722.0" type="curve"/>
      <point x="43.0" y="612.0"/>
      <point x="43.0" y="722.0"/>
      <point x="43.0" y="612.0" type="curve"/>
      <point x="181.0" y="612.0"/>
      <point x="43.0" y="612.0"/>
      <point x="181.0" y="612.0" type="curve"/>
    </contour>
    <contour>
      <point x="181.0" y="612.0"/>
      <point x="181.0" y="722.0"/>
      <point x="181.0" y="612.0" type="curve"/>
      <point x="318.0" y="612.0"/>
      <point x="181.0" y="612.0"/>
      <point x="318.0" y="612.0" type="curve"/>
      <point x="318.0" y="722.0"/>
      <point x="318.0" y="612.0"/>
      <point x="318.0" y="722.0" type="curve"/>
      <point x="272.0" y="722.0"/>
      <point x="226.0" y="722.0"/>
      <point x="181.0" y="722.0" type="curve"/>
    </contour>
    <contour>
      <point x="181.0" y="0.0"/>
      <point x="181.0" y="110.0"/>
      <point x="181.0" y="0.0" type="curve"/>
      <point x="226.0" y="0.0"/>
      <point x="272.0" y="0.0"/>
      <point x="318.0" y="0.0" type="curve"/>
      <point x="318.0" y="110.0"/>
      <point x="318.0" y="0.0"/>
      <point x="318.0" y="110.0" type="curve"/>
      <point x="181.0" y="110.0"/>
      <point x="318.0" y="110.0"/>
      <point x="181.0" y="110.0" type="curve"/>
    </contour>
    <contour>
      <point x="181.0" y="110.0"/>
      <point x="181.0" y="0.0"/>
      <point x="181.0" y="110.0" type="curve"/>
      <point x="43.0" y="110.0"/>
      <point x="181.0" y="110.0"/>
      <point x="43.0" y="110.0" type="curve"/>
      <point x="43.0" y="0.0"/>
      <point x="43.0" y="110.0"/>
      <point x="43.0" y="0.0" type="curve"/>
      <point x="89.0" y="0.0"/>
      <point x="135.0" y="0.0"/>
      <point x="181.0" y="0.0" type="curve"/>
    </contour>
    <contour>
      <point x="251.0" y="0.0"/>
      <point x="108.0" y="0.0"/>
      <point x="251.0" y="0.0" type="curve"/>
      <point x="251.0" y="241.0"/>
      <point x="251.0" y="481.0"/>
      <point x="251.0" y="722.0" type="curve"/>
      <point x="108.0" y="722.0"/>
      <point x="251.0" y="722.0"/>
      <point x="108.0" y="722.0" type="curve"/>
      <point x="108.0" y="481.0"/>
      <point x="108.0" y="241.0"/>
      <point x="108.0" y="0.0" type="curve"/>
    </contour>
    <contour>
      <point x="182.0" y="842.0" type="move" name="top"/>
    </contour>
    <contour>
      <point x="225.0" y="14.0" type="move" name="bottom"/>
    </contour>
  </outline>
</glyph>
<glyph name="J" format="1">
  <advance width="460"/>
  <unicode hex="004A"/>
  <outline>
    <contour>
      <point x="281.0" y="722.0"/>
      <point x="281.0" y="612.0"/>
      <point x="281.0" y="722.0" type="curve"/>
      <point x="236.0" y="722.0"/>
      <point x="190.0" y="722.0"/>
      <point x="144.0" y="722.0" type="curve"/>
      <point x="144.0" y="612.0"/>
      <point x="144.0" y="722.0"/>
      <point x="144.0" y="612.0" type="curve"/>
      <point x="281.0" y="612.0"/>
      <point x="144.0" y="612.0"/>
      <point x="281.0" y="612.0" type="curve"/>
    </contour>
    <contour>
      <point x="281.0" y="612.0"/>
      <point x="281.0" y="722.0"/>
      <point x="281.0" y="612.0" type="curve"/>
      <point x="419.0" y="612.0"/>
      <point x="281.0" y="612.0"/>
      <point x="419.0" y="612.0" type="curve"/>
      <point x="419.0" y="722.0"/>
      <point x="419.0" y="612.0"/>
      <point x="419.0" y="722.0" type="curve"/>
      <point x="373.0" y="722.0"/>
      <point x="327.0" y="722.0"/>
      <point x="281.0" y="722.0" type="curve"/>
    </contour>
    <contour>
      <point x="34.0" y="45.0"/>
      <point x="99.0" y="133.0"/>
      <point x="34.0" y="45.0" type="curve"/>
      <point x="60.0" y="23.0"/>
      <point x="100.0" y="-4.0"/>
      <point x="151.0" y="-4.0" type="curve"/>
      <point x="289.0" y="-4.0"/>
      <point x="352.0" y="85.0"/>
      <point x="352.0" y="246.0" type="curve"/>
      <point x="352.0" y="403.0"/>
      <point x="352.0" y="564.0"/>
      <point x="352.0" y="722.0" type="curve"/>
      <point x="209.0" y="722.0"/>
      <point x="352.0" y="722.0"/>
      <point x="209.0" y="722.0" type="curve"/>
      <point x="209.0" y="564.0"/>
      <point x="209.0" y="403.0"/>
      <point x="209.0" y="246.0" type="curve"/>
      <point x="209.0" y="172.0"/>
      <point x="210.0" y="109.0"/>
      <point x="151.0" y="109.0" type="curve"/>
      <point x="128.0" y="109.0"/>
      <point x="116.0" y="121.0"/>
      <point x="99.0" y="133.0" type="curve"/>
    </contour>
  </outline>
</glyph>
<glyph name="K" format="1">
  <advance width="633"/>
  <unicode hex="004B"/>
  <outline>
    <contour>
      <point x="504.0" y="110.0"/>
      <point x="498.0" y="0.0"/>
      <point x="504.0" y="110.0" type="curve"/>
      <point x="364.0" y="110.0"/>
      <point x="447.0" y="110.0"/>
      <point x="307.0" y="110.0" type="curve"/>
      <point x="307.0" y="0.0"/>
      <point x="307.0" y="110.0"/>
      <point x="307.0" y="0.0" type="curve"/>
      <point x="352.0" y="0.0"/>
      <point x="453.0" y="0.0"/>
      <point x="498.0" y="0.0" type="curve"/>
    </contour>
    <contour>
      <point x="444.0" y="722.0"/>
      <point x="444.0" y="612.0"/>
      <point x="444.0" y="722.0" type="curve"/>
      <point x="398.0" y="722.0"/>
      <point x="346.0" y="722.0"/>
      <point x="301.0" y="722.0" type="curve"/>
      <point x="301.0" y="612.0"/>
      <point x="301.0" y="722.0"/>
      <point x="301.0" y="612.0" type="curve"/>
      <point x="438.0" y="612.0"/>
      <point x="307.0" y="612.0"/>
      <point x="444.0" y="612.0" type="curve"/>
    </contour>
    <contour>
      <point x="501.0" y="0.0"/>
      <point x="501.0" y="110.0"/>
      <point x="501.0" y="0.0" type="curve"/>
      <point x="547.0" y="0.0"/>
      <point x="553.0" y="0.0"/>
      <point x="599.0" y="0.0" type="curve"/>
      <point x="599.0" y="110.0"/>
      <point x="599.0" y="0.0"/>
      <point x="599.0" y="110.0" type="curve"/>
      <point x="461.0" y="110.0"/>
      <point x="639.0" y="110.0"/>
      <point x="501.0" y="110.0" type="curve"/>
    </contour>
    <contour>
      <point x="444.0" y="612.0"/>
      <point x="444.0" y="722.0"/>
      <point x="444.0" y="612.0" type="curve"/>
      <point x="581.0" y="612.0"/>
      <point x="444.0" y="612.0"/>
      <point x="581.0" y="612.0" type="curve"/>
      <point x="581.0" y="722.0"/>
      <point x="581.0" y="612.0"/>
      <point x="581.0" y="722.0" type="curve"/>
      <point x="536.0" y="722.0"/>
      <point x="490.0" y="722.0"/>
      <point x="444.0" y="722.0" type="curve"/>
    </contour>
    <contour>
      <point x="177.0" y="722.0"/>
      <point x="177.0" y="612.0"/>
      <point x="177.0" y="722.0" type="curve"/>
      <point x="132.0" y="722.0"/>
      <point x="86.0" y="722.0"/>
      <point x="40.0" y="722.0" type="curve"/>
      <point x="40.0" y="612.0"/>
      <point x="40.0" y="722.0"/>
      <point x="40.0" y="612.0" type="curve"/>
      <point x="177.0" y="612.0"/>
      <point x="40.0" y="612.0"/>
      <point x="177.0" y="612.0" type="curve"/>
    </contour>
    <contour>
      <point x="177.0" y="612.0"/>
      <point x="177.0" y="722.0"/>
      <point x="177.0" y="612.0" type="curve"/>
      <point x="315.0" y="612.0"/>
      <point x="141.0" y="612.0"/>
      <point x="279.0" y="612.0" type="curve"/>
      <point x="279.0" y="722.0"/>
      <point x="279.0" y="612.0"/>
      <point x="279.0" y="722.0" type="curve"/>
      <point x="233.0" y="722.0"/>
      <point x="223.0" y="722.0"/>
      <point x="177.0" y="722.0" type="curve"/>
    </contour>
    <contour>
      <point x="177.0" y="0.0"/>
      <point x="177.0" y="110.0"/>
      <point x="177.0" y="0.0" type="curve"/>
      <point x="223.0" y="0.0"/>
      <point x="144.0" y="0.0"/>
      <point x="282.0" y="0.0" type="curve"/>
      <point x="282.0" y="110.0"/>
      <point x="282.0" y="0.0"/>
      <point x="282.0" y="110.0" type="curve"/>
      <point x="144.0" y="110.0"/>
      <point x="315.0" y="110.0"/>
      <point x="177.0" y="110.0" type="curve"/>
    </contour>
    <contour>
      <point x="177.0" y="110.0"/>
      <point x="177.0" y="0.0"/>
      <point x="177.0" y="110.0" type="curve"/>
      <point x="40.0" y="110.0"/>
      <point x="177.0" y="110.0"/>
      <point x="40.0" y="110.0" type="curve"/>
      <point x="40.0" y="0.0"/>
      <point x="40.0" y="110.0"/>
      <point x="40.0" y="0.0" type="curve"/>
      <point x="86.0" y="0.0"/>
      <point x="132.0" y="0.0"/>
      <point x="177.0" y="0.0" type="curve"/>
    </contour>
    <contour>
      <point x="419.0" y="722.0"/>
      <point x="576.0" y="722.0"/>
      <point x="419.0" y="722.0" type="curve"/>
      <point x="318.0" y="608.0"/>
      <point x="217.0" y="494.0"/>
      <point x="116.0" y="380.0" type="curve"/>
      <point x="268.0" y="380.0"/>
      <point x="116.0" y="380.0"/>
      <point x="268.0" y="380.0" type="curve"/>
      <point x="370.0" y="494.0"/>
      <point x="473.0" y="608.0"/>
      <point x="576.0" y="722.0" type="curve"/>
    </contour>
    <contour>
      <point x="249.0" y="0.0"/>
      <point x="106.0" y="0.0"/>
      <point x="249.0" y="0.0" type="curve"/>
      <point x="249.0" y="0.0"/>
      <point x="249.0" y="722.0"/>
      <point x="249.0" y="722.0" type="curve"/>
      <point x="106.0" y="722.0"/>
      <point x="249.0" y="722.0"/>
      <point x="106.0" y="722.0" type="curve"/>
      <point x="106.0" y="481.0"/>
      <point x="106.0" y="241.0"/>
      <point x="106.0" y="0.0" type="curve"/>
    </contour>
    <contour>
      <point x="594.0" y="0.0"/>
      <point x="436.0" y="0.0"/>
      <point x="594.0" y="0.0" type="curve"/>
      <point x="486.0" y="127.0"/>
      <point x="376.0" y="253.0"/>
      <point x="268.0" y="380.0" type="curve"/>
      <point x="116.0" y="380.0"/>
      <point x="268.0" y="380.0"/>
      <point x="116.0" y="380.0" type="curve"/>
      <point x="223.0" y="253.0"/>
      <point x="329.0" y="127.0"/>
      <point x="436.0" y="0.0" type="curve"/>
    </contour>
    <contour>
      <point x="328" y="38" type="move" name="bottom"/>
    </contour>
  </outline>
</glyph>
<glyph name="L" format="1">
  <advance width="518"/>
  <unicode hex="004C"/>
  <outline>
    <contour>
      <point x="481.0" y="55.0"/>
      <point x="369.0" y="55.0"/>
      <point x="481.0" y="55.0" type="curve"/>
      <point x="481.0" y="175.0"/>
      <point x="481.0" y="55.0"/>
      <point x="481.0" y="175.0" type="curve"/>
      <point x="369.0" y="175.0"/>
      <point x="481.0" y="175.0"/>
      <point x="369.0" y="175.0" type="curve"/>
      <point x="369.0" y="55.0"/>
      <point x="369.0" y="175.0"/>
      <point x="369.0" y="55.0" type="curve"/>
    </contour>
    <contour>
      <point x="165.0" y="110.0"/>
      <point x="165.0" y="0.0"/>
      <point x="165.0" y="110.0" type="curve"/>
      <point x="28.0" y="110.0"/>
      <point x="165.0" y="110.0"/>
      <point x="28.0" y="110.0" type="curve"/>
      <point x="27.0" y="0.0"/>
      <point x="28.0" y="110.0"/>
      <point x="27.0" y="0.0" type="curve"/>
      <point x="73.0" y="0.0"/>
      <point x="119.0" y="0.0"/>
      <point x="165.0" y="0.0" type="curve"/>
    </contour>
    <contour>
      <point x="165.0" y="722.0"/>
      <point x="165.0" y="612.0"/>
      <point x="165.0" y="722.0" type="curve"/>
      <point x="119.0" y="722.0"/>
      <point x="73.0" y="722.0"/>
      <point x="28.0" y="722.0" type="curve"/>
      <point x="27.0" y="612.0"/>
      <point x="28.0" y="722.0"/>
      <point x="27.0" y="612.0" type="curve"/>
      <point x="165.0" y="612.0"/>
      <point x="27.0" y="612.0"/>
      <point x="165.0" y="612.0" type="curve"/>
    </contour>
    <contour>
      <point x="165.0" y="612.0"/>
      <point x="165.0" y="722.0"/>
      <point x="165.0" y="612.0" type="curve"/>
      <point x="302.0" y="612.0"/>
      <point x="165.0" y="612.0"/>
      <point x="302.0" y="612.0" type="curve"/>
      <point x="302.0" y="722.0"/>
      <point x="302.0" y="612.0"/>
      <point x="302.0" y="722.0" type="curve"/>
      <point x="256.0" y="722.0"/>
      <point x="210.0" y="722.0"/>
      <point x="165.0" y="722.0" type="curve"/>
    </contour>
    <contour>
      <point x="237.0" y="0.0"/>
      <point x="94.0" y="0.0"/>
      <point x="237.0" y="0.0" type="curve"/>
      <point x="237.0" y="241.0"/>
      <point x="237.0" y="481.0"/>
      <point x="237.0" y="722.0" type="curve"/>
      <point x="94.0" y="722.0"/>
      <point x="237.0" y="722.0"/>
      <point x="94.0" y="722.0" type="curve"/>
      <point x="94.0" y="481.0"/>
      <point x="94.0" y="241.0"/>
      <point x="94.0" y="0.0" type="curve"/>
    </contour>
    <contour>
      <point x="165.0" y="0.0"/>
      <point x="165.0" y="110.0"/>
      <point x="165.0" y="0.0" type="curve"/>
      <point x="270.0" y="0.0"/>
      <point x="376.0" y="0.0"/>
      <point x="481.0" y="0.0" type="curve"/>
      <point x="481.0" y="110.0"/>
      <point x="481.0" y="0.0"/>
      <point x="481.0" y="110.0" type="curve"/>
      <point x="376.0" y="110.0"/>
      <point x="270.0" y="110.0"/>
      <point x="165.0" y="110.0" type="curve"/>
    </contour>
    <contour>
      <point x="160.0" y="841.0" type="move" name="top"/>
    </contour>
    <contour>
      <point x="275.0" y="41.0" type="move" name="bottom"/>
    </contour>
  </outline>
</glyph>
<glyph name="M" format="1">
  <advance width="827"/>
  <unicode hex="004D"/>
  <outline>
    <contour>
      <point x="666.0" y="0.0"/>
      <point x="666.0" y="110.0"/>
      <point x="666.0" y="0.0" type="curve"/>
      <point x="712.0" y="0.0"/>
      <point x="758.0" y="0.0"/>
      <point x="804.0" y="0.0" type="curve"/>
      <point x="804.0" y="110.0"/>
      <point x="804.0" y="0.0"/>
      <point x="804.0" y="110.0" type="curve"/>
      <point x="666.0" y="110.0"/>
      <point x="804.0" y="110.0"/>
      <point x="666.0" y="110.0" type="curve"/>
    </contour>
    <contour>
      <point x="666.0" y="110.0"/>
      <point x="666.0" y="0.0"/>
      <point x="666.0" y="110.0" type="curve"/>
      <point x="529.0" y="110.0"/>
      <point x="666.0" y="110.0"/>
      <point x="529.0" y="110.0" type="curve"/>
      <point x="529.0" y="0.0"/>
      <point x="529.0" y="110.0"/>
      <point x="529.0" y="0.0" type="curve"/>
      <point x="575.0" y="0.0"/>
      <point x="621.0" y="0.0"/>
      <point x="666.0" y="0.0" type="curve"/>
    </contour>
    <contour>
      <point x="151.0" y="110.0"/>
      <point x="151.0" y="0.0"/>
      <point x="151.0" y="110.0" type="curve"/>
      <point x="13.0" y="110.0"/>
      <point x="151.0" y="110.0"/>
      <point x="13.0" y="110.0" type="curve"/>
      <point x="13.0" y="0.0"/>
      <point x="13.0" y="110.0"/>
      <point x="13.0" y="0.0" type="curve"/>
      <point x="59.0" y="0.0"/>
      <point x="105.0" y="0.0"/>
      <point x="151.0" y="0.0" type="curve"/>
    </contour>
    <contour>
      <point x="194.0" y="722.0"/>
      <point x="194.0" y="612.0"/>
      <point x="194.0" y="722.0" type="curve"/>
      <point x="148.0" y="722.0"/>
      <point x="102.0" y="722.0"/>
      <point x="57.0" y="722.0" type="curve"/>
      <point x="56.0" y="612.0"/>
      <point x="57.0" y="722.0"/>
      <point x="56.0" y="612.0" type="curve"/>
      <point x="194.0" y="612.0"/>
      <point x="56.0" y="612.0"/>
      <point x="194.0" y="612.0" type="curve"/>
    </contour>
    <contour>
      <point x="621.0" y="612.0"/>
      <point x="621.0" y="722.0"/>
      <point x="621.0" y="612.0" type="curve"/>
      <point x="758.0" y="612.0"/>
      <point x="621.0" y="612.0"/>
      <point x="758.0" y="612.0" type="curve"/>
      <point x="758.0" y="722.0"/>
      <point x="758.0" y="612.0"/>
      <point x="758.0" y="722.0" type="curve"/>
      <point x="712.0" y="722.0"/>
      <point x="666.0" y="722.0"/>
      <point x="621.0" y="722.0" type="curve"/>
    </contour>
    <contour>
      <point x="151.0" y="0.0"/>
      <point x="151.0" y="110.0"/>
      <point x="151.0" y="0.0" type="curve"/>
      <point x="196.0" y="0.0"/>
      <point x="151.0" y="0.0"/>
      <point x="288.0" y="0.0" type="curve"/>
      <point x="288.0" y="110.0"/>
      <point x="288.0" y="0.0"/>
      <point x="288.0" y="110.0" type="curve"/>
      <point x="151.0" y="110.0"/>
      <point x="288.0" y="110.0"/>
      <point x="151.0" y="110.0" type="curve"/>
    </contour>
    <contour>
      <point x="746.0" y="0.0"/>
      <point x="603.0" y="0.0"/>
      <point x="746.0" y="0.0" type="curve"/>
      <point x="730.0" y="241.0"/>
      <point x="709.0" y="481.0"/>
      <point x="694.0" y="722.0" type="curve"/>
      <point x="564.0" y="722.0"/>
      <point x="694.0" y="722.0"/>
      <point x="564.0" y="722.0" type="curve"/>
      <point x="579.0" y="481.0"/>
      <point x="588.0" y="241.0"/>
      <point x="603.0" y="0.0" type="curve"/>
    </contour>
    <contour>
      <point x="210.0" y="0.0"/>
      <point x="88.0" y="0.0"/>
      <point x="210.0" y="0.0" type="curve"/>
      <point x="224.0" y="241.0"/>
      <point x="238.0" y="481.0"/>
      <point x="252.0" y="722.0" type="curve"/>
      <point x="132.0" y="722.0"/>
      <point x="252.0" y="722.0"/>
      <point x="132.0" y="722.0" type="curve"/>
      <point x="117.0" y="481.0"/>
      <point x="103.0" y="241.0"/>
      <point x="88.0" y="0.0" type="curve"/>
    </contour>
    <contour>
      <point x="465.0" y="0.0"/>
      <point x="344.0" y="0.0"/>
      <point x="465.0" y="0.0" type="curve"/>
      <point x="395.0" y="241.0"/>
      <point x="324.0" y="481.0"/>
      <point x="254.0" y="722.0" type="curve"/>
      <point x="134.0" y="722.0"/>
      <point x="254.0" y="722.0"/>
      <point x="134.0" y="722.0" type="curve"/>
      <point x="204.0" y="481.0"/>
      <point x="274.0" y="241.0"/>
      <point x="344.0" y="0.0" type="curve"/>
    </contour>
    <contour>
      <point x="472.0" y="0.0"/>
      <point x="350.0" y="0.0"/>
      <point x="472.0" y="0.0" type="curve"/>
      <point x="541.0" y="241.0"/>
      <point x="610.0" y="481.0"/>
      <point x="678.0" y="722.0" type="curve"/>
      <point x="558.0" y="722.0"/>
      <point x="678.0" y="722.0"/>
      <point x="558.0" y="722.0" type="curve"/>
      <point x="489.0" y="481.0"/>
      <point x="419.0" y="241.0"/>
      <point x="350.0" y="0.0" type="curve"/>
    </contour>
  </outline>
</glyph>
<glyph name="N" format="1">
  <advance width="744"/>
  <unicode hex="004E"/>
  <outline>
    <contour>
      <point x="167.0" y="722.0"/>
      <point x="167.0" y="612.0"/>
      <point x="167.0" y="722.0" type="curve"/>
      <point x="121.0" y="722.0"/>
      <point x="75.0" y="722.0"/>
      <point x="29.0" y="722.0" type="curve"/>
      <point x="29.0" y="612.0"/>
      <point x="29.0" y="722.0"/>
      <point x="29.0" y="612.0" type="curve"/>
      <point x="167.0" y="612.0"/>
      <point x="29.0" y="612.0"/>
      <point x="167.0" y="612.0" type="curve"/>
    </contour>
    <contour>
      <point x="572.0" y="612.0"/>
      <point x="572.0" y="722.0"/>
      <point x="572.0" y="612.0" type="curve"/>
      <point x="709.0" y="612.0"/>
      <point x="572.0" y="612.0"/>
      <point x="709.0" y="612.0" type="curve"/>
      <point x="709.0" y="722.0"/>
      <point x="709.0" y="612.0"/>
      <point x="709.0" y="722.0" type="curve"/>
      <point x="663.0" y="722.0"/>
      <point x="617.0" y="722.0"/>
      <point x="572.0" y="722.0" type="curve"/>
    </contour>
    <contour>
      <point x="572.0" y="722.0"/>
      <point x="572.0" y="612.0"/>
      <point x="572.0" y="722.0" type="curve"/>
      <point x="526.0" y="722.0"/>
      <point x="480.0" y="722.0"/>
      <point x="434.0" y="722.0" type="curve"/>
      <point x="434.0" y="612.0"/>
      <point x="434.0" y="722.0"/>
      <point x="434.0" y="612.0" type="curve"/>
      <point x="572.0" y="612.0"/>
      <point x="434.0" y="612.0"/>
      <point x="572.0" y="612.0" type="curve"/>
    </contour>
    <contour>
      <point x="166.0" y="110.0"/>
      <point x="166.0" y="0.0"/>
      <point x="166.0" y="110.0" type="curve"/>
      <point x="29.0" y="110.0"/>
      <point x="166.0" y="110.0"/>
      <point x="29.0" y="110.0" type="curve"/>
      <point x="28.0" y="0.0"/>
      <point x="29.0" y="110.0"/>
      <point x="28.0" y="0.0" type="curve"/>
      <point x="74.0" y="0.0"/>
      <point x="120.0" y="0.0"/>
      <point x="166.0" y="0.0" type="curve"/>
    </contour>
    <contour>
      <point x="166.0" y="0.0"/>
      <point x="166.0" y="110.0"/>
      <point x="166.0" y="0.0" type="curve"/>
      <point x="211.0" y="0.0"/>
      <point x="166.0" y="0.0"/>
      <point x="303.0" y="0.0" type="curve"/>
      <point x="303.0" y="110.0"/>
      <point x="303.0" y="0.0"/>
      <point x="303.0" y="110.0" type="curve"/>
      <point x="166.0" y="110.0"/>
      <point x="303.0" y="110.0"/>
      <point x="166.0" y="110.0" type="curve"/>
    </contour>
    <contour>
      <point x="643.0" y="0.0"/>
      <point x="495.0" y="0.0"/>
      <point x="643.0" y="0.0" type="curve"/>
      <point x="509.0" y="241.0"/>
      <point x="375.0" y="481.0"/>
      <point x="242.0" y="722.0" type="curve"/>
      <point x="94.0" y="722.0"/>
      <point x="242.0" y="722.0"/>
      <point x="94.0" y="722.0" type="curve"/>
      <point x="227.0" y="481.0"/>
      <point x="361.0" y="241.0"/>
      <point x="495.0" y="0.0" type="curve"/>
    </contour>
    <contour>
      <point x="499.0" y="722.0"/>
      <point x="642.0" y="722.0"/>
      <point x="499.0" y="722.0" type="curve"/>
      <point x="499.0" y="481.0"/>
      <point x="499.0" y="241.0"/>
      <point x="499.0" y="0.0" type="curve"/>
      <point x="642.0" y="0.0"/>
      <point x="499.0" y="0.0"/>
      <point x="642.0" y="0.0" type="curve"/>
      <point x="642.0" y="241.0"/>
      <point x="642.0" y="481.0"/>
      <point x="642.0" y="722.0" type="curve"/>
    </contour>
    <contour>
      <point x="237.0" y="0.0"/>
      <point x="94.0" y="0.0"/>
      <point x="237.0" y="0.0" type="curve"/>
      <point x="237.0" y="241.0"/>
      <point x="237.0" y="481.0"/>
      <point x="237.0" y="722.0" type="curve"/>
      <point x="94.0" y="722.0"/>
      <point x="237.0" y="722.0"/>
      <point x="94.0" y="722.0" type="curve"/>
      <point x="94.0" y="481.0"/>
      <point x="94.0" y="241.0"/>
      <point x="94.0" y="0.0" type="curve"/>
    </contour>
    <contour>
      <point x="368" y="842" type="move" name="top"/>
    </contour>
    <contour>
      <point x="390" y="29" type="move" name="bottom"/>
    </contour>
  </outline>
</glyph>
<glyph name="O" format="1">
  <advance width="611"/>
  <unicode hex="004F"/>
  <outline>
    <contour>
      <point x="157.75" y="360.128917379"/>
      <point x="14.75" y="360.128917379"/>
      <point x="157.75" y="360.128917379" type="curve"/>
      <point x="157.75" y="495.118210673"/>
      <point x="178.983182871" y="611.5"/>
      <point x="295.75" y="611.5" type="curve"/>
      <point x="414.397541389" y="611.5"/>
      <point x="448.25" y="498.390974257"/>
      <point x="448.25" y="362.742165242" type="curve"/>
      <point x="448.25" y="227.249757484"/>
      <point x="424.041556196" y="110.5"/>
      <point x="306.625" y="110.5" type="curve"/>
      <point x="187.84411482" y="110.5"/>
      <point x="157.75" y="224.103830714"/>
      <point x="157.75" y="360.128917379" type="curve"/>
      <point x="14.75" y="360.128917379"/>
      <point x="157.75" y="360.128917379"/>
      <point x="14.75" y="360.128917379" type="curve"/>
      <point x="14.75" y="151.28017851"/>
      <point x="107.985782991" y="-5.0"/>
      <point x="300.125" y="-5.0" type="curve"/>
      <point x="495.179234016" y="-5.0"/>
      <point x="591.25" y="152.116582717"/>
      <point x="591.25" y="362.742165242" type="curve"/>
      <point x="591.25" y="570.179501928"/>
      <point x="499.920975318" y="727.0"/>
      <point x="308.75" y="727.0" type="curve"/>
      <point x="112.672889502" y="727.0"/>
      <point x="14.75" y="570.274889954"/>
      <point x="14.75" y="360.128917379" type="curve"/>
    </contour>
    <contour>
      <point x="302.0" y="842.0" type="move" name="top"/>
    </contour>
  </outline>
</glyph>
<glyph name="Q" format="1">
  <advance width="675"/>
  <unicode hex="0051"/>
  <outline>
    <contour>
      <point x="286.0" y="27.0"/>
      <point x="409.0" y="82.0"/>
      <point x="286.0" y="27.0" type="curve"/>
      <point x="364.0" y="-141.0"/>
      <point x="471.0" y="-211.0"/>
      <point x="645.0" y="-211.0" type="curve"/>
      <point x="645.0" y="-95.0"/>
      <point x="645.0" y="-211.0"/>
      <point x="645.0" y="-95.0" type="curve"/>
      <point x="527.0" y="-95.0"/>
      <point x="464.0" y="-34.0"/>
      <point x="409.0" y="82.0" type="curve"/>
    </contour>
    <contour>
      <point x="195.0" y="360.0"/>
      <point x="52.0" y="360.0"/>
      <point x="195.0" y="360.0" type="curve"/>
      <point x="195.0" y="493.0"/>
      <point x="222.0" y="605.0"/>
      <point x="337.0" y="605.0" type="curve"/>
      <point x="454.0" y="605.0"/>
      <point x="487.0" y="495.0"/>
      <point x="487.0" y="360.0" type="curve"/>
      <point x="487.0" y="226.0"/>
      <point x="462.0" y="110.0"/>
      <point x="346.0" y="110.0" type="curve"/>
      <point x="227.0" y="111.0"/>
      <point x="195.0" y="224.0"/>
      <point x="195.0" y="360.0" type="curve"/>
      <point x="52.0" y="360.0"/>
      <point x="195.0" y="360.0"/>
      <point x="52.0" y="360.0" type="curve"/>
      <point x="52.0" y="151.0"/>
      <point x="147.0" y="-5.0"/>
      <point x="339.0" y="-5.0" type="curve"/>
      <point x="535.0" y="-5.0"/>
      <point x="630.0" y="154.0"/>
      <point x="630.0" y="366.0" type="curve"/>
      <point x="630.0" y="574.0"/>
      <point x="540.0" y="732.0"/>
      <point x="348.0" y="732.0" type="curve"/>
      <point x="151.0" y="732.0"/>
      <point x="52.0" y="572.0"/>
      <point x="52.0" y="360.0" type="curve"/>
    </contour>
  </outline>
</glyph>
<glyph name="S" format="1">
  <advance width="503"/>
  <unicode hex="0053"/>
  <outline>
    <contour>
      <point x="302.0" y="661.0"/>
      <point x="414.0" y="661.0"/>
      <point x="302.0" y="661.0" type="curve"/>
      <point x="302.0" y="541.0"/>
      <point x="302.0" y="638.0"/>
      <point x="302.0" y="518.0" type="curve"/>
      <point x="414.0" y="518.0"/>
      <point x="302.0" y="518.0"/>
      <point x="414.0" y="518.0" type="curve"/>
      <point x="414.0" y="638.0"/>
      <point x="414.0" y="541.0"/>
      <point x="414.0" y="661.0" type="curve"/>
    </contour>
    <contour>
      <point x="159.0" y="53.0"/>
      <point x="47.0" y="53.0"/>
      <point x="159.0" y="53.0" type="curve"/>
      <point x="159.0" y="173.0"/>
      <point x="159.0" y="87.0"/>
      <point x="159.0" y="207.0" type="curve"/>
      <point x="47.0" y="207.0"/>
      <point x="159.0" y="207.0"/>
      <point x="47.0" y="207.0" type="curve"/>
      <point x="47.0" y="87.0"/>
      <point x="47.0" y="173.0"/>
      <point x="47.0" y="53.0" type="curve"/>
    </contour>
    <contour>
      <point x="47.0" y="53.0"/>
      <point x="125.0" y="158.0"/>
      <point x="47.0" y="53.0" type="curve"/>
      <point x="103.0" y="12.0"/>
      <point x="153.0" y="-5.0"/>
      <point x="222.0" y="-5.0" type="curve"/>
      <point x="358.0" y="-5.0"/>
      <point x="461.0" y="66.0"/>
      <point x="461.0" y="194.0" type="curve"/>
      <point x="461.0" y="304.0"/>
      <point x="386.0" y="363.0"/>
      <point x="288.0" y="418.0" type="curve"/>
      <point x="231.0" y="450.0"/>
      <point x="180.0" y="492.0"/>
      <point x="180.0" y="539.0" type="curve"/>
      <point x="177.0" y="578.0"/>
      <point x="203.0" y="612.0"/>
      <point x="241.0" y="612.0" type="curve"/>
      <point x="285.0" y="612.0"/>
      <point x="320.0" y="589.0"/>
      <point x="349.0" y="573.0" type="curve"/>
      <point x="414.0" y="661.0"/>
      <point x="349.0" y="573.0"/>
      <point x="414.0" y="661.0" type="curve"/>
      <point x="360.0" y="700.0"/>
      <point x="311.0" y="717.0"/>
      <point x="244.0" y="717.0" type="curve"/>
      <point x="123.0" y="717.0"/>
      <point x="37.0" y="649.0"/>
      <point x="37.0" y="534.0" type="curve"/>
      <point x="37.0" y="429.0"/>
      <point x="107.0" y="368.0"/>
      <point x="199.0" y="316.0" type="curve"/>
      <point x="260.0" y="283.0"/>
      <point x="318.0" y="241.0"/>
      <point x="318.0" y="194.0" type="curve"/>
      <point x="318.0" y="156.0"/>
      <point x="285.0" y="111.0"/>
      <point x="235.0" y="111.0" type="curve"/>
      <point x="190.0" y="111.0"/>
      <point x="162.0" y="132.0"/>
      <point x="125.0" y="158.0" type="curve"/>
    </contour>
    <contour>
      <point x="243.0" y="845.0" type="move" name="top"/>
    </contour>
    <contour>
      <point x="192.0" y="26.0" type="move" name="bottom"/>
    </contour>
  </outline>
</glyph>
<glyph name="T" format="1">
  <advance width="544"/>
  <unicode hex="0054"/>
  <outline>
    <contour>
      <point x="40.0" y="666.0"/>
      <point x="151.0" y="666.0"/>
      <point x="40.0" y="666.0" type="curve"/>
      <point x="40.0" y="546.0"/>
      <point x="40.0" y="666.0"/>
      <point x="40.0" y="546.0" type="curve"/>
      <point x="151.0" y="546.0"/>
      <point x="40.0" y="546.0"/>
      <point x="151.0" y="546.0" type="curve"/>
      <point x="151.0" y="666.0"/>
      <point x="151.0" y="546.0"/>
      <point x="151.0" y="666.0" type="curve"/>
    </contour>
    <contour>
      <point x="393.0" y="666.0"/>
      <point x="505.0" y="666.0"/>
      <point x="393.0" y="666.0" type="curve"/>
      <point x="393.0" y="546.0"/>
      <point x="393.0" y="666.0"/>
      <point x="393.0" y="546.0" type="curve"/>
      <point x="505.0" y="546.0"/>
      <point x="393.0" y="546.0"/>
      <point x="505.0" y="546.0" type="curve"/>
      <point x="505.0" y="666.0"/>
      <point x="505.0" y="546.0"/>
      <point x="505.0" y="666.0" type="curve"/>
    </contour>
    <contour>
      <point x="271.0" y="0.0"/>
      <point x="271.0" y="110.0"/>
      <point x="271.0" y="0.0" type="curve"/>
      <point x="317.0" y="0.0"/>
      <point x="363.0" y="0.0"/>
      <point x="409.0" y="0.0" type="curve"/>
      <point x="409.0" y="110.0"/>
      <point x="409.0" y="0.0"/>
      <point x="409.0" y="110.0" type="curve"/>
      <point x="271.0" y="110.0"/>
      <point x="409.0" y="110.0"/>
      <point x="271.0" y="110.0" type="curve"/>
    </contour>
    <contour>
      <point x="271.0" y="110.0"/>
      <point x="271.0" y="0.0"/>
      <point x="271.0" y="110.0" type="curve"/>
      <point x="134.0" y="110.0"/>
      <point x="271.0" y="110.0"/>
      <point x="134.0" y="110.0" type="curve"/>
      <point x="134.0" y="0.0"/>
      <point x="134.0" y="110.0"/>
      <point x="134.0" y="0.0" type="curve"/>
      <point x="180.0" y="0.0"/>
      <point x="226.0" y="0.0"/>
      <point x="271.0" y="0.0" type="curve"/>
    </contour>
    <contour>
      <point x="344.0" y="0.0"/>
      <point x="201.0" y="0.0"/>
      <point x="344.0" y="0.0" type="curve"/>
      <point x="344.0" y="237.0"/>
      <point x="344.0" y="473.0"/>
      <point x="344.0" y="710.0" type="curve"/>
      <point x="201.0" y="710.0"/>
      <point x="344.0" y="710.0"/>
      <point x="201.0" y="710.0" type="curve"/>
      <point x="200.0" y="473.0"/>
      <point x="201.0" y="237.0"/>
      <point x="201.0" y="0.0" type="curve"/>
    </contour>
    <contour>
      <point x="40.0" y="600.0"/>
      <point x="40.0" y="727.0"/>
      <point x="40.0" y="605.0" type="curve"/>
      <point x="194.0" y="605.0"/>
      <point x="350.0" y="605.0"/>
      <point x="505.0" y="605.0" type="curve"/>
      <point x="505.0" y="727.0"/>
      <point x="505.0" y="600.0"/>
      <point x="505.0" y="722.0" type="curve"/>
      <point x="350.0" y="722.0"/>
      <point x="194.0" y="722.0"/>
      <point x="40.0" y="722.0" type="curve"/>
    </contour>
    <contour>
      <point x="273" y="840" type="move" name="top"/>
    </contour>
    <contour>
      <point x="274" y="32" type="move" name="bottom"/>
    </contour>
  </outline>
</glyph>
<glyph name="U" format="1">
  <advance width="728"/>
  <unicode hex="0055"/>
  <outline>
    <contour>
      <point x="550.0" y="612.0"/>
      <point x="550.0" y="722.0"/>
      <point x="550.0" y="612.0" type="curve"/>
      <point x="687.0" y="612.0"/>
      <point x="550.0" y="612.0"/>
      <point x="687.0" y="612.0" type="curve"/>
      <point x="687.0" y="722.0"/>
      <point x="687.0" y="612.0"/>
      <point x="687.0" y="722.0" type="curve"/>
      <point x="642.0" y="722.0"/>
      <point x="596.0" y="722.0"/>
      <point x="550.0" y="722.0" type="curve"/>
    </contour>
    <contour>
      <point x="550.0" y="722.0"/>
      <point x="550.0" y="612.0"/>
      <point x="550.0" y="722.0" type="curve"/>
      <point x="504.0" y="722.0"/>
      <point x="458.0" y="722.0"/>
      <point x="413.0" y="722.0" type="curve"/>
      <point x="413.0" y="612.0"/>
      <point x="413.0" y="722.0"/>
      <point x="413.0" y="612.0" type="curve"/>
      <point x="550.0" y="612.0"/>
      <point x="413.0" y="612.0"/>
      <point x="550.0" y="612.0" type="curve"/>
    </contour>
    <contour>
      <point x="175.0" y="722.0"/>
      <point x="175.0" y="612.0"/>
      <point x="175.0" y="722.0" type="curve"/>
      <point x="129.0" y="722.0"/>
      <point x="83.0" y="722.0"/>
      <point x="38.0" y="722.0" type="curve"/>
      <point x="38.0" y="612.0"/>
      <point x="38.0" y="722.0"/>
      <point x="38.0" y="612.0" type="curve"/>
      <point x="175.0" y="612.0"/>
      <point x="38.0" y="612.0"/>
      <point x="175.0" y="612.0" type="curve"/>
    </contour>
    <contour>
      <point x="175.0" y="612.0"/>
      <point x="175.0" y="722.0"/>
      <point x="175.0" y="612.0" type="curve"/>
      <point x="312.0" y="612.0"/>
      <point x="175.0" y="612.0"/>
      <point x="312.0" y="612.0" type="curve"/>
      <point x="312.0" y="722.0"/>
      <point x="312.0" y="612.0"/>
      <point x="312.0" y="722.0" type="curve"/>
      <point x="267.0" y="722.0"/>
      <point x="221.0" y="722.0"/>
      <point x="175.0" y="722.0" type="curve"/>
    </contour>
    <contour>
      <point x="109.0" y="675.0"/>
      <point x="239.0" y="675.0"/>
      <point x="109.0" y="675.0" type="curve"/>
      <point x="109.0" y="541.0"/>
      <point x="108.0" y="407.0"/>
      <point x="109.0" y="273.0" type="curve"/>
      <point x="109.0" y="94.0"/>
      <point x="185.0" y="-5.0"/>
      <point x="358.0" y="-5.0" type="curve"/>
      <point x="536.0" y="-5.0"/>
      <point x="615.0" y="99.0"/>
      <point x="615.0" y="285.0" type="curve"/>
      <point x="615.0" y="415.0"/>
      <point x="615.0" y="545.0"/>
      <point x="615.0" y="675.0" type="curve"/>
      <point x="485.0" y="675.0"/>
      <point x="615.0" y="675.0"/>
      <point x="485.0" y="675.0" type="curve"/>
      <point x="485.0" y="538.0"/>
      <point x="485.0" y="407.0"/>
      <point x="485.0" y="270.0" type="curve"/>
      <point x="485.0" y="179.0"/>
      <point x="451.0" y="117.0"/>
      <point x="368.0" y="117.0" type="curve"/>
      <point x="268.0" y="117.0"/>
      <point x="239.0" y="186.0"/>
      <point x="239.0" y="295.0" type="curve"/>
      <point x="239.0" y="422.0"/>
      <point x="239.0" y="549.0"/>
      <point x="239.0" y="675.0" type="curve"/>
    </contour>
    <contour>
      <point x="362" y="842" type="move" name="top"/>
    </contour>
    <contour>
      <point x="407" y="14" type="move" name="bottom"/>
    </contour>
  </outline>
</glyph>
<glyph name="V" format="1">
  <advance width="727"/>
  <unicode hex="0056"/>
  <outline>
    <contour>
      <point x="552.0" y="722.0"/>
      <point x="552.0" y="612.0"/>
      <point x="552.0" y="722.0" type="curve"/>
      <point x="495.0" y="722.0"/>
      <point x="439.0" y="722.0"/>
      <point x="382.0" y="722.0" type="curve"/>
      <point x="382.0" y="612.0"/>
      <point x="382.0" y="722.0"/>
      <point x="382.0" y="612.0" type="curve"/>
      <point x="552.0" y="612.0"/>
      <point x="382.0" y="612.0"/>
      <point x="552.0" y="612.0" type="curve"/>
    </contour>
    <contour>
      <point x="156.0" y="722.0"/>
      <point x="156.0" y="612.0"/>
      <point x="156.0" y="722.0" type="curve"/>
      <point x="110.0" y="722.0"/>
      <point x="64.0" y="722.0"/>
      <point x="18.0" y="722.0" type="curve"/>
      <point x="18.0" y="612.0"/>
      <point x="18.0" y="722.0"/>
      <point x="18.0" y="612.0" type="curve"/>
      <point x="156.0" y="612.0"/>
      <point x="18.0" y="612.0"/>
      <point x="156.0" y="612.0" type="curve"/>
    </contour>
    <contour>
      <point x="562.0" y="612.0"/>
      <point x="562.0" y="722.0"/>
      <point x="562.0" y="612.0" type="curve"/>
      <point x="699.0" y="612.0"/>
      <point x="562.0" y="612.0"/>
      <point x="699.0" y="612.0" type="curve"/>
      <point x="699.0" y="722.0"/>
      <point x="699.0" y="612.0"/>
      <point x="699.0" y="722.0" type="curve"/>
      <point x="654.0" y="722.0"/>
      <point x="608.0" y="722.0"/>
      <point x="562.0" y="722.0" type="curve"/>
    </contour>
    <contour>
      <point x="166.0" y="612.0"/>
      <point x="166.0" y="722.0"/>
      <point x="166.0" y="612.0" type="curve"/>
      <point x="335.0" y="612.0"/>
      <point x="166.0" y="612.0"/>
      <point x="335.0" y="612.0" type="curve"/>
      <point x="335.0" y="722.0"/>
      <point x="335.0" y="612.0"/>
      <point x="335.0" y="722.0" type="curve"/>
      <point x="279.0" y="722.0"/>
      <point x="222.0" y="722.0"/>
      <point x="166.0" y="722.0" type="curve"/>
    </contour>
    <contour>
      <point x="499.0" y="722.0"/>
      <point x="644.0" y="722.0"/>
      <point x="499.0" y="722.0" type="curve"/>
      <point x="433.0" y="480.0"/>
      <point x="369.0" y="242.0"/>
      <point x="306.0" y="0.0" type="curve"/>
      <point x="452.0" y="0.0"/>
      <point x="290.0" y="0.0"/>
      <point x="436.0" y="0.0" type="curve"/>
      <point x="505.0" y="241.0"/>
      <point x="574.0" y="481.0"/>
      <point x="644.0" y="722.0" type="curve"/>
    </contour>
    <contour>
      <point x="74.0" y="722.0"/>
      <point x="220.0" y="722.0"/>
      <point x="74.0" y="722.0" type="curve"/>
      <point x="144.0" y="481.0"/>
      <point x="215.0" y="241.0"/>
      <point x="285.0" y="0.0" type="curve"/>
      <point x="431.0" y="0.0"/>
      <point x="272.0" y="0.0"/>
      <point x="418.0" y="0.0" type="curve"/>
      <point x="353.0" y="242.0"/>
      <point x="288.0" y="482.0"/>
      <point x="220.0" y="722.0" type="curve"/>
    </contour>
  </outline>
</glyph>
<glyph name="W" format="1">
  <advance width="869"/>
  <unicode hex="0057"/>
  <outline>
    <contour>
      <point x="171.0" y="612.0"/>
      <point x="171.0" y="722.0"/>
      <point x="171.0" y="612.0" type="curve"/>
      <point x="308.0" y="612.0"/>
      <point x="171.0" y="612.0"/>
      <point x="308.0" y="612.0" type="curve"/>
      <point x="308.0" y="722.0"/>
      <point x="308.0" y="612.0"/>
      <point x="308.0" y="722.0" type="curve"/>
      <point x="263.0" y="722.0"/>
      <point x="217.0" y="722.0"/>
      <point x="171.0" y="722.0" type="curve"/>
    </contour>
    <contour>
      <point x="161.0" y="722.0"/>
      <point x="161.0" y="612.0"/>
      <point x="161.0" y="722.0" type="curve"/>
      <point x="115.0" y="722.0"/>
      <point x="69.0" y="722.0"/>
      <point x="24.0" y="722.0" type="curve"/>
      <point x="24.0" y="612.0"/>
      <point x="24.0" y="722.0"/>
      <point x="24.0" y="612.0" type="curve"/>
      <point x="161.0" y="612.0"/>
      <point x="24.0" y="612.0"/>
      <point x="161.0" y="612.0" type="curve"/>
    </contour>
    <contour>
      <point x="708.0" y="722.0"/>
      <point x="708.0" y="612.0"/>
      <point x="708.0" y="722.0" type="curve"/>
      <point x="662.0" y="722.0"/>
      <point x="616.0" y="722.0"/>
      <point x="571.0" y="722.0" type="curve"/>
      <point x="571.0" y="612.0"/>
      <point x="571.0" y="722.0"/>
      <point x="571.0" y="612.0" type="curve"/>
      <point x="708.0" y="612.0"/>
      <point x="571.0" y="612.0"/>
      <point x="708.0" y="612.0" type="curve"/>
    </contour>
    <contour>
      <point x="713.0" y="612.0"/>
      <point x="713.0" y="722.0"/>
      <point x="713.0" y="612.0" type="curve"/>
      <point x="850.0" y="612.0"/>
      <point x="713.0" y="612.0"/>
      <point x="850.0" y="612.0" type="curve"/>
      <point x="850.0" y="722.0"/>
      <point x="850.0" y="612.0"/>
      <point x="850.0" y="722.0" type="curve"/>
      <point x="805.0" y="722.0"/>
      <point x="759.0" y="722.0"/>
      <point x="713.0" y="722.0" type="curve"/>
    </contour>
    <contour>
      <point x="358.0" y="0.0"/>
      <point x="232.0" y="0.0"/>
      <point x="348.0" y="0.0" type="curve"/>
      <point x="399.0" y="241.0"/>
      <point x="449.0" y="481.0"/>
      <point x="499.0" y="722.0" type="curve"/>
      <point x="379.0" y="722.0"/>
      <point x="499.0" y="722.0"/>
      <point x="379.0" y="722.0" type="curve"/>
      <point x="333.0" y="482.0"/>
      <point x="289.0" y="243.0"/>
      <point x="242.0" y="0.0" type="curve"/>
    </contour>
    <contour>
      <point x="384.0" y="722.0"/>
      <point x="504.0" y="722.0"/>
      <point x="384.0" y="722.0" type="curve"/>
      <point x="429.0" y="481.0"/>
      <point x="474.0" y="241.0"/>
      <point x="520.0" y="0.0" type="curve"/>
      <point x="636.0" y="0.0"/>
      <point x="506.0" y="0.0"/>
      <point x="622.0" y="0.0" type="curve"/>
      <point x="581.0" y="245.0"/>
      <point x="544.0" y="481.0"/>
      <point x="504.0" y="722.0" type="curve"/>
    </contour>
    <contour>
      <point x="90.0" y="722.0"/>
      <point x="213.0" y="722.0"/>
      <point x="90.0" y="722.0" type="curve"/>
      <point x="136.0" y="481.0"/>
      <point x="182.0" y="241.0"/>
      <point x="227.0" y="0.0" type="curve"/>
      <point x="344.0" y="0.0"/>
      <point x="227.0" y="0.0"/>
      <point x="344.0" y="0.0" type="curve"/>
      <point x="300.0" y="241.0"/>
      <point x="256.0" y="481.0"/>
      <point x="213.0" y="722.0" type="curve"/>
    </contour>
    <contour>
      <point x="661.0" y="722.0"/>
      <point x="784.0" y="722.0"/>
      <point x="661.0" y="722.0" type="curve"/>
      <point x="616.0" y="481.0"/>
      <point x="570.0" y="241.0"/>
      <point x="524.0" y="0.0" type="curve"/>
      <point x="641.0" y="0.0"/>
      <point x="524.0" y="0.0"/>
      <point x="641.0" y="0.0" type="curve"/>
      <point x="688.0" y="241.0"/>
      <point x="736.0" y="481.0"/>
      <point x="784.0" y="722.0" type="curve"/>
    </contour>
  </outline>
</glyph>
<glyph name="Y" format="1">
  <advance width="680"/>
  <unicode hex="0059"/>
  <outline>
    <contour>
      <point x="332.0" y="110.0"/>
      <point x="332.0" y="0.0"/>
      <point x="332.0" y="110.0" type="curve"/>
      <point x="195.0" y="110.0"/>
      <point x="332.0" y="110.0"/>
      <point x="195.0" y="110.0" type="curve"/>
      <point x="195.0" y="0.0"/>
      <point x="195.0" y="110.0"/>
      <point x="195.0" y="0.0" type="curve"/>
      <point x="240.0" y="0.0"/>
      <point x="286.0" y="0.0"/>
      <point x="332.0" y="0.0" type="curve"/>
    </contour>
    <contour>
      <point x="332.0" y="0.0"/>
      <point x="332.0" y="110.0"/>
      <point x="332.0" y="0.0" type="curve"/>
      <point x="378.0" y="0.0"/>
      <point x="424.0" y="0.0"/>
      <point x="469.0" y="0.0" type="curve"/>
      <point x="469.0" y="110.0"/>
      <point x="469.0" y="0.0"/>
      <point x="469.0" y="110.0" type="curve"/>
      <point x="332.0" y="110.0"/>
      <point x="469.0" y="110.0"/>
      <point x="332.0" y="110.0" type="curve"/>
    </contour>
    <contour>
      <point x="489.0" y="722.0"/>
      <point x="489.0" y="612.0"/>
      <point x="489.0" y="722.0" type="curve"/>
      <point x="443.0" y="722.0"/>
      <point x="397.0" y="722.0"/>
      <point x="352.0" y="722.0" type="curve"/>
      <point x="352.0" y="612.0"/>
      <point x="352.0" y="722.0"/>
      <point x="352.0" y="612.0" type="curve"/>
      <point x="489.0" y="612.0"/>
      <point x="352.0" y="612.0"/>
      <point x="489.0" y="612.0" type="curve"/>
    </contour>
    <contour>
      <point x="165.0" y="722.0"/>
      <point x="165.0" y="612.0"/>
      <point x="165.0" y="722.0" type="curve"/>
      <point x="119.0" y="722.0"/>
      <point x="73.0" y="722.0"/>
      <point x="28.0" y="722.0" type="curve"/>
      <point x="27.0" y="612.0"/>
      <point x="28.0" y="722.0"/>
      <point x="27.0" y="612.0" type="curve"/>
      <point x="165.0" y="612.0"/>
      <point x="27.0" y="612.0"/>
      <point x="165.0" y="612.0" type="curve"/>
    </contour>
    <contour>
      <point x="185.0" y="612.0"/>
      <point x="185.0" y="722.0"/>
      <point x="185.0" y="612.0" type="curve"/>
      <point x="322.0" y="612.0"/>
      <point x="185.0" y="612.0"/>
      <point x="322.0" y="612.0" type="curve"/>
      <point x="322.0" y="722.0"/>
      <point x="322.0" y="612.0"/>
      <point x="322.0" y="722.0" type="curve"/>
      <point x="276.0" y="722.0"/>
      <point x="230.0" y="722.0"/>
      <point x="185.0" y="722.0" type="curve"/>
    </contour>
    <contour>
      <point x="509.0" y="612.0"/>
      <point x="509.0" y="722.0"/>
      <point x="509.0" y="612.0" type="curve"/>
      <point x="646.0" y="612.0"/>
      <point x="509.0" y="612.0"/>
      <point x="646.0" y="612.0" type="curve"/>
      <point x="646.0" y="722.0"/>
      <point x="646.0" y="612.0"/>
      <point x="646.0" y="722.0" type="curve"/>
      <point x="601.0" y="722.0"/>
      <point x="555.0" y="722.0"/>
      <point x="509.0" y="722.0" type="curve"/>
    </contour>
    <contour>
      <point x="83.0" y="722.0"/>
      <point x="228.0" y="722.0"/>
      <point x="83.0" y="722.0" type="curve"/>
      <point x="142.0" y="594.0"/>
      <point x="197.0" y="469.0"/>
      <point x="254.0" y="337.0" type="curve"/>
      <point x="399.0" y="337.0"/>
      <point x="232.0" y="337.0"/>
      <point x="377.0" y="337.0" type="curve"/>
      <point x="328.0" y="470.0"/>
      <point x="281.0" y="591.0"/>
      <point x="228.0" y="722.0" type="curve"/>
    </contour>
    <contour>
      <point x="446.0" y="722.0"/>
      <point x="591.0" y="722.0"/>
      <point x="446.0" y="722.0" type="curve"/>
      <point x="387.0" y="589.0"/>
      <point x="337.0" y="469.0"/>
      <point x="277.0" y="337.0" type="curve"/>
      <point x="422.0" y="337.0"/>
      <point x="265.0" y="337.0"/>
      <point x="410.0" y="337.0" type="curve"/>
      <point x="471.0" y="468.0"/>
      <point x="529.0" y="594.0"/>
      <point x="591.0" y="722.0" type="curve"/>
    </contour>
    <contour>
      <point x="410.0" y="0.0"/>
      <point x="254.0" y="0.0"/>
      <point x="410.0" y="0.0" type="curve"/>
      <point x="410.0" y="115.0"/>
      <point x="410.0" y="222.0"/>
      <point x="410.0" y="337.0" type="curve"/>
      <point x="254.0" y="337.0"/>
      <point x="410.0" y="337.0"/>
      <point x="254.0" y="337.0" type="curve"/>
      <point x="254.0" y="222.0"/>
      <point x="254.0" y="115.0"/>
      <point x="254.0" y="0.0" type="curve"/>
    </contour>
    <contour>
      <point x="336.0" y="842.0" type="move" name="top"/>
    </contour>
  </outline>
</glyph>
<glyph name="Z" format="1">
  <advance width="563"/>
  <unicode hex="005A"/>
  <outline>
    <contour>
      <point x="55.0" y="667.0"/>
      <point x="167.0" y="667.0"/>
      <point x="55.0" y="667.0" type="curve"/>
      <point x="55.0" y="547.0"/>
      <point x="55.0" y="667.0"/>
      <point x="55.0" y="547.0" type="curve"/>
      <point x="167.0" y="547.0"/>
      <point x="55.0" y="547.0"/>
      <point x="167.0" y="547.0" type="curve"/>
      <point x="167.0" y="667.0"/>
      <point x="167.0" y="547.0"/>
      <point x="167.0" y="667.0" type="curve"/>
    </contour>
    <contour>
      <point x="548.0" y="55.0"/>
      <point x="436.0" y="55.0"/>
      <point x="548.0" y="55.0" type="curve"/>
      <point x="548.0" y="175.0"/>
      <point x="548.0" y="55.0"/>
      <point x="548.0" y="175.0" type="curve"/>
      <point x="436.0" y="175.0"/>
      <point x="548.0" y="175.0"/>
      <point x="436.0" y="175.0" type="curve"/>
      <point x="436.0" y="55.0"/>
      <point x="436.0" y="175.0"/>
      <point x="436.0" y="55.0" type="curve"/>
    </contour>
    <contour>
      <point x="55.0" y="612.0"/>
      <point x="55.0" y="722.0"/>
      <point x="55.0" y="612.0" type="curve"/>
      <point x="176.0" y="612.0"/>
      <point x="351.0" y="612.0"/>
      <point x="473.0" y="612.0" type="curve"/>
      <point x="461.0" y="622.0"/>
      <point x="442.0" y="620.0"/>
      <point x="431.0" y="631.0" type="curve"/>
      <point x="420.0" y="640.0"/>
      <point x="423.0" y="658.0"/>
      <point x="413.0" y="668.0" type="curve"/>
      <point x="406.0" y="658.0"/>
      <point x="390.0" y="668.0"/>
      <point x="384.0" y="658.0" type="curve"/>
      <point x="267.0" y="475.0"/>
      <point x="384.0" y="658.0"/>
      <point x="30.0" y="110.0" type="curve"/>
      <point x="30.0" y="54.0"/>
      <point x="30.0" y="110.0"/>
      <point x="30.0" y="54.0" type="curve"/>
      <point x="30.0" y="0.0"/>
      <point x="30.0" y="54.0"/>
      <point x="30.0" y="0.0" type="curve"/>
      <point x="83.0" y="0.0"/>
      <point x="30.0" y="0.0"/>
      <point x="83.0" y="0.0" type="curve"/>
      <point x="517.0" y="0.0"/>
      <point x="403.0" y="0.0"/>
      <point x="548.0" y="0.0" type="curve"/>
      <point x="548.0" y="110.0"/>
      <point x="548.0" y="0.0"/>
      <point x="548.0" y="110.0" type="curve"/>
      <point x="403.0" y="110.0"/>
      <point x="227.0" y="110.0"/>
      <point x="83.0" y="110.0" type="curve"/>
      <point x="93.0" y="102.0"/>
      <point x="109.0" y="103.0"/>
      <point x="119.0" y="95.0" type="curve"/>
      <point x="130.0" y="84.0"/>
      <point x="129.0" y="65.0"/>
      <point x="140.0" y="54.0" type="curve"/>
      <point x="147.0" y="64.0"/>
      <point x="163.0" y="55.0"/>
      <point x="170.0" y="64.0" type="curve"/>
      <point x="288.0" y="248.0"/>
      <point x="170.0" y="64.0"/>
      <point x="530.0" y="612.0" type="curve"/>
      <point x="530.0" y="668.0"/>
      <point x="530.0" y="612.0"/>
      <point x="530.0" y="668.0" type="curve"/>
      <point x="530.0" y="722.0"/>
      <point x="530.0" y="668.0"/>
      <point x="530.0" y="722.0" type="curve"/>
      <point x="473.0" y="722.0"/>
      <point x="530.0" y="722.0"/>
      <point x="473.0" y="722.0" type="curve"/>
      <point x="351.0" y="722.0"/>
      <point x="176.0" y="722.0"/>
      <point x="55.0" y="722.0" type="curve"/>
    </contour>
    <contour>
      <point x="294.0" y="841.0" type="move" name="top"/>
    </contour>
  </outline>
</glyph>
<glyph name="bracketleft" format="1">
  <advance width="376"/>
  <unicode hex="005B"/>
  <outline>
    <contour>
      <point x="271.0" y="769.0"/>
      <point x="271.0" y="648.0"/>
      <point x="271.0" y="769.0" type="curve"/>
      <point x="233.0" y="769.0"/>
      <point x="195.0" y="769.0"/>
      <point x="157.0" y="769.0" type="curve"/>
      <point x="141.0" y="769.0"/>
      <point x="105.0" y="769.0"/>
      <point x="90.0" y="769.0" type="curve"/>
      <point x="90.0" y="752.0"/>
      <point x="90.0" y="731.0"/>
      <point x="90.0" y="714.0" type="curve"/>
      <point x="90.0" y="456.0"/>
      <point x="90.0" y="199.0"/>
      <point x="90.0" y="-59.0" type="curve"/>
      <point x="90.0" y="-77.0"/>
      <point x="90.0" y="-89.0"/>
      <point x="90.0" y="-113.0" type="curve"/>
      <point x="105.0" y="-113.0"/>
      <point x="139.0" y="-113.0"/>
      <point x="156.0" y="-113.0" type="curve"/>
      <point x="194.0" y="-113.0"/>
      <point x="233.0" y="-113.0"/>
      <point x="271.0" y="-113.0" type="curve"/>
      <point x="271.0" y="9.0"/>
      <point x="271.0" y="-113.0"/>
      <point x="271.0" y="9.0" type="curve"/>
      <point x="233.0" y="9.0"/>
      <point x="194.0" y="9.0"/>
      <point x="156.0" y="9.0" type="curve"/>
      <point x="233.0" y="9.0"/>
      <point x="156.0" y="9.0"/>
      <point x="233.0" y="9.0" type="curve"/>
      <point x="233.0" y="-59.0"/>
      <point x="233.0" y="9.0"/>
      <point x="233.0" y="-59.0" type="curve"/>
      <point x="233.0" y="199.0"/>
      <point x="233.0" y="456.0"/>
      <point x="233.0" y="714.0" type="curve"/>
      <point x="233.0" y="648.0"/>
      <point x="233.0" y="714.0"/>
      <point x="233.0" y="648.0" type="curve"/>
      <point x="157.0" y="648.0"/>
      <point x="233.0" y="648.0"/>
      <point x="157.0" y="648.0" type="curve"/>
      <point x="195.0" y="648.0"/>
      <point x="233.0" y="648.0"/>
      <point x="271.0" y="648.0" type="curve"/>
    </contour>
  </outline>
</glyph>
<glyph name="backslash" format="1">
  <advance width="516"/>
  <unicode hex="005C"/>
  <outline>
    <contour>
      <point x="477.0" y="-68.0"/>
      <point x="328.0" y="-68.0"/>
      <point x="477.0" y="-68.0" type="curve"/>
      <point x="379.0" y="236.0"/>
      <point x="281.0" y="540.0"/>
      <point x="183.0" y="844.0" type="curve"/>
      <point x="34.0" y="844.0"/>
      <point x="183.0" y="844.0"/>
      <point x="34.0" y="844.0" type="curve"/>
      <point x="132.0" y="540.0"/>
      <point x="230.0" y="236.0"/>
      <point x="328.0" y="-68.0" type="curve"/>
    </contour>
  </outline>
</glyph>
<glyph name="bracketright" format="1">
  <advance width="283"/>
  <unicode hex="005D"/>
  <outline>
    <contour>
      <point x="54.0" y="648.0"/>
      <point x="54.0" y="769.0"/>
      <point x="54.0" y="648.0" type="curve"/>
      <point x="92.0" y="648.0"/>
      <point x="130.0" y="648.0"/>
      <point x="168.0" y="648.0" type="curve"/>
      <point x="156.0" y="660.0"/>
      <point x="136.0" y="661.0"/>
      <point x="124.0" y="673.0" type="curve"/>
      <point x="113.0" y="686.0"/>
      <point x="103.0" y="701.0"/>
      <point x="92.0" y="714.0" type="curve"/>
      <point x="92.0" y="456.0"/>
      <point x="91.0" y="199.0"/>
      <point x="92.0" y="-59.0" type="curve"/>
      <point x="103.0" y="-45.0"/>
      <point x="116.0" y="-33.0"/>
      <point x="128.0" y="-20.0" type="curve"/>
      <point x="139.0" y="-7.0"/>
      <point x="158.0" y="-4.0"/>
      <point x="169.0" y="9.0" type="curve"/>
      <point x="131.0" y="9.0"/>
      <point x="92.0" y="9.0"/>
      <point x="54.0" y="9.0" type="curve"/>
      <point x="53.0" y="-113.0"/>
      <point x="54.0" y="9.0"/>
      <point x="53.0" y="-113.0" type="curve"/>
      <point x="92.0" y="-113.0"/>
      <point x="131.0" y="-113.0"/>
      <point x="169.0" y="-113.0" type="curve"/>
      <point x="235.0" y="-113.0"/>
      <point x="169.0" y="-113.0"/>
      <point x="235.0" y="-113.0" type="curve"/>
      <point x="235.0" y="-59.0"/>
      <point x="235.0" y="-113.0"/>
      <point x="235.0" y="-59.0" type="curve"/>
      <point x="234.0" y="199.0"/>
      <point x="235.0" y="456.0"/>
      <point x="235.0" y="714.0" type="curve"/>
      <point x="235.0" y="769.0"/>
      <point x="235.0" y="714.0"/>
      <point x="235.0" y="769.0" type="curve"/>
      <point x="168.0" y="769.0"/>
      <point x="235.0" y="769.0"/>
      <point x="168.0" y="769.0" type="curve"/>
      <point x="130.0" y="769.0"/>
      <point x="92.0" y="769.0"/>
      <point x="54.0" y="769.0" type="curve"/>
    </contour>
  </outline>
</glyph>
<glyph name="underscore" format="1">
  <advance width="857"/>
  <unicode hex="005F"/>
  <outline>
    <contour>
      <point x="63.75" y="-182.927350427"/>
      <point x="63.75" y="-72.4273504274"/>
      <point x="63.75" y="-182.927350427" type="curve"/>
      <point x="234.248295" y="-182.927350427"/>
      <point x="404.751705" y="-182.927350427"/>
      <point x="575.25" y="-182.927350427" type="curve"/>
      <point x="575.25" y="-72.4273504274"/>
      <point x="575.25" y="-182.927350427"/>
      <point x="575.25" y="-72.4273504274" type="curve"/>
      <point x="404.751705" y="-72.4273504274"/>
      <point x="234.248295" y="-72.4273504274"/>
      <point x="63.75" y="-72.4273504274" type="curve"/>
    </contour>
  </outline>
</glyph>
<glyph name="grave" format="1">
  <advance width="400"/>
  <unicode hex="0060"/>
  <outline>
    <contour>
      <point x="315.0" y="591.0"/>
      <point x="100.0" y="591.0"/>
      <point x="295.0" y="591.0" type="curve"/>
      <point x="253.0" y="646.0"/>
      <point x="212.0" y="702.0"/>
      <point x="171.0" y="757.0" type="curve"/>
      <point x="-24.0" y="757.0"/>
      <point x="191.0" y="757.0"/>
      <point x="-4.0" y="757.0" type="curve"/>
      <point x="37.0" y="702.0"/>
      <point x="78.0" y="646.0"/>
      <point x="120.0" y="591.0" type="curve"/>
    </contour>
    <contour>
      <point x="147.0" y="645.0" type="move" name="_top"/>
    </contour>
  </outline>
</glyph>
<glyph name="a" format="1">
  <advance width="504"/>
  <unicode hex="0061"/>
  <outline>
    <contour>
      <point x="48.0" y="461.0"/>
      <point x="160.0" y="461.0"/>
      <point x="48.0" y="461.0" type="curve"/>
      <point x="48.0" y="341.0"/>
      <point x="48.0" y="461.0"/>
      <point x="48.0" y="341.0" type="curve"/>
      <point x="160.0" y="341.0"/>
      <point x="48.0" y="341.0"/>
      <point x="160.0" y="341.0" type="curve"/>
      <point x="160.0" y="461.0"/>
      <point x="160.0" y="341.0"/>
      <point x="160.0" y="461.0" type="curve"/>
    </contour>
    <contour>
      <point x="426.0" y="0.0"/>
      <point x="283.0" y="0.0"/>
      <point x="426.0" y="0.0" type="curve"/>
      <point x="426.0" y="123.0"/>
      <point x="426.0" y="247.0"/>
      <point x="426.0" y="370.0" type="curve"/>
      <point x="426.0" y="488.0"/>
      <point x="347.0" y="533.0"/>
      <point x="232.0" y="533.0" type="curve"/>
      <point x="149.0" y="533.0"/>
      <point x="90.0" y="505.0"/>
      <point x="48.0" y="461.0" type="curve"/>
      <point x="101.0" y="368.0"/>
      <point x="48.0" y="461.0"/>
      <point x="101.0" y="368.0" type="curve"/>
      <point x="127.0" y="394.0"/>
      <point x="160.0" y="423.0"/>
      <point x="212.0" y="423.0" type="curve"/>
      <point x="258.0" y="423.0"/>
      <point x="283.0" y="392.0"/>
      <point x="283.0" y="337.0" type="curve"/>
      <point x="283.0" y="225.0"/>
      <point x="283.0" y="112.0"/>
      <point x="283.0" y="0.0" type="curve"/>
    </contour>
    <contour>
      <point x="356.0" y="0.0"/>
      <point x="356.0" y="110.0"/>
      <point x="356.0" y="0.0" type="curve"/>
      <point x="399.0" y="0.0"/>
      <point x="443.0" y="0.0"/>
      <point x="486.0" y="0.0" type="curve"/>
      <point x="486.0" y="110.0"/>
      <point x="486.0" y="0.0"/>
      <point x="486.0" y="110.0" type="curve"/>
      <point x="356.0" y="110.0"/>
      <point x="486.0" y="110.0"/>
      <point x="356.0" y="110.0" type="curve"/>
    </contour>
    <contour>
      <point x="351.0" y="350.0"/>
      <point x="357.0" y="256.0"/>
      <point x="351.0" y="350.0" type="curve"/>
      <point x="293.0" y="341.0"/>
      <point x="258.0" y="339.0"/>
      <point x="201.0" y="330.0" type="curve"/>
      <point x="92.0" y="313.0"/>
      <point x="20.0" y="269.0"/>
      <point x="20.0" y="165.0" type="curve"/>
      <point x="20.0" y="58.0"/>
      <point x="77.0" y="-5.0"/>
      <point x="183.0" y="-5.0" type="curve"/>
      <point x="288.0" y="-5.0"/>
      <point x="329.0" y="79.0"/>
      <point x="390.0" y="147.0" type="curve"/>
      <point x="318.0" y="208.0"/>
      <point x="390.0" y="147.0"/>
      <point x="318.0" y="208.0" type="curve"/>
      <point x="283.0" y="156.0"/>
      <point x="270.0" y="105.0"/>
      <point x="209.0" y="105.0" type="curve"/>
      <point x="172.0" y="105.0"/>
      <point x="158.0" y="129.0"/>
      <point x="158.0" y="171.0" type="curve"/>
      <point x="158.0" y="202.0"/>
      <point x="180.0" y="227.0"/>
      <point x="205.0" y="231.0" type="curve"/>
      <point x="268.0" y="241.0"/>
      <point x="294.0" y="246.0"/>
      <point x="357.0" y="256.0" type="curve"/>
    </contour>
    <contour>
      <point x="245.0" y="671.0" type="move" name="top"/>
    </contour>
    <contour>
      <point x="406.0" y="11.0" type="move" name="bottom"/>
    </contour>
  </outline>
</glyph>
<glyph name="b" format="1">
  <advance width="579"/>
  <unicode hex="0062"/>
  <outline>
    <contour>
      <point x="171.0" y="800.0"/>
      <point x="171.0" y="689.0"/>
      <point x="171.0" y="800.0" type="curve"/>
      <point x="124.0" y="800.0"/>
      <point x="79.0" y="800.0"/>
      <point x="34.0" y="800.0" type="curve"/>
      <point x="33.0000826378" y="690.009090158"/>
      <point x="33.9999586802" y="799.995454827"/>
      <point x="33.0" y="690.0" type="curve"/>
      <point x="170.999946917" y="688.992701117"/>
      <point x="32.9999992335" y="690.000000006"/>
      <point x="171.0" y="689.0" type="curve"/>
    </contour>
    <contour>
      <point x="208.0" y="349.0"/>
      <point x="148.0" y="396.0"/>
      <point x="208.0" y="349.0" type="curve"/>
      <point x="231.0" y="379.0"/>
      <point x="271.0" y="423.0"/>
      <point x="326.0" y="423.0" type="curve"/>
      <point x="399.0" y="423.0"/>
      <point x="413.0" y="346.0"/>
      <point x="413.0" y="261.0" type="curve"/>
      <point x="414.0" y="180.0"/>
      <point x="397.0" y="110.0"/>
      <point x="328.0" y="110.0" type="curve"/>
      <point x="282.0" y="110.0"/>
      <point x="249.0" y="130.0"/>
      <point x="218.0" y="165.0" type="curve"/>
      <point x="146.0" y="117.0"/>
      <point x="218.0" y="165.0"/>
      <point x="146.0" y="117.0" type="curve"/>
      <point x="193.0" y="47.0"/>
      <point x="248.0" y="-5.0"/>
      <point x="343.0" y="-5.0" type="curve"/>
      <point x="479.0" y="-5.0"/>
      <point x="556.0" y="112.0"/>
      <point x="556.0" y="267.0" type="curve"/>
      <point x="556.0" y="421.0"/>
      <point x="481.0" y="538.0"/>
      <point x="346.0" y="538.0" type="curve"/>
      <point x="249.0" y="538.0"/>
      <point x="188.0" y="464.0"/>
      <point x="148.0" y="396.0" type="curve"/>
    </contour>
    <contour>
      <point x="241.0" y="0.0"/>
      <point x="98.0" y="0.0"/>
      <point x="241.0" y="0.0" type="curve"/>
      <point x="241.0" y="267.0"/>
      <point x="241.0" y="533.0"/>
      <point x="241.0" y="800.0" type="curve"/>
      <point x="98.0" y="800.0"/>
      <point x="241.0" y="800.0"/>
      <point x="98.0" y="800.0" type="curve"/>
      <point x="98.0" y="533.0"/>
      <point x="98.0" y="267.0"/>
      <point x="98.0" y="0.0" type="curve"/>
    </contour>
    <contour>
      <point x="171.0" y="110.0"/>
      <point x="171.0" y="0.0"/>
      <point x="171.0" y="110.0" type="curve"/>
      <point x="34.0" y="110.0"/>
      <point x="171.0" y="110.0"/>
      <point x="34.0" y="110.0" type="curve"/>
      <point x="34.0" y="0.0"/>
      <point x="34.0" y="110.0"/>
      <point x="34.0" y="0.0" type="curve"/>
      <point x="79.0" y="0.0"/>
      <point x="125.333333333" y="0.0"/>
      <point x="171.0" y="0.0" type="curve"/>
    </contour>
  </outline>
</glyph>
<glyph name="c" format="1">
  <advance width="470"/>
  <unicode hex="0063"/>
  <outline>
    <contour>
      <point x="315.0" y="469.0"/>
      <point x="427.0" y="469.0"/>
      <point x="315.0" y="469.0" type="curve"/>
      <point x="315.0" y="349.0"/>
      <point x="315.0" y="469.0"/>
      <point x="315.0" y="349.0" type="curve"/>
      <point x="427.0" y="349.0"/>
      <point x="315.0" y="349.0"/>
      <point x="427.0" y="349.0" type="curve"/>
      <point x="427.0" y="469.0"/>
      <point x="427.0" y="349.0"/>
      <point x="427.0" y="469.0" type="curve"/>
    </contour>
    <contour>
      <point x="427.0" y="469.0"/>
      <point x="342.0" y="392.0"/>
      <point x="427.0" y="469.0" type="curve"/>
      <point x="385.0" y="507.0"/>
      <point x="330.0" y="538.0"/>
      <point x="271.0" y="538.0" type="curve"/>
      <point x="113.0" y="538.0"/>
      <point x="29.0" y="435.0"/>
      <point x="29.0" y="267.0" type="curve"/>
      <point x="29.0" y="100.0"/>
      <point x="108.0" y="-5.0"/>
      <point x="264.0" y="-5.0" type="curve"/>
      <point x="333.0" y="-5.0"/>
      <point x="400.0" y="24.0"/>
      <point x="438.0" y="95.0" type="curve"/>
      <point x="343.0" y="162.0"/>
      <point x="438.0" y="95.0"/>
      <point x="343.0" y="162.0" type="curve"/>
      <point x="324.0" y="137.0"/>
      <point x="302.0" y="110.0"/>
      <point x="271.0" y="110.0" type="curve"/>
      <point x="194.0" y="110.0"/>
      <point x="172.0" y="177.0"/>
      <point x="172.0" y="267.0" type="curve"/>
      <point x="172.0" y="356.0"/>
      <point x="190.0" y="423.0"/>
      <point x="265.0" y="423.0" type="curve"/>
      <point x="294.0" y="423.0"/>
      <point x="321.0" y="410.0"/>
      <point x="342.0" y="392.0" type="curve"/>
    </contour>
    <contour>
      <point x="263" y="670" type="move" name="top"/>
    </contour>
    <contour>
      <point x="219" y="98" type="move" name="bottom"/>
    </contour>
  </outline>
</glyph>
<glyph name="d" format="1">
  <advance width="588"/>
  <unicode hex="0064"/>
  <outline>
    <contour>
      <point x="418" y="800"/>
      <point x="417" y="690"/>
      <point x="417" y="800" type="curve"/>
      <point x="371" y="800"/>
      <point x="327.0" y="800.0"/>
      <point x="281.0" y="800.0" type="curve"/>
      <point x="281.0" y="690.0"/>
      <point x="281" y="800"/>
      <point x="281" y="690" type="curve"/>
      <point x="418" y="690"/>
      <point x="281" y="690"/>
      <point x="418" y="690" type="curve"/>
    </contour>
    <contour>
      <point x="419.0" y="-1.0"/>
      <point x="419" y="111"/>
      <point x="419" y="0" type="curve"/>
      <point x="465" y="0"/>
      <point x="510.0" y="0.0"/>
      <point x="556.0" y="0.0" type="curve"/>
      <point x="556.0" y="110.0"/>
      <point x="556.0" y="0.0"/>
      <point x="556.0" y="110.0" type="curve"/>
      <point x="419.0" y="110.0"/>
      <point x="556.0" y="110.0"/>
      <point x="419.0" y="110.0" type="curve"/>
    </contour>
    <contour>
      <point x="422.0" y="451.0"/>
      <point x="373.0" y="368.0"/>
      <point x="422.0" y="451.0" type="curve"/>
      <point x="376.0" y="507.0"/>
      <point x="318.0" y="533.0"/>
      <point x="244.0" y="533.0" type="curve"/>
      <point x="97.0" y="533.0"/>
      <point x="28.0" y="413.0"/>
      <point x="28.0" y="262.0" type="curve"/>
      <point x="28.0" y="114.0"/>
      <point x="101.0" y="0.0"/>
      <point x="240.0" y="0.0" type="curve"/>
      <point x="324.0" y="0.0"/>
      <point x="384.0" y="38.0"/>
      <point x="422.0" y="112.0" type="curve"/>
      <point x="373.0" y="189.0"/>
      <point x="422.0" y="112.0"/>
      <point x="373.0" y="189.0" type="curve"/>
      <point x="349.0" y="144.0"/>
      <point x="320.0" y="110.0"/>
      <point x="269.0" y="110.0" type="curve"/>
      <point x="194.0" y="110.0"/>
      <point x="171.0" y="183.0"/>
      <point x="171.0" y="268.0" type="curve"/>
      <point x="171.0" y="352.0"/>
      <point x="199.0" y="423.0"/>
      <point x="274.0" y="423.0" type="curve"/>
      <point x="317.0" y="423.0"/>
      <point x="348.0" y="401.0"/>
      <point x="373.0" y="368.0" type="curve"/>
    </contour>
    <contour>
      <point x="493.0" y="0.0"/>
      <point x="344.0" y="0.0"/>
      <point x="493.0" y="0.0" type="curve"/>
      <point x="493.0" y="267.0"/>
      <point x="493.0" y="533.0"/>
      <point x="493.0" y="800.0" type="curve"/>
      <point x="344.0" y="800.0"/>
      <point x="493.0" y="800.0"/>
      <point x="344.0" y="800.0" type="curve"/>
      <point x="344.0" y="533.0"/>
      <point x="344.0" y="267.0"/>
      <point x="344.0" y="0.0" type="curve"/>
    </contour>
  </outline>
</glyph>
<glyph name="e" format="1">
  <advance width="490"/>
  <unicode hex="0065"/>
  <outline>
    <contour>
      <point x="103.0" y="220.0"/>
      <point x="103.0" y="336.0"/>
      <point x="103.0" y="226.0" type="curve"/>
      <point x="201.0" y="226.0"/>
      <point x="299.0" y="226.0"/>
      <point x="397.0" y="226.0" type="curve"/>
      <point x="458.0" y="226.0"/>
      <point x="397.0" y="226.0"/>
      <point x="458.0" y="226.0" type="curve"/>
      <point x="458.0" y="274.0"/>
      <point x="458.0" y="226.0"/>
      <point x="458.0" y="274.0" type="curve"/>
      <point x="458.0" y="280.0"/>
      <point x="458.0" y="286.0"/>
      <point x="458.0" y="292.0" type="curve"/>
      <point x="458.0" y="442.049792531"/>
      <point x="391.0" y="538.0"/>
      <point x="253.0" y="538.0" type="curve"/>
      <point x="105.0" y="538.0"/>
      <point x="31.0" y="438.078431373"/>
      <point x="31.0" y="278.0" type="curve"/>
      <point x="31.0" y="105.960431655"/>
      <point x="110.0" y="-5.0"/>
      <point x="269.0" y="-5.0" type="curve"/>
      <point x="339.0" y="-5.0"/>
      <point x="383.0" y="22.0"/>
      <point x="436.0" y="73.0" type="curve"/>
      <point x="350.0" y="151.0"/>
      <point x="436.0" y="73.0"/>
      <point x="350.0" y="151.0" type="curve"/>
      <point x="326.0" y="125.0"/>
      <point x="304.0" y="111.0"/>
      <point x="269.0" y="111.0" type="curve"/>
      <point x="188.0" y="111.0"/>
      <point x="174.0" y="184.0"/>
      <point x="174.0" y="278.0" type="curve"/>
      <point x="174.0" y="358.0"/>
      <point x="179.0" y="423.0"/>
      <point x="247.0" y="423.0" type="curve"/>
      <point x="306.0" y="423.0"/>
      <point x="322.0" y="372.0"/>
      <point x="322.0" y="303.0" type="curve"/>
      <point x="322.0" y="293.0"/>
      <point x="322.0" y="284.0"/>
      <point x="322.0" y="274.0" type="curve"/>
      <point x="334.0" y="286.0"/>
      <point x="346.0" y="296.0"/>
      <point x="358.0" y="308.0" type="curve"/>
      <point x="369.0" y="319.0"/>
      <point x="386.0" y="318.0"/>
      <point x="397.0" y="330.0" type="curve"/>
      <point x="299.0" y="330.0"/>
      <point x="201.0" y="330.0"/>
      <point x="103.0" y="330.0" type="curve"/>
    </contour>
    <contour>
      <point x="245.0" y="671.0" type="move" name="top"/>
    </contour>
    <contour>
      <point x="332.0" y="14.0" type="move" name="bottom"/>
    </contour>
  </outline>
</glyph>
<glyph name="f" format="1">
  <advance width="455"/>
  <unicode hex="0066"/>
  <outline>
    <contour>
      <point x="287.0" y="769.0"/>
      <point x="399.0" y="769.0"/>
      <point x="287.0" y="769.0" type="curve"/>
      <point x="287.0" y="649.0"/>
      <point x="287.0" y="769.0"/>
      <point x="287.0" y="649.0" type="curve"/>
      <point x="399.0" y="649.0"/>
      <point x="287.0" y="649.0"/>
      <point x="399.0" y="649.0" type="curve"/>
      <point x="399.0" y="769.0"/>
      <point x="399.0" y="649.0"/>
      <point x="399.0" y="769.0" type="curve"/>
    </contour>
    <contour>
      <point x="190.5" y="-0.58747160013"/>
      <point x="190.5" y="109.9125284"/>
      <point x="190.5" y="-0.58747160013" type="curve"/>
      <point x="236.250171131" y="-0.58747160013"/>
      <point x="281.999828869" y="0.0"/>
      <point x="327.75" y="0.0" type="curve"/>
      <point x="327.75" y="110.5"/>
      <point x="327.75" y="0.0"/>
      <point x="327.75" y="110.5" type="curve"/>
      <point x="190.5" y="109.9125284"/>
      <point x="327.75" y="110.5"/>
      <point x="190.5" y="109.9125284" type="curve"/>
    </contour>
    <contour>
      <point x="190.5" y="109.9125284"/>
      <point x="190.5" y="-0.58747160013"/>
      <point x="190.5" y="109.9125284" type="curve"/>
      <point x="53.25" y="110.5"/>
      <point x="190.5" y="109.9125284"/>
      <point x="53.25" y="110.5" type="curve"/>
      <point x="53.25" y="0.0"/>
      <point x="53.25" y="110.5"/>
      <point x="53.25" y="0.0" type="curve"/>
      <point x="99.0001711309" y="-5.60259502554e-15"/>
      <point x="144.749828869" y="-0.58747160013"/>
      <point x="190.5" y="-0.58747160013" type="curve"/>
    </contour>
    <contour>
      <point x="51.75" y="430.792015579"/>
      <point x="51.75" y="541.292015579"/>
      <point x="51.75" y="430.792015579" type="curve"/>
      <point x="51.75" y="430.792015579"/>
      <point x="367.5" y="430.792015579"/>
      <point x="367.5" y="430.792015579" type="curve"/>
      <point x="367.5" y="541.292015579"/>
      <point x="367.5" y="430.792015579"/>
      <point x="367.5" y="541.292015579" type="curve"/>
      <point x="367.5" y="541.292015579"/>
      <point x="51.75" y="541.292015579"/>
      <point x="51.75" y="541.292015579" type="curve"/>
    </contour>
    <contour>
      <point x="262.0" y="0.0"/>
      <point x="119.0" y="7.44254511536e-15"/>
      <point x="262.0" y="0.0" type="curve"/>
      <point x="262.0" y="0.0"/>
      <point x="262.0" y="604.284493671"/>
      <point x="262.0" y="604.284493671" type="curve"/>
      <point x="262.055720144" y="652.801763179"/>
      <point x="260.0" y="699.0"/>
      <point x="293.0" y="699.0" type="curve"/>
      <point x="311.0" y="699.0"/>
      <point x="326.0" y="690.0"/>
      <point x="341.0" y="681.0" type="curve"/>
      <point x="399.0" y="769.0"/>
      <point x="341.0" y="681.0"/>
      <point x="399.0" y="769.0" type="curve"/>
      <point x="368.0" y="790.0"/>
      <point x="331.0" y="805.0"/>
      <point x="293.0" y="805.0" type="curve"/>
      <point x="182.0" y="805.0"/>
      <point x="117.889276715" y="722.72699702"/>
      <point x="119.0" y="604.284493671" type="curve"/>
      <point x="119.0" y="604.284493671"/>
      <point x="119.0" y="7.44254511536e-15"/>
      <point x="119.0" y="7.44254511536e-15" type="curve"/>
    </contour>
  </outline>
</glyph>
<glyph name="g" format="1">
  <advance width="522"/>
  <unicode hex="0067"/>
  <outline>
    <contour>
      <point x="401.0" y="386.0"/>
      <point x="323.0" y="474.0"/>
      <point x="401.0" y="386.0" type="curve"/>
      <point x="433.0" y="405.0"/>
      <point x="467.0" y="421.0"/>
      <point x="499.0" y="440.0" type="curve"/>
      <point x="427.0" y="545.0"/>
      <point x="499.0" y="440.0"/>
      <point x="427.0" y="545.0" type="curve"/>
      <point x="392.0" y="523.0"/>
      <point x="359.0" y="497.0"/>
      <point x="323.0" y="474.0" type="curve"/>
    </contour>
    <contour>
      <point x="200.0" y="336.0"/>
      <point x="57.0" y="330.0"/>
      <point x="200.0" y="336.0" type="curve"/>
      <point x="200.0" y="384.0"/>
      <point x="217.0" y="427.0"/>
      <point x="260.0" y="427.0" type="curve"/>
      <point x="304.0" y="427.0"/>
      <point x="317.0" y="383.0"/>
      <point x="317.0" y="334.0" type="curve"/>
      <point x="317.0" y="290.0"/>
      <point x="304.0" y="250.0"/>
      <point x="264.0" y="250.0" type="curve"/>
      <point x="221.0" y="250.0"/>
      <point x="200.0" y="289.0"/>
      <point x="200.0" y="336.0" type="curve"/>
      <point x="57.0" y="330.0"/>
      <point x="200.0" y="336.0"/>
      <point x="57.0" y="330.0" type="curve"/>
      <point x="57.0" y="216.0"/>
      <point x="136.0" y="140.0"/>
      <point x="251.0" y="140.0" type="curve"/>
      <point x="374.0" y="140.0"/>
      <point x="460.0" y="218.0"/>
      <point x="460.0" y="339.0" type="curve"/>
      <point x="460.0" y="457.0"/>
      <point x="379.0" y="537.0"/>
      <point x="260.0" y="537.0" type="curve"/>
      <point x="137.0" y="537.0"/>
      <point x="57.0" y="453.0"/>
      <point x="57.0" y="330.0" type="curve"/>
    </contour>
    <contour>
      <point x="152.0" y="246.0"/>
      <point x="226.0" y="174.0"/>
      <point x="152.0" y="246.0" type="curve"/>
      <point x="98.0" y="213.0"/>
      <point x="60.0" y="174.0"/>
      <point x="60.0" y="112.0" type="curve"/>
      <point x="60.0" y="18.0"/>
      <point x="142.0" y="-24.0"/>
      <point x="243.0" y="-34.0" type="curve"/>
      <point x="307.079253929" y="-40.0074300559"/>
      <point x="365.0" y="-55.5333333333"/>
      <point x="365.0" y="-119.0" type="curve"/>
      <point x="365.0" y="-172.906976744"/>
      <point x="317.0" y="-195.0"/>
      <point x="259.0" y="-195.0" type="curve"/>
      <point x="205.0" y="-195.0"/>
      <point x="167.0" y="-159.861386139"/>
      <point x="167.0" y="-104.0" type="curve"/>
      <point x="167.0" y="-56.5670103093"/>
      <point x="180.252429756" y="-15.3541122209"/>
      <point x="219.0" y="3.0" type="curve"/>
      <point x="147.0" y="69.0"/>
      <point x="219.0" y="3.0"/>
      <point x="147.0" y="69.0" type="curve"/>
      <point x="72.1754011497" y="33.6099870303"/>
      <point x="24.0" y="-23.1785714286"/>
      <point x="24.0" y="-109.0" type="curve"/>
      <point x="24.0" y="-234.59223301"/>
      <point x="122.0" y="-305.0"/>
      <point x="253.0" y="-305.0" type="curve"/>
      <point x="389.0" y="-305.0"/>
      <point x="496.903403063" y="-237.431408288"/>
      <point x="495.0" y="-108.0" type="curve"/>
      <point x="495.0" y="10.6272189349"/>
      <point x="392.059441745" y="59.9946840716"/>
      <point x="269.0" y="71.0" type="curve"/>
      <point x="233.0" y="74.0"/>
      <point x="203.0" y="89.0"/>
      <point x="203.0" y="123.0" type="curve"/>
      <point x="203.0" y="146.0"/>
      <point x="209.0" y="159.0"/>
      <point x="226.0" y="174.0" type="curve"/>
    </contour>
    <contour>
      <point x="256.0" y="669.0" type="move" name="top"/>
    </contour>
  </outline>
</glyph>
<glyph name="i" format="1">
  <advance width="307"/>
  <unicode hex="0069"/>
  <outline>
    <contour>
      <point x="157.0" y="110.0"/>
      <point x="157.0" y="0.0"/>
      <point x="157.0" y="110.0" type="curve"/>
      <point x="20.0" y="110.0"/>
      <point x="157.0" y="110.0"/>
      <point x="20.0" y="110.0" type="curve"/>
      <point x="19.0" y="0.0"/>
      <point x="20.0" y="110.0"/>
      <point x="19.0" y="0.0" type="curve"/>
      <point x="65.0" y="0.0"/>
      <point x="111.0" y="0.0"/>
      <point x="157.0" y="0.0" type="curve"/>
    </contour>
    <contour>
      <point x="157.0" y="0.0"/>
      <point x="157.0" y="110.0"/>
      <point x="157.0" y="0.0" type="curve"/>
      <point x="200.0" y="0.0"/>
      <point x="243.0" y="0.0"/>
      <point x="287.0" y="0.0" type="curve"/>
      <point x="287.0" y="110.0"/>
      <point x="287.0" y="0.0"/>
      <point x="287.0" y="110.0" type="curve"/>
      <point x="157.0" y="110.0"/>
      <point x="287.0" y="110.0"/>
      <point x="157.0" y="110.0" type="curve"/>
    </contour>
    <contour>
      <point x="157.0" y="533.0"/>
      <point x="157.0" y="423.0"/>
      <point x="157.0" y="533.0" type="curve"/>
      <point x="111.0" y="533.0"/>
      <point x="65.0" y="533.0"/>
      <point x="20.0" y="533.0" type="curve"/>
      <point x="19.0" y="423.0"/>
      <point x="20.0" y="533.0"/>
      <point x="19.0" y="423.0" type="curve"/>
      <point x="157.0" y="423.0"/>
      <point x="19.0" y="423.0"/>
      <point x="157.0" y="423.0" type="curve"/>
    </contour>
    <contour>
      <point x="241.0" y="670.0"/>
      <point x="72.0" y="670.0"/>
      <point x="241.0" y="670.0" type="curve"/>
      <point x="241.0" y="718.0"/>
      <point x="205.0" y="742.0"/>
      <point x="155.0" y="742.0" type="curve"/>
      <point x="106.0" y="742.0"/>
      <point x="72.0" y="715.0"/>
      <point x="72.0" y="670.0" type="curve"/>
      <point x="241.0" y="670.0"/>
      <point x="72.0" y="670.0"/>
      <point x="241.0" y="670.0" type="curve"/>
      <point x="241.0" y="621.0"/>
      <point x="205.0" y="599.0"/>
      <point x="155.0" y="599.0" type="curve"/>
      <point x="105.0" y="599.0"/>
      <point x="72.0" y="623.0"/>
      <point x="72.0" y="670.0" type="curve"/>
    </contour>
    <contour>
      <point x="232.0" y="0.0"/>
      <point x="82.0" y="0.0"/>
      <point x="232.0" y="0.0" type="curve"/>
      <point x="232.0" y="178.0"/>
      <point x="232.0" y="355.0"/>
      <point x="232.0" y="533.0" type="curve"/>
      <point x="82.0" y="533.0"/>
      <point x="232.0" y="533.0"/>
      <point x="82.0" y="533.0" type="curve"/>
      <point x="82.0" y="355.0"/>
      <point x="82.0" y="178.0"/>
      <point x="82.0" y="0.0" type="curve"/>
    </contour>
    <contour>
      <point x="153.0" y="668.0" type="move" name="top"/>
    </contour>
    <contour>
      <point x="201.0" y="14.0" type="move" name="bottom"/>
    </contour>
  </outline>
</glyph>
<glyph name="k" format="1">
  <advance width="615"/>
  <unicode hex="006B"/>
  <outline>
    <contour>
      <point x="174.0" y="110.0"/>
      <point x="174.0" y="-1.0"/>
      <point x="174.0" y="110.0" type="curve"/>
      <point x="37.0" y="110.0"/>
      <point x="174.0" y="110.0"/>
      <point x="37.0" y="110.0" type="curve"/>
      <point x="37.0" y="0.0"/>
      <point x="37.0" y="110.0"/>
      <point x="37.0" y="0.0" type="curve"/>
      <point x="83.0" y="0.0"/>
      <point x="128.0" y="-1.0"/>
      <point x="174.0" y="-1.0" type="curve"/>
    </contour>
    <contour>
      <point x="431.0" y="-1.0"/>
      <point x="431.0" y="110.0"/>
      <point x="431.0" y="-1.0" type="curve"/>
      <point x="477.0" y="-1.0"/>
      <point x="523.0" y="0.0"/>
      <point x="569.0" y="0.0" type="curve"/>
      <point x="569.0" y="110.0"/>
      <point x="569.0" y="0.0"/>
      <point x="569.0" y="110.0" type="curve"/>
      <point x="431.0" y="110.0"/>
      <point x="569.0" y="110.0"/>
      <point x="431.0" y="110.0" type="curve"/>
    </contour>
    <contour>
      <point x="412.0" y="423.0"/>
      <point x="412.0" y="533.0"/>
      <point x="412.0" y="423.0" type="curve"/>
      <point x="539.0" y="423.0"/>
      <point x="412.0" y="423.0"/>
      <point x="539.0" y="423.0" type="curve"/>
      <point x="539.0" y="533.0"/>
      <point x="539.0" y="423.0"/>
      <point x="539.0" y="533.0" type="curve"/>
      <point x="497.0" y="533.0"/>
      <point x="454.0" y="533.0"/>
      <point x="412.0" y="533.0" type="curve"/>
    </contour>
    <contour>
      <point x="174.0" y="-1.0"/>
      <point x="174.0" y="110.0"/>
      <point x="174.0" y="-1.0" type="curve"/>
      <point x="206.921875" y="-1.0"/>
      <point x="174.0" y="-1.0"/>
      <point x="272.0" y="0.0" type="curve"/>
      <point x="272.0" y="110.0"/>
      <point x="272.0" y="0.0"/>
      <point x="272.0" y="110.0" type="curve"/>
      <point x="174.0" y="110.0"/>
      <point x="272.0" y="110.0"/>
      <point x="174.0" y="110.0" type="curve"/>
    </contour>
    <contour>
      <point x="442.0" y="533.0"/>
      <point x="442.0" y="423.0"/>
      <point x="442.0" y="533.0" type="curve"/>
      <point x="387.423076923" y="533.0"/>
      <point x="332.0" y="533.0"/>
      <point x="277.0" y="533.0" type="curve"/>
      <point x="277.0" y="423.0"/>
      <point x="277.0" y="533.0"/>
      <point x="277.0" y="423.0" type="curve"/>
      <point x="442.0" y="423.0"/>
      <point x="277.0" y="423.0"/>
      <point x="442.0" y="423.0" type="curve"/>
    </contour>
    <contour>
      <point x="176.0" y="799.0"/>
      <point x="176.0" y="689.0"/>
      <point x="176.0" y="799.0" type="curve"/>
      <point x="130.0" y="799.0"/>
      <point x="84.0" y="800.0"/>
      <point x="38.0" y="800.0" type="curve"/>
      <point x="38.0" y="690.0"/>
      <point x="38.0" y="800.0"/>
      <point x="38.0" y="690.0" type="curve"/>
      <point x="176.0" y="689.0"/>
      <point x="38.0" y="690.0"/>
      <point x="176.0" y="689.0" type="curve"/>
    </contour>
    <contour>
      <point x="246.0" y="0.0"/>
      <point x="103.0" y="0.0"/>
      <point x="246.0" y="0.0" type="curve"/>
      <point x="246.0" y="0.0"/>
      <point x="246.0" y="800.0"/>
      <point x="246.0" y="800.0" type="curve"/>
      <point x="103.0" y="800.0"/>
      <point x="246.0" y="800.0"/>
      <point x="103.0" y="800.0" type="curve"/>
      <point x="103.0" y="533.0"/>
      <point x="103.0" y="267.0"/>
      <point x="103.0" y="0.0" type="curve"/>
    </contour>
    <contour>
      <point x="377.0" y="533.0"/>
      <point x="532.0" y="533.0"/>
      <point x="377.0" y="533.0" type="curve"/>
      <point x="289.0" y="447.0"/>
      <point x="201.0" y="361.0"/>
      <point x="114.0" y="275.0" type="curve"/>
      <point x="269.0" y="275.0"/>
      <point x="114.0" y="275.0"/>
      <point x="269.0" y="275.0" type="curve"/>
      <point x="356.0" y="361.0"/>
      <point x="444.0" y="447.0"/>
      <point x="532.0" y="533.0" type="curve"/>
    </contour>
    <contour>
      <point x="552.0" y="0.0"/>
      <point x="397.0" y="0.0"/>
      <point x="552.0" y="0.0" type="curve"/>
      <point x="457.0" y="92.0"/>
      <point x="363.0" y="183.0"/>
      <point x="269.0" y="275.0" type="curve"/>
      <point x="114.0" y="275.0"/>
      <point x="269.0" y="275.0"/>
      <point x="114.0" y="275.0" type="curve"/>
      <point x="208.0" y="183.0"/>
      <point x="302.0" y="92.0"/>
      <point x="397.0" y="0.0" type="curve"/>
    </contour>
    <contour>
      <point x="318" y="23" type="move" name="bottom"/>
    </contour>
  </outline>
</glyph>
<glyph name="l" format="1">
  <advance width="337"/>
  <unicode hex="006C"/>
  <outline>
    <contour>
      <point x="169.0" y="111.0"/>
      <point x="169.0" y="-1.0"/>
      <point x="169.0" y="110.0" type="curve"/>
      <point x="32.0" y="110.0"/>
      <point x="169.0" y="110.0"/>
      <point x="32.0" y="110.0" type="curve"/>
      <point x="32.0" y="0.0"/>
      <point x="32.0" y="110.0"/>
      <point x="32.0" y="0.0" type="curve"/>
      <point x="78.0" y="0.0"/>
      <point x="123.0" y="0.0"/>
      <point x="169.0" y="0.0" type="curve"/>
    </contour>
    <contour>
      <point x="171.0" y="799.0"/>
      <point x="171.0" y="690.0"/>
      <point x="171.0" y="800.0" type="curve"/>
      <point x="125.0" y="800.0"/>
      <point x="79.0" y="800.0"/>
      <point x="34.0" y="800.0" type="curve"/>
      <point x="33.0" y="690.0"/>
      <point x="34.0" y="800.0"/>
      <point x="33.0" y="690.0" type="curve"/>
      <point x="171.0" y="689.0"/>
      <point x="33.0" y="690.0"/>
      <point x="171.0" y="689.0" type="curve"/>
    </contour>
    <contour>
      <point x="169.0" y="-1.0"/>
      <point x="169.0" y="111.0"/>
      <point x="169.0" y="0.0" type="curve"/>
      <point x="215.0" y="0.0"/>
      <point x="261.0" y="0.0"/>
      <point x="307.0" y="0.0" type="curve"/>
      <point x="307.0" y="110.0"/>
      <point x="307.0" y="0.0"/>
      <point x="307.0" y="110.0" type="curve"/>
      <point x="169.0" y="110.0"/>
      <point x="307.0" y="110.0"/>
      <point x="169.0" y="110.0" type="curve"/>
    </contour>
    <contour>
      <point x="240.0" y="0.0"/>
      <point x="97.0" y="0.0"/>
      <point x="240.0" y="0.0" type="curve"/>
      <point x="240.0" y="267.0"/>
      <point x="240.0" y="533.0"/>
      <point x="240.0" y="800.0" type="curve"/>
      <point x="97.0" y="800.0"/>
      <point x="240.0" y="800.0"/>
      <point x="97.0" y="800.0" type="curve"/>
      <point x="97.0" y="533.0"/>
      <point x="97.0" y="267.0"/>
      <point x="97.0" y="0.0" type="curve"/>
    </contour>
    <contour>
      <point x="160.0" y="886.0" type="move" name="top"/>
    </contour>
    <contour>
      <point x="172.0" y="39.0" type="move" name="bottom"/>
    </contour>
  </outline>
</glyph>
<glyph name="m" format="1">
  <advance width="826"/>
  <unicode hex="006D"/>
  <outline>
    <contour>
      <point x="418.0" y="0.0"/>
      <point x="418.0" y="110.0"/>
      <point x="418.0" y="0.0" type="curve"/>
      <point x="530.0" y="0.0"/>
      <point x="418.0" y="0.0"/>
      <point x="530.0" y="0.0" type="curve"/>
      <point x="530.0" y="110.0"/>
      <point x="530.0" y="0.0"/>
      <point x="530.0" y="110.0" type="curve"/>
      <point x="418.0" y="110.0"/>
      <point x="530.0" y="110.0"/>
      <point x="418.0" y="110.0" type="curve"/>
    </contour>
    <contour>
      <point x="418.0" y="110.0"/>
      <point x="418.0" y="0.0"/>
      <point x="418.0" y="110.0" type="curve"/>
      <point x="306.0" y="110.0"/>
      <point x="418.0" y="110.0"/>
      <point x="306.0" y="110.0" type="curve"/>
      <point x="306.0" y="0.0"/>
      <point x="306.0" y="110.0"/>
      <point x="306.0" y="0.0" type="curve"/>
      <point x="418.0" y="0.0"/>
      <point x="306.0" y="0.0"/>
      <point x="418.0" y="0.0" type="curve"/>
    </contour>
    <contour>
      <point x="668.0" y="0.0"/>
      <point x="668.0" y="110.0"/>
      <point x="668.0" y="0.0" type="curve"/>
      <point x="713.0" y="0.0"/>
      <point x="759.0" y="0.0"/>
      <point x="805.0" y="0.0" type="curve"/>
      <point x="805.0" y="110.0"/>
      <point x="805.0" y="0.0"/>
      <point x="805.0" y="110.0" type="curve"/>
      <point x="668.0" y="110.0"/>
      <point x="805.0" y="110.0"/>
      <point x="668.0" y="110.0" type="curve"/>
    </contour>
    <contour>
      <point x="169.0" y="110.0"/>
      <point x="169.0" y="0.0"/>
      <point x="169.0" y="110.0" type="curve"/>
      <point x="32.0" y="110.0"/>
      <point x="169.0" y="110.0"/>
      <point x="32.0" y="110.0" type="curve"/>
      <point x="31.0" y="0.0"/>
      <point x="32.0" y="110.0"/>
      <point x="31.0" y="0.0" type="curve"/>
      <point x="77.0" y="0.0"/>
      <point x="123.0" y="0.0"/>
      <point x="169.0" y="0.0" type="curve"/>
    </contour>
    <contour>
      <point x="169.0" y="0.0"/>
      <point x="169.0" y="110.0"/>
      <point x="169.0" y="0.0" type="curve"/>
      <point x="206.0" y="0.0"/>
      <point x="169.0" y="0.0"/>
      <point x="281.0" y="0.0" type="curve"/>
      <point x="281.0" y="110.0"/>
      <point x="281.0" y="0.0"/>
      <point x="281.0" y="110.0" type="curve"/>
      <point x="169.0" y="110.0"/>
      <point x="281.0" y="110.0"/>
      <point x="169.0" y="110.0" type="curve"/>
    </contour>
    <contour>
      <point x="169.0" y="533.0"/>
      <point x="169.0" y="423.0"/>
      <point x="169.0" y="533.0" type="curve"/>
      <point x="123.0" y="533.0"/>
      <point x="77.0" y="533.0"/>
      <point x="32.0" y="533.0" type="curve"/>
      <point x="31.0" y="423.0"/>
      <point x="32.0" y="533.0"/>
      <point x="31.0" y="423.0" type="curve"/>
      <point x="169.0" y="423.0"/>
      <point x="31.0" y="423.0"/>
      <point x="169.0" y="423.0" type="curve"/>
    </contour>
    <contour>
      <point x="668.0" y="110.0"/>
      <point x="668.0" y="0.0"/>
      <point x="668.0" y="110.0" type="curve"/>
      <point x="555.0" y="110.0"/>
      <point x="668.0" y="110.0"/>
      <point x="555.0" y="110.0" type="curve"/>
      <point x="555.0" y="0.0"/>
      <point x="555.0" y="110.0"/>
      <point x="555.0" y="0.0" type="curve"/>
      <point x="593.0" y="0.0"/>
      <point x="630.0" y="0.0"/>
      <point x="668.0" y="0.0" type="curve"/>
    </contour>
    <contour>
      <point x="457.0" y="301.0"/>
      <point x="421.0" y="356.0"/>
      <point x="457.0" y="301.0" type="curve"/>
      <point x="475.0" y="360.0"/>
      <point x="489.0" y="423.0"/>
      <point x="547.0" y="423.0" type="curve"/>
      <point x="605.0" y="423.0"/>
      <point x="595.0" y="374.0"/>
      <point x="595.0" y="308.0" type="curve"/>
      <point x="595.0" y="205.0"/>
      <point x="595.0" y="103.0"/>
      <point x="595.0" y="0.0" type="curve"/>
      <point x="738.0" y="0.0"/>
      <point x="595.0" y="0.0"/>
      <point x="738.0" y="0.0" type="curve"/>
      <point x="738.0" y="106.0"/>
      <point x="738.0" y="213.0"/>
      <point x="738.0" y="319.0" type="curve"/>
      <point x="738.0" y="451.014018692"/>
      <point x="727.0" y="538.0"/>
      <point x="599.0" y="538.0" type="curve"/>
      <point x="505.0" y="538.0"/>
      <point x="444.619263411" y="461.773223102"/>
      <point x="421.0" y="356.0" type="curve"/>
    </contour>
    <contour>
      <point x="208.0" y="301.0"/>
      <point x="172.0" y="356.0"/>
      <point x="208.0" y="301.0" type="curve"/>
      <point x="227.0" y="361.0"/>
      <point x="239.0" y="423.0"/>
      <point x="298.0" y="423.0" type="curve"/>
      <point x="355.0" y="423.0"/>
      <point x="346.0" y="374.0"/>
      <point x="346.0" y="308.0" type="curve"/>
      <point x="346.0" y="205.0"/>
      <point x="346.0" y="103.0"/>
      <point x="346.0" y="0.0" type="curve"/>
      <point x="489.0" y="0.0"/>
      <point x="346.0" y="0.0"/>
      <point x="489.0" y="0.0" type="curve"/>
      <point x="489.0" y="106.0"/>
      <point x="489.0" y="213.0"/>
      <point x="489.0" y="319.0" type="curve"/>
      <point x="489.0" y="451.014018692"/>
      <point x="478.0" y="538.0"/>
      <point x="350.0" y="538.0" type="curve"/>
      <point x="255.0" y="538.0"/>
      <point x="196.644134595" y="462.79124991"/>
      <point x="172.0" y="356.0" type="curve"/>
    </contour>
    <contour>
      <point x="240.0" y="0.0"/>
      <point x="97.0" y="0.0"/>
      <point x="240.0" y="0.0" type="curve"/>
      <point x="240.0" y="178.0"/>
      <point x="240.0" y="355.0"/>
      <point x="240.0" y="533.0" type="curve"/>
      <point x="97.0" y="533.0"/>
      <point x="240.0" y="533.0"/>
      <point x="97.0" y="533.0" type="curve"/>
      <point x="97.0" y="355.0"/>
      <point x="97.0" y="178.0"/>
      <point x="97.0" y="0.0" type="curve"/>
    </contour>
  </outline>
</glyph>
<glyph name="n" format="1">
  <advance width="585"/>
  <unicode hex="006E"/>
  <outline>
    <contour>
      <point x="196.0" y="301.0"/>
      <point x="160.0" y="356.0"/>
      <point x="196.0" y="301.0" type="curve"/>
      <point x="214.0" y="360.0"/>
      <point x="243.0" y="423.0"/>
      <point x="301.0" y="423.0" type="curve"/>
      <point x="357.0" y="423.0"/>
      <point x="364.0" y="372.0"/>
      <point x="364.0" y="308.0" type="curve"/>
      <point x="364.0" y="205.0"/>
      <point x="364.0" y="103.0"/>
      <point x="364.0" y="0.0" type="curve"/>
      <point x="507.0" y="0.0"/>
      <point x="364.0" y="0.0"/>
      <point x="507.0" y="0.0" type="curve"/>
      <point x="507.0" y="106.0"/>
      <point x="507.0" y="213.0"/>
      <point x="507.0" y="319.0" type="curve"/>
      <point x="507.0" y="445.897196262"/>
      <point x="476.0" y="538.0"/>
      <point x="354.0" y="538.0" type="curve"/>
      <point x="259.0" y="538.0"/>
      <point x="183.53739649" y="459.359871545"/>
      <point x="160.0" y="356.0" type="curve"/>
    </contour>
    <contour>
      <point x="435.0" y="0.0"/>
      <point x="435.0" y="110.0"/>
      <point x="435.0" y="0.0" type="curve"/>
      <point x="480.0" y="0.0"/>
      <point x="526.0" y="0.0"/>
      <point x="572.0" y="0.0" type="curve"/>
      <point x="572.0" y="110.0"/>
      <point x="572.0" y="0.0"/>
      <point x="572.0" y="110.0" type="curve"/>
      <point x="435.0" y="110.0"/>
      <point x="572.0" y="110.0"/>
      <point x="435.0" y="110.0" type="curve"/>
    </contour>
    <contour>
      <point x="157.0" y="110.0"/>
      <point x="157.0" y="0.0"/>
      <point x="157.0" y="110.0" type="curve"/>
      <point x="19.0" y="110.0"/>
      <point x="157.0" y="110.0"/>
      <point x="19.0" y="110.0" type="curve"/>
      <point x="19.0" y="0.0"/>
      <point x="19.0" y="110.0"/>
      <point x="19.0" y="0.0" type="curve"/>
      <point x="65.0" y="0.0"/>
      <point x="111.0" y="0.0"/>
      <point x="157.0" y="0.0" type="curve"/>
    </contour>
    <contour>
      <point x="157.0" y="0.0"/>
      <point x="157.0" y="110.0"/>
      <point x="157.0" y="0.0" type="curve"/>
      <point x="200.0" y="0.0"/>
      <point x="157.0" y="0.0"/>
      <point x="286.0" y="0.0" type="curve"/>
      <point x="286.0" y="110.0"/>
      <point x="286.0" y="0.0"/>
      <point x="286.0" y="110.0" type="curve"/>
      <point x="157.0" y="110.0"/>
      <point x="286.0" y="110.0"/>
      <point x="157.0" y="110.0" type="curve"/>
    </contour>
    <contour>
      <point x="228.0" y="0.0"/>
      <point x="85.0" y="0.0"/>
      <point x="228.0" y="0.0" type="curve"/>
      <point x="228.0" y="178.0"/>
      <point x="228.0" y="355.0"/>
      <point x="228.0" y="533.0" type="curve"/>
      <point x="85.0" y="533.0"/>
      <point x="228.0" y="533.0"/>
      <point x="85.0" y="533.0" type="curve"/>
      <point x="85.0" y="355.0"/>
      <point x="85.0" y="178.0"/>
      <point x="85.0" y="0.0" type="curve"/>
    </contour>
    <contour>
      <point x="157.0" y="533.0"/>
      <point x="157.0" y="423.0"/>
      <point x="157.0" y="533.0" type="curve"/>
      <point x="111.0" y="533.0"/>
      <point x="65.0" y="533.0"/>
      <point x="19.0" y="533.0" type="curve"/>
      <point x="19.0" y="423.0"/>
      <point x="19.0" y="533.0"/>
      <point x="19.0" y="423.0" type="curve"/>
      <point x="157.0" y="423.0"/>
      <point x="19.0" y="423.0"/>
      <point x="157.0" y="423.0" type="curve"/>
    </contour>
    <contour>
      <point x="435.0" y="110.0"/>
      <point x="435.0" y="0.0"/>
      <point x="435.0" y="110.0" type="curve"/>
      <point x="305.0" y="110.0"/>
      <point x="435.0" y="110.0"/>
      <point x="305.0" y="110.0" type="curve"/>
      <point x="305.0" y="0.0"/>
      <point x="305.0" y="110.0"/>
      <point x="305.0" y="0.0" type="curve"/>
      <point x="348.0" y="0.0"/>
      <point x="392.0" y="0.0"/>
      <point x="435.0" y="0.0" type="curve"/>
    </contour>
    <contour>
      <point x="288" y="670" type="move" name="top"/>
    </contour>
    <contour>
      <point x="327" y="38" type="move" name="bottom"/>
    </contour>
  </outline>
</glyph>
<glyph name="o" format="1">
  <advance width="503"/>
  <unicode hex="006F"/>
  <outline>
    <contour>
      <point x="153.0" y="265.0" type="line"/>
      <point x="153.0" y="345.0"/>
      <point x="171.0" y="423.0"/>
      <point x="247.0" y="423.0" type="curve"/>
      <point x="323.0" y="423.0"/>
      <point x="343.0" y="347.0"/>
      <point x="343.0" y="265.0" type="curve"/>
      <point x="343.0" y="180.0"/>
      <point x="327.0" y="110.0"/>
      <point x="256.0" y="110.0" type="curve"/>
      <point x="171.0" y="111.0"/>
      <point x="153.0" y="179.0"/>
      <point x="153.0" y="265.0" type="curve"/>
      <point x="20.0" y="265.0" type="line"/>
      <point x="20.0" y="105.0"/>
      <point x="98.0" y="-5.0"/>
      <point x="250.0" y="-5.0" type="curve"/>
      <point x="404.0" y="-5.0"/>
      <point x="486.0" y="103.0"/>
      <point x="486.0" y="265.0" type="curve"/>
      <point x="486.0" y="427.0"/>
      <point x="407.0" y="538.0"/>
      <point x="254.0" y="538.0" type="curve"/>
      <point x="99.0" y="538.0"/>
      <point x="20.0" y="427.0"/>
      <point x="20.0" y="265.0" type="curve"/>
    </contour>
    <contour>
      <point x="248" y="669" type="move" name="top"/>
    </contour>
  </outline>
</glyph>
<glyph name="p" format="1">
  <advance width="560"/>
  <unicode hex="0070"/>
  <outline>
    <contour>
      <point x="155.0" y="-189.0"/>
      <point x="155.0" y="-300.0"/>
      <point x="155.0" y="-189.0" type="curve"/>
      <point x="18.0" y="-189.0"/>
      <point x="155.0" y="-189.0"/>
      <point x="18.0" y="-189.0" type="curve"/>
      <point x="18.0" y="-300.0"/>
      <point x="18.0" y="-189.0"/>
      <point x="18.0" y="-300.0" type="curve"/>
      <point x="64.0" y="-300.0"/>
      <point x="109.0" y="-300.0"/>
      <point x="155.0" y="-300.0" type="curve"/>
    </contour>
    <contour>
      <point x="155.0" y="-300.0"/>
      <point x="155.0" y="-189.0"/>
      <point x="155.0" y="-300.0" type="curve"/>
      <point x="199.0" y="-300.0"/>
      <point x="242.0" y="-300.0"/>
      <point x="285.0" y="-300.0" type="curve"/>
      <point x="285.0" y="-189.0"/>
      <point x="285.0" y="-300.0"/>
      <point x="285.0" y="-189.0" type="curve"/>
      <point x="155.0" y="-189.0"/>
      <point x="285.0" y="-189.0"/>
      <point x="155.0" y="-189.0" type="curve"/>
    </contour>
    <contour>
      <point x="156.0" y="533.0"/>
      <point x="156.0" y="423.0"/>
      <point x="156.0" y="533.0" type="curve"/>
      <point x="110.0" y="533.0"/>
      <point x="65.0" y="533.0"/>
      <point x="19.0" y="533.0" type="curve"/>
      <point x="19.0" y="423.0"/>
      <point x="19.0" y="533.0"/>
      <point x="19.0" y="423.0" type="curve"/>
      <point x="156.0" y="423.0"/>
      <point x="19.0" y="423.0"/>
      <point x="156.0" y="423.0" type="curve"/>
    </contour>
    <contour>
      <point x="191.0" y="346.0"/>
      <point x="161.0" y="423.0"/>
      <point x="191.0" y="346.0" type="curve"/>
      <point x="213.0" y="379.0"/>
      <point x="255.0" y="424.0"/>
      <point x="312.0" y="424.0" type="curve"/>
      <point x="391.0" y="424.0"/>
      <point x="399.0" y="346.0"/>
      <point x="399.0" y="261.0" type="curve"/>
      <point x="400.0" y="179.0"/>
      <point x="389.0" y="105.0"/>
      <point x="314.0" y="105.0" type="curve"/>
      <point x="266.0" y="105.0"/>
      <point x="231.0" y="125.0"/>
      <point x="201.0" y="162.0" type="curve"/>
      <point x="152.0" y="102.0"/>
      <point x="201.0" y="162.0"/>
      <point x="152.0" y="102.0" type="curve"/>
      <point x="203.0" y="33.0"/>
      <point x="259.0" y="-5.0"/>
      <point x="341.0" y="-5.0" type="curve"/>
      <point x="488.0" y="-5.0"/>
      <point x="542.0" y="119.0"/>
      <point x="542.0" y="267.0" type="curve"/>
      <point x="542.0" y="413.0"/>
      <point x="490.0" y="539.0"/>
      <point x="341.0" y="539.0" type="curve"/>
      <point x="259.0" y="539.0"/>
      <point x="197.0" y="481.0"/>
      <point x="161.0" y="423.0" type="curve"/>
    </contour>
    <contour>
      <point x="227.0" y="-300.0"/>
      <point x="84.0" y="-300.0"/>
      <point x="227.0" y="-300.0" type="curve"/>
      <point x="227.0" y="-22.0"/>
      <point x="227.0" y="255.0"/>
      <point x="227.0" y="533.0" type="curve"/>
      <point x="84.0" y="533.0"/>
      <point x="227.0" y="533.0"/>
      <point x="84.0" y="533.0" type="curve"/>
      <point x="84.0" y="255.0"/>
      <point x="84.0" y="-22.0"/>
      <point x="84.0" y="-300.0" type="curve"/>
    </contour>
  </outline>
</glyph>
<glyph name="r" format="1">
  <advance width="363"/>
  <unicode hex="0072"/>
  <outline>
    <contour>
      <point x="153.0" y="0.0"/>
      <point x="153.0" y="110.0"/>
      <point x="153.0" y="0.0" type="curve"/>
      <point x="196.0" y="0.0"/>
      <point x="239.0" y="0.0"/>
      <point x="283.0" y="0.0" type="curve"/>
      <point x="283.0" y="110.0"/>
      <point x="283.0" y="0.0"/>
      <point x="283.0" y="110.0" type="curve"/>
      <point x="153.0" y="110.0"/>
      <point x="283.0" y="110.0"/>
      <point x="153.0" y="110.0" type="curve"/>
    </contour>
    <contour>
      <point x="153.0" y="110.0"/>
      <point x="153.0" y="0.0"/>
      <point x="153.0" y="110.0" type="curve"/>
      <point x="16.0" y="110.0"/>
      <point x="153.0" y="110.0"/>
      <point x="16.0" y="110.0" type="curve"/>
      <point x="15.0" y="0.0"/>
      <point x="16.0" y="110.0"/>
      <point x="15.0" y="0.0" type="curve"/>
      <point x="61.0" y="0.0"/>
      <point x="107.0" y="0.0"/>
      <point x="153.0" y="0.0" type="curve"/>
    </contour>
    <contour>
      <point x="152.0" y="533.0"/>
      <point x="152.0" y="423.0"/>
      <point x="152.0" y="533.0" type="curve"/>
      <point x="106.0" y="533.0"/>
      <point x="60.0" y="533.0"/>
      <point x="15.0" y="533.0" type="curve"/>
      <point x="15.0" y="423.0"/>
      <point x="15.0" y="533.0"/>
      <point x="15.0" y="423.0" type="curve"/>
      <point x="152.0" y="423.0"/>
      <point x="15.0" y="423.0"/>
      <point x="152.0" y="423.0" type="curve"/>
    </contour>
    <contour>
      <point x="224.0" y="0.0"/>
      <point x="81.0" y="0.0"/>
      <point x="224.0" y="0.0" type="curve"/>
      <point x="224.0" y="178.0"/>
      <point x="224.0" y="355.0"/>
      <point x="224.0" y="533.0" type="curve"/>
      <point x="81.0" y="533.0"/>
      <point x="224.0" y="533.0"/>
      <point x="81.0" y="533.0" type="curve"/>
      <point x="81.0" y="355.0"/>
      <point x="81.0" y="178.0"/>
      <point x="81.0" y="0.0" type="curve"/>
    </contour>
    <contour>
      <point x="182.0" y="351.0"/>
      <point x="141.0" y="397.0"/>
      <point x="182.0" y="351.0" type="curve"/>
      <point x="213.0" y="410.0"/>
      <point x="272.0" y="423.0"/>
      <point x="340.0" y="423.0" type="curve"/>
      <point x="340.0" y="538.0"/>
      <point x="340.0" y="423.0"/>
      <point x="340.0" y="538.0" type="curve"/>
      <point x="245.0" y="538.0"/>
      <point x="181.0" y="484.0"/>
      <point x="141.0" y="397.0" type="curve"/>
    </contour>
    <contour>
      <point x="159.0" y="36.0" type="move" name="bottom"/>
    </contour>
  </outline>
</glyph>
<glyph name="s" format="1">
  <advance width="402"/>
  <unicode hex="0073"/>
  <outline>
    <contour>
      <point x="20.0" y="47.0"/>
      <point x="92.0" y="146.0"/>
      <point x="20.0" y="47.0" type="curve"/>
      <point x="76.4661484993" y="15.1736253913"/>
      <point x="130.0" y="-5.0"/>
      <point x="190.0" y="-5.0" type="curve"/>
      <point x="305.0" y="-5.0"/>
      <point x="381.0" y="50.6666666667"/>
      <point x="381.0" y="162.0" type="curve"/>
      <point x="380.0" y="259.0"/>
      <point x="309.0" y="293.0"/>
      <point x="214.0" y="327.0" type="curve"/>
      <point x="179.0" y="339.0"/>
      <point x="153.0" y="357.0"/>
      <point x="153.0" y="388.0" type="curve"/>
      <point x="153.0" y="407.0"/>
      <point x="164.666666667" y="423.0"/>
      <point x="188.0" y="423.0" type="curve"/>
      <point x="218.0" y="423.0"/>
      <point x="254.0" y="407.0"/>
      <point x="273.0" y="393.0" type="curve"/>
      <point x="338.0" y="493.0"/>
      <point x="273.0" y="393.0"/>
      <point x="338.0" y="493.0" type="curve"/>
      <point x="305.650336396" y="515.957825784"/>
      <point x="245.0" y="538.0"/>
      <point x="194.0" y="538.0" type="curve"/>
      <point x="90.0" y="538.0"/>
      <point x="23.0" y="487.310344828"/>
      <point x="23.0" y="388.0" type="curve"/>
      <point x="23.0" y="297.0"/>
      <point x="79.0" y="253.0"/>
      <point x="168.0" y="222.0" type="curve"/>
      <point x="208.697810801" y="207.75576622"/>
      <point x="244.0" y="191.0"/>
      <point x="244.0" y="153.0" type="curve"/>
      <point x="244.0" y="128.0"/>
      <point x="227.0" y="114.0"/>
      <point x="205.0" y="114.0" type="curve"/>
      <point x="163.0" y="114.0"/>
      <point x="127.80071013" y="125.273273083"/>
      <point x="92.0" y="146.0" type="curve"/>
    </contour>
    <contour>
      <point x="226.0" y="493.0"/>
      <point x="338.0" y="493.0"/>
      <point x="226.0" y="493.0" type="curve"/>
      <point x="226.0" y="358.0"/>
      <point x="226.0" y="493.0"/>
      <point x="226.0" y="358.0" type="curve"/>
      <point x="338.0" y="358.0"/>
      <point x="226.0" y="358.0"/>
      <point x="338.0" y="358.0" type="curve"/>
      <point x="338.0" y="493.0"/>
      <point x="338.0" y="358.0"/>
      <point x="338.0" y="493.0" type="curve"/>
    </contour>
    <contour>
      <point x="132.0" y="47.0"/>
      <point x="20.0" y="47.0"/>
      <point x="132.0" y="47.0" type="curve"/>
      <point x="132.0" y="193.0"/>
      <point x="132.0" y="47.0"/>
      <point x="132.0" y="193.0" type="curve"/>
      <point x="20.0" y="193.0"/>
      <point x="132.0" y="193.0"/>
      <point x="20.0" y="193.0" type="curve"/>
      <point x="20.0" y="47.0"/>
      <point x="20.0" y="193.0"/>
      <point x="20.0" y="47.0" type="curve"/>
    </contour>
    <contour>
      <point x="141" y="23" type="move" name="bottom"/>
    </contour>
    <contour>
      <point x="187" y="670" type="move" name="top"/>
    </contour>
  </outline>
</glyph>
<glyph name="t" format="1">
  <advance width="364"/>
  <unicode hex="0074"/>
  <outline>
    <contour>
      <point x="32.25" y="421.068297631"/>
      <point x="32.25" y="531.568297631"/>
      <point x="32.25" y="421.068297631" type="curve"/>
      <point x="32.25" y="421.068297631"/>
      <point x="325.5" y="421.068297631"/>
      <point x="325.5" y="421.068297631" type="curve"/>
      <point x="325.5" y="531.568297631"/>
      <point x="325.5" y="421.068297631"/>
      <point x="325.5" y="531.568297631" type="curve"/>
      <point x="325.5" y="531.568297631"/>
      <point x="32.25" y="531.568297631"/>
      <point x="32.25" y="531.568297631" type="curve"/>
    </contour>
    <contour>
      <point x="281.625" y="125.050348913"/>
      <point x="340.125" y="31.1253489127"/>
      <point x="281.625" y="125.050348913" type="curve"/>
      <point x="270.0" y="115.0"/>
      <point x="262.0" y="110.0"/>
      <point x="248.0" y="110.0" type="curve"/>
      <point x="216.0" y="110.0"/>
      <point x="219.25" y="139.524878879"/>
      <point x="219.25" y="175.435605323" type="curve"/>
      <point x="219.25" y="175.435605323"/>
      <point x="219.25" y="651.456759169"/>
      <point x="219.25" y="651.456759169" type="curve"/>
      <point x="76.25" y="579.631759169"/>
      <point x="219.25" y="651.456759169"/>
      <point x="76.25" y="579.631759169" type="curve"/>
      <point x="76.25" y="579.631759169"/>
      <point x="76.25" y="169.910605323"/>
      <point x="76.25" y="169.910605323" type="curve"/>
      <point x="76.25" y="59.7722183011"/>
      <point x="125.539237543" y="-5.58747160013"/>
      <point x="226.75" y="-5.58747160013" type="curve"/>
      <point x="271.450091758" y="-5.58747160013"/>
      <point x="301.220599353" y="8.11847259016"/>
      <point x="340.125" y="31.1253489127" type="curve"/>
    </contour>
    <contour>
      <point x="225.0" y="39.0" type="move" name="bottom"/>
    </contour>
  </outline>
</glyph>
<glyph name="u" format="1">
  <advance width="584"/>
  <unicode hex="0075"/>
  <outline>
    <contour>
      <point x="431.0" y="533.0"/>
      <point x="431.0" y="423.0"/>
      <point x="431.0" y="533.0" type="curve"/>
      <point x="385.0" y="533.0"/>
      <point x="339.0" y="533.0"/>
      <point x="293.0" y="533.0" type="curve"/>
      <point x="293.0" y="423.0"/>
      <point x="293.0" y="533.0"/>
      <point x="293.0" y="423.0" type="curve"/>
      <point x="431.0" y="423.0"/>
      <point x="293.0" y="423.0"/>
      <point x="431.0" y="423.0" type="curve"/>
    </contour>
    <contour>
      <point x="157.0" y="533.0"/>
      <point x="157.0" y="423.0"/>
      <point x="157.0" y="533.0" type="curve"/>
      <point x="111.0" y="533.0"/>
      <point x="64.0" y="533.0"/>
      <point x="19.0" y="533.0" type="curve"/>
      <point x="19.0" y="423.0"/>
      <point x="19.0" y="533.0"/>
      <point x="19.0" y="423.0" type="curve"/>
      <point x="157.0" y="423.0"/>
      <point x="19.0" y="423.0"/>
      <point x="157.0" y="423.0" type="curve"/>
    </contour>
    <contour>
      <point x="431.0" y="0.0"/>
      <point x="431.0" y="110.0"/>
      <point x="431.0" y="0.0" type="curve"/>
      <point x="474.0" y="0.0"/>
      <point x="517.0" y="0.0"/>
      <point x="560.0" y="0.0" type="curve"/>
      <point x="560.0" y="110.0"/>
      <point x="560.0" y="0.0"/>
      <point x="560.0" y="110.0" type="curve"/>
      <point x="431.0" y="110.0"/>
      <point x="560.0" y="110.0"/>
      <point x="431.0" y="110.0" type="curve"/>
    </contour>
    <contour>
      <point x="502.0" y="0.0"/>
      <point x="359.0" y="0.0"/>
      <point x="502.0" y="0.0" type="curve"/>
      <point x="502.0" y="178.0"/>
      <point x="502.0" y="355.0"/>
      <point x="502.0" y="533.0" type="curve"/>
      <point x="359.0" y="533.0"/>
      <point x="502.0" y="533.0"/>
      <point x="359.0" y="533.0" type="curve"/>
      <point x="359.0" y="355.0"/>
      <point x="359.0" y="178.0"/>
      <point x="359.0" y="0.0" type="curve"/>
    </contour>
    <contour>
      <point x="382.0" y="214.0"/>
      <point x="437.0" y="164.0"/>
      <point x="382.0" y="214.0" type="curve"/>
      <point x="363.0" y="169.0"/>
      <point x="337.0" y="111.0"/>
      <point x="287.0" y="111.0" type="curve"/>
      <point x="234.0" y="111.0"/>
      <point x="228.0" y="159.0"/>
      <point x="228.0" y="219.0" type="curve"/>
      <point x="228.0" y="324.0"/>
      <point x="228.0" y="428.0"/>
      <point x="228.0" y="533.0" type="curve"/>
      <point x="85.0" y="533.0"/>
      <point x="228.0" y="533.0"/>
      <point x="85.0" y="533.0" type="curve"/>
      <point x="85.0" y="426.0"/>
      <point x="85.0" y="320.0"/>
      <point x="85.0" y="214.0" type="curve"/>
      <point x="85.0" y="83.0"/>
      <point x="131.0" y="-5.0"/>
      <point x="265.0" y="-5.0" type="curve"/>
      <point x="353.0" y="-5.0"/>
      <point x="405.0" y="80.0"/>
      <point x="437.0" y="164.0" type="curve"/>
    </contour>
    <contour>
      <point x="268.0" y="670.0" type="move" name="top"/>
    </contour>
    <contour>
      <point x="468.0" y="14.0" type="move" name="bottom"/>
    </contour>
  </outline>
</glyph>
<glyph name="v" format="1">
  <advance width="629"/>
  <unicode hex="0076"/>
  <outline>
    <contour>
      <point x="162.0" y="533.0"/>
      <point x="162.0" y="423.0"/>
      <point x="162.0" y="533.0" type="curve"/>
      <point x="116.0" y="533.0"/>
      <point x="70.0" y="533.0"/>
      <point x="25.0" y="533.0" type="curve"/>
      <point x="25.0" y="423.0"/>
      <point x="25.0" y="533.0"/>
      <point x="25.0" y="423.0" type="curve"/>
      <point x="162.0" y="423.0"/>
      <point x="25.0" y="423.0"/>
      <point x="162.0" y="423.0" type="curve"/>
    </contour>
    <contour>
      <point x="162.0" y="423.0"/>
      <point x="162.0" y="533.0"/>
      <point x="162.0" y="423.0" type="curve"/>
      <point x="299.0" y="423.0"/>
      <point x="162.0" y="423.0"/>
      <point x="299.0" y="423.0" type="curve"/>
      <point x="299.0" y="533.0"/>
      <point x="299.0" y="423.0"/>
      <point x="299.0" y="533.0" type="curve"/>
      <point x="254.0" y="533.0"/>
      <point x="208.0" y="533.0"/>
      <point x="162.0" y="533.0" type="curve"/>
    </contour>
    <contour>
      <point x="469.0" y="533.0"/>
      <point x="469.0" y="423.0"/>
      <point x="469.0" y="533.0" type="curve"/>
      <point x="423.0" y="533.0"/>
      <point x="377.0" y="533.0"/>
      <point x="332.0" y="533.0" type="curve"/>
      <point x="332.0" y="423.0"/>
      <point x="332.0" y="533.0"/>
      <point x="332.0" y="423.0" type="curve"/>
      <point x="469.0" y="423.0"/>
      <point x="332.0" y="423.0"/>
      <point x="469.0" y="423.0" type="curve"/>
    </contour>
    <contour>
      <point x="469.0" y="423.0"/>
      <point x="469.0" y="533.0"/>
      <point x="469.0" y="423.0" type="curve"/>
      <point x="606.0" y="423.0"/>
      <point x="469.0" y="423.0"/>
      <point x="606.0" y="423.0" type="curve"/>
      <point x="606.0" y="533.0"/>
      <point x="606.0" y="423.0"/>
      <point x="606.0" y="533.0" type="curve"/>
      <point x="560.0" y="533.0"/>
      <point x="514.0" y="533.0"/>
      <point x="469.0" y="533.0" type="curve"/>
    </contour>
    <contour>
      <point x="82.0" y="533.0"/>
      <point x="227.0" y="533.0"/>
      <point x="82.0" y="533.0" type="curve"/>
      <point x="134.0" y="355.0"/>
      <point x="186.0" y="178.0"/>
      <point x="238.0" y="0.0" type="curve"/>
      <point x="371.0" y="0.0"/>
      <point x="238.0" y="0.0"/>
      <point x="371.0" y="0.0" type="curve"/>
      <point x="320.243663181" y="177.149567723"/>
      <point x="277.756336819" y="355.850432277"/>
      <point x="227.0" y="533.0" type="curve"/>
    </contour>
    <contour>
      <point x="405.0" y="533.0"/>
      <point x="549.0" y="533.0"/>
      <point x="405.0" y="533.0" type="curve"/>
      <point x="405.0" y="533.0"/>
      <point x="251.0" y="0.0"/>
      <point x="251.0" y="0.0" type="curve"/>
      <point x="385.0" y="0.0"/>
      <point x="251.0" y="0.0"/>
      <point x="385.0" y="0.0" type="curve"/>
      <point x="440.0" y="178.0"/>
      <point x="494.0" y="355.0"/>
      <point x="549.0" y="533.0" type="curve"/>
    </contour>
  </outline>
</glyph>
<glyph name="x" format="1">
  <advance width="627"/>
  <unicode hex="0078"/>
  <outline>
    <contour>
      <point x="174.0" y="110.0"/>
      <point x="174.0" y="0.0"/>
      <point x="174.0" y="110.0" type="curve"/>
      <point x="37.0" y="110.0"/>
      <point x="174.0" y="110.0"/>
      <point x="37.0" y="110.0" type="curve"/>
      <point x="37.0" y="0.0"/>
      <point x="37.0" y="110.0"/>
      <point x="37.0" y="0.0" type="curve"/>
      <point x="82.0" y="0.0"/>
      <point x="128.0" y="0.0"/>
      <point x="174.0" y="0.0" type="curve"/>
    </contour>
    <contour>
      <point x="463.0" y="110.0"/>
      <point x="463.0" y="0.0"/>
      <point x="463.0" y="110.0" type="curve"/>
      <point x="326.0" y="110.0"/>
      <point x="463.0" y="110.0"/>
      <point x="326.0" y="110.0" type="curve"/>
      <point x="326.0" y="0.0"/>
      <point x="326.0" y="110.0"/>
      <point x="326.0" y="0.0" type="curve"/>
      <point x="371.0" y="0.0"/>
      <point x="417.0" y="0.0"/>
      <point x="463.0" y="0.0" type="curve"/>
    </contour>
    <contour>
      <point x="443.0" y="0.0"/>
      <point x="443.0" y="110.0"/>
      <point x="443.0" y="0.0" type="curve"/>
      <point x="489.0" y="0.0"/>
      <point x="535.0" y="0.0"/>
      <point x="580.0" y="0.0" type="curve"/>
      <point x="580.0" y="110.0"/>
      <point x="580.0" y="0.0"/>
      <point x="580.0" y="110.0" type="curve"/>
      <point x="443.0" y="110.0"/>
      <point x="580.0" y="110.0"/>
      <point x="443.0" y="110.0" type="curve"/>
    </contour>
    <contour>
      <point x="154.0" y="0.0"/>
      <point x="154.0" y="110.0"/>
      <point x="154.0" y="0.0" type="curve"/>
      <point x="200.0" y="0.0"/>
      <point x="154.0" y="0.0"/>
      <point x="291.0" y="0.0" type="curve"/>
      <point x="291.0" y="110.0"/>
      <point x="291.0" y="0.0"/>
      <point x="291.0" y="110.0" type="curve"/>
      <point x="154.0" y="110.0"/>
      <point x="291.0" y="110.0"/>
      <point x="154.0" y="110.0" type="curve"/>
    </contour>
    <contour>
      <point x="431.0" y="423.0"/>
      <point x="431.0" y="533.0"/>
      <point x="431.0" y="423.0" type="curve"/>
      <point x="568.0" y="423.0"/>
      <point x="431.0" y="423.0"/>
      <point x="568.0" y="423.0" type="curve"/>
      <point x="568.0" y="533.0"/>
      <point x="568.0" y="423.0"/>
      <point x="568.0" y="533.0" type="curve"/>
      <point x="523.0" y="533.0"/>
      <point x="477.0" y="533.0"/>
      <point x="431.0" y="533.0" type="curve"/>
    </contour>
    <contour>
      <point x="189.0" y="533.0"/>
      <point x="189.0" y="423.0"/>
      <point x="189.0" y="533.0" type="curve"/>
      <point x="143.0" y="533.0"/>
      <point x="97.0" y="533.0"/>
      <point x="52.0" y="533.0" type="curve"/>
      <point x="52.0" y="423.0"/>
      <point x="52.0" y="533.0"/>
      <point x="52.0" y="423.0" type="curve"/>
      <point x="189.0" y="423.0"/>
      <point x="52.0" y="423.0"/>
      <point x="189.0" y="423.0" type="curve"/>
    </contour>
    <contour>
      <point x="159.0" y="423.0"/>
      <point x="159.0" y="533.0"/>
      <point x="159.0" y="423.0" type="curve"/>
      <point x="296.0" y="423.0"/>
      <point x="159.0" y="423.0"/>
      <point x="296.0" y="423.0" type="curve"/>
      <point x="296.0" y="533.0"/>
      <point x="296.0" y="423.0"/>
      <point x="296.0" y="533.0" type="curve"/>
      <point x="251.0" y="533.0"/>
      <point x="205.0" y="533.0"/>
      <point x="159.0" y="533.0" type="curve"/>
    </contour>
    <contour>
      <point x="461.0" y="533.0"/>
      <point x="461.0" y="423.0"/>
      <point x="461.0" y="533.0" type="curve"/>
      <point x="415.0" y="533.0"/>
      <point x="369.0" y="533.0"/>
      <point x="324.0" y="533.0" type="curve"/>
      <point x="324.0" y="423.0"/>
      <point x="324.0" y="533.0"/>
      <point x="324.0" y="423.0" type="curve"/>
      <point x="461.0" y="423.0"/>
      <point x="324.0" y="423.0"/>
      <point x="461.0" y="423.0" type="curve"/>
    </contour>
    <contour>
      <point x="536.0" y="0.0"/>
      <point x="410.0" y="0.0"/>
      <point x="536.0" y="0.0" type="curve"/>
      <point x="432.0" y="178.0"/>
      <point x="327.0" y="355.0"/>
      <point x="223.0" y="533.0" type="curve"/>
      <point x="99.0" y="533.0"/>
      <point x="223.0" y="533.0"/>
      <point x="99.0" y="533.0" type="curve"/>
      <point x="203.0" y="355.0"/>
      <point x="307.0" y="178.0"/>
      <point x="410.0" y="0.0" type="curve"/>
    </contour>
    <contour>
      <point x="398.0" y="533.0"/>
      <point x="522.0" y="533.0"/>
      <point x="398.0" y="533.0" type="curve"/>
      <point x="293.0" y="355.0"/>
      <point x="187.0" y="178.0"/>
      <point x="82.0" y="0.0" type="curve"/>
      <point x="208.0" y="0.0"/>
      <point x="82.0" y="0.0"/>
      <point x="208.0" y="0.0" type="curve"/>
      <point x="313.0" y="178.0"/>
      <point x="418.0" y="355.0"/>
      <point x="522.0" y="533.0" type="curve"/>
    </contour>
  </outline>
</glyph>
<glyph name="y" format="1">
  <advance width="620"/>
  <unicode hex="0079"/>
  <outline>
    <contour>
      <point x="173.0" y="-188.0"/>
      <point x="173.0" y="-299.0"/>
      <point x="173.0" y="-188.0" type="curve"/>
      <point x="36.0" y="-190.0"/>
      <point x="173.0" y="-188.0"/>
      <point x="36.0" y="-190.0" type="curve"/>
      <point x="36.0" y="-300.0"/>
      <point x="36.0" y="-190.0"/>
      <point x="36.0" y="-300.0" type="curve"/>
      <point x="82.0" y="-300.0"/>
      <point x="127.0" y="-299.0"/>
      <point x="173.0" y="-299.0" type="curve"/>
    </contour>
    <contour>
      <point x="156.0" y="534.0"/>
      <point x="156.0" y="424.0"/>
      <point x="156.0" y="534.0" type="curve"/>
      <point x="110.0" y="534.0"/>
      <point x="64.0" y="533.0"/>
      <point x="19.0" y="533.0" type="curve"/>
      <point x="18.0" y="423.0"/>
      <point x="19.0" y="533.0"/>
      <point x="18.0" y="423.0" type="curve"/>
      <point x="156.0" y="424.0"/>
      <point x="18.0" y="423.0"/>
      <point x="156.0" y="424.0" type="curve"/>
    </contour>
    <contour>
      <point x="156.0" y="424.0"/>
      <point x="156.0" y="534.0"/>
      <point x="156.0" y="424.0" type="curve"/>
      <point x="293.0" y="423.0"/>
      <point x="156.0" y="424.0"/>
      <point x="293.0" y="423.0" type="curve"/>
      <point x="293.0" y="533.0"/>
      <point x="293.0" y="423.0"/>
      <point x="293.0" y="533.0" type="curve"/>
      <point x="247.0" y="533.0"/>
      <point x="202.0" y="534.0"/>
      <point x="156.0" y="534.0" type="curve"/>
    </contour>
    <contour>
      <point x="460.0" y="534.0"/>
      <point x="460.0" y="424.0"/>
      <point x="460.0" y="534.0" type="curve"/>
      <point x="414.0" y="534.0"/>
      <point x="368.0" y="533.0"/>
      <point x="322.0" y="533.0" type="curve"/>
      <point x="322.0" y="423.0"/>
      <point x="322.0" y="533.0"/>
      <point x="322.0" y="423.0" type="curve"/>
      <point x="460.0" y="424.0"/>
      <point x="322.0" y="423.0"/>
      <point x="460.0" y="424.0" type="curve"/>
    </contour>
    <contour>
      <point x="460.0" y="424.0"/>
      <point x="460.0" y="534.0"/>
      <point x="460.0" y="424.0" type="curve"/>
      <point x="597.0" y="423.0"/>
      <point x="460.0" y="424.0"/>
      <point x="597.0" y="423.0" type="curve"/>
      <point x="597.0" y="533.0"/>
      <point x="597.0" y="423.0"/>
      <point x="597.0" y="533.0" type="curve"/>
      <point x="551.0" y="533.0"/>
      <point x="505.0" y="534.0"/>
      <point x="460.0" y="534.0" type="curve"/>
    </contour>
    <contour>
      <point x="363.0" y="77.0"/>
      <point x="231.0" y="77.0"/>
      <point x="363.0" y="77.0" type="curve"/>
      <point x="314.0" y="229.0"/>
      <point x="268.0" y="380.0"/>
      <point x="219.0" y="533.0" type="curve"/>
      <point x="73.0" y="533.0"/>
      <point x="219.0" y="533.0"/>
      <point x="73.0" y="533.0" type="curve"/>
      <point x="126.0" y="381.0"/>
      <point x="178.0" y="229.0"/>
      <point x="231.0" y="77.0" type="curve"/>
    </contour>
    <contour>
      <point x="237.0" y="-300.0"/>
      <point x="91.0" y="-300.0"/>
      <point x="237.0" y="-300.0" type="curve"/>
      <point x="338.0" y="-22.0"/>
      <point x="440.0" y="255.0"/>
      <point x="541.0" y="533.0" type="curve"/>
      <point x="396.0" y="533.0"/>
      <point x="541.0" y="533.0"/>
      <point x="396.0" y="533.0" type="curve"/>
      <point x="294.0" y="255.0"/>
      <point x="192.0" y="-22.0"/>
      <point x="91.0" y="-300.0" type="curve"/>
    </contour>
    <contour>
      <point x="310.0" y="669.0" type="move" name="top"/>
    </contour>
  </outline>
</glyph>
<glyph name="z" format="1">
  <advance width="457"/>
  <unicode hex="007A"/>
  <outline>
    <contour>
      <point x="34.0" y="423.0"/>
      <point x="34.0" y="533.0"/>
      <point x="34.0" y="423.0" type="curve"/>
      <point x="141.286219081" y="423.0"/>
      <point x="249.14418811" y="422.5"/>
      <point x="357.0" y="422.5" type="curve"/>
      <point x="345.668864842" y="433.506697821"/>
      <point x="326.456135158" y="430.539062413"/>
      <point x="315.125" y="441.545760234" type="curve"/>
      <point x="304.602904986" y="451.14054141"/>
      <point x="307.522095014" y="468.978805569"/>
      <point x="297.0" y="478.573586745" type="curve"/>
      <point x="289.364463301" y="468.612941122"/>
      <point x="272.010536699" y="479.474778176"/>
      <point x="264.375" y="469.514132554" type="curve"/>
      <point x="184.078957528" y="349.426026779"/>
      <point x="264.375" y="469.514132554"/>
      <point x="21.625" y="110.5" type="curve"/>
      <point x="21.625" y="54.4264132554"/>
      <point x="21.625" y="110.5"/>
      <point x="21.625" y="54.4264132554" type="curve"/>
      <point x="21.625" y="0.0"/>
      <point x="21.625" y="54.4264132554"/>
      <point x="21.625" y="0.0" type="curve"/>
      <point x="74.25" y="0.0"/>
      <point x="21.625" y="0.0"/>
      <point x="74.25" y="0.0" type="curve"/>
      <point x="413.734362783" y="0.0"/>
      <point x="300.307271306" y="0.0"/>
      <point x="414.0" y="0.0" type="curve"/>
      <point x="414.0" y="110.0"/>
      <point x="414.0" y="0.0"/>
      <point x="414.0" y="110.0" type="curve"/>
      <point x="300.307271306" y="110.0"/>
      <point x="187.410322647" y="110.5"/>
      <point x="74.25" y="110.5" type="curve"/>
      <point x="84.4317572243" y="101.713403683"/>
      <point x="100.193242776" y="103.415129456"/>
      <point x="110.375" y="94.6285331384" type="curve"/>
      <point x="121.860983608" y="83.9939896504"/>
      <point x="120.639016392" y="65.0609567434"/>
      <point x="132.125" y="54.4264132554" type="curve"/>
      <point x="139.760536699" y="64.3870588777"/>
      <point x="157.114463301" y="53.525221824"/>
      <point x="164.75" y="63.4858674464" type="curve"/>
      <point x="245.890901809" y="184.49242243"/>
      <point x="164.75" y="63.4858674464"/>
      <point x="414.0" y="422.5" type="curve"/>
      <point x="414.0" y="478.573586745"/>
      <point x="414.0" y="422.5"/>
      <point x="414.0" y="478.573586745" type="curve"/>
      <point x="414.0" y="533.0"/>
      <point x="414.0" y="478.573586745"/>
      <point x="414.0" y="533.0" type="curve"/>
      <point x="357.0" y="533.0"/>
      <point x="414.0" y="533.0"/>
      <point x="357.0" y="533.0" type="curve"/>
      <point x="249.14418811" y="533.0"/>
      <point x="141.286219081" y="533.0"/>
      <point x="34.0" y="533.0" type="curve"/>
    </contour>
    <contour>
      <point x="34.0" y="478.0"/>
      <point x="145.0" y="478.0"/>
      <point x="34.0" y="478.0" type="curve"/>
      <point x="34.0" y="358.0"/>
      <point x="34.0" y="478.0"/>
      <point x="34.0" y="358.0" type="curve"/>
      <point x="145.0" y="358.0"/>
      <point x="34.0" y="358.0"/>
      <point x="145.0" y="358.0" type="curve"/>
      <point x="145.0" y="478.0"/>
      <point x="145.0" y="358.0"/>
      <point x="145.0" y="478.0" type="curve"/>
    </contour>
    <contour>
      <point x="414.0" y="55.0"/>
      <point x="302.0" y="55.0"/>
      <point x="414.0" y="55.0" type="curve"/>
      <point x="414.0" y="175.0"/>
      <point x="414.0" y="55.0"/>
      <point x="414.0" y="175.0" type="curve"/>
      <point x="302.0" y="175.0"/>
      <point x="414.0" y="175.0"/>
      <point x="302.0" y="175.0" type="curve"/>
      <point x="302.0" y="55.0"/>
      <point x="302.0" y="175.0"/>
      <point x="302.0" y="55.0" type="curve"/>
    </contour>
    <contour>
      <point x="225" y="669" type="move" name="top"/>
    </contour>
  </outline>
</glyph>
<glyph name="braceleft" format="1">
  <advance width="326"/>
  <unicode hex="007B"/>
  <outline>
    <contour>
      <point x="204.75" y="2.48575498575"/>
      <point x="204.75" y="-108.014245014"/>
      <point x="204.75" y="2.48575498575" type="curve"/>
      <point x="176.038432179" y="2.48575498575"/>
      <point x="182.75" y="33.6690879883"/>
      <point x="182.75" y="65.9892806268" type="curve"/>
      <point x="182.75" y="116.897354162"/>
      <point x="182.75" y="167.806954955"/>
      <point x="182.75" y="218.71502849" type="curve"/>
      <point x="182.75" y="323.323919232"/>
      <point x="130.477613387" y="399.413141026"/>
      <point x="31.5" y="399.413141026" type="curve"/>
      <point x="31.5" y="283.388141026"/>
      <point x="31.5" y="399.413141026"/>
      <point x="31.5" y="283.388141026" type="curve"/>
      <point x="55.3415821421" y="283.388141026"/>
      <point x="52.75" y="257.415198014"/>
      <point x="52.75" y="229.76502849" type="curve"/>
      <point x="52.75" y="177.015306705"/>
      <point x="52.75" y="124.264002412"/>
      <point x="52.75" y="71.5142806268" type="curve"/>
      <point x="52.75" y="-34.0158295971"/>
      <point x="104.968356934" y="-108.014245014"/>
      <point x="204.75" y="-108.014245014" type="curve"/>
    </contour>
    <contour>
      <point x="204.75" y="789.944444444"/>
      <point x="204.75" y="679.444444444"/>
      <point x="204.75" y="789.944444444" type="curve"/>
      <point x="105.443177846" y="789.944444444"/>
      <point x="52.75" y="718.262431607"/>
      <point x="52.75" y="613.613960114" type="curve"/>
      <point x="52.75" y="558.732232109"/>
      <point x="52.75" y="503.848857635"/>
      <point x="52.75" y="448.96712963" type="curve"/>
      <point x="52.75" y="422.850164465"/>
      <point x="53.7719762165" y="399.413141026"/>
      <point x="31.5" y="399.413141026" type="curve"/>
      <point x="31.5" y="283.388141026"/>
      <point x="31.5" y="399.413141026"/>
      <point x="31.5" y="283.388141026" type="curve"/>
      <point x="131.122258111" y="283.388141026"/>
      <point x="182.75" y="358.512124684"/>
      <point x="182.75" y="465.54212963" type="curve"/>
      <point x="182.75" y="514.898912885"/>
      <point x="182.75" y="564.257176859"/>
      <point x="182.75" y="613.613960114" type="curve"/>
      <point x="182.75" y="646.984528277"/>
      <point x="174.952229613" y="679.444444444"/>
      <point x="204.75" y="679.444444444" type="curve"/>
    </contour>
  </outline>
</glyph>
<glyph name="braceright" format="1">
  <advance width="326"/>
  <unicode hex="007D"/>
  <outline>
    <contour>
      <point x="31.5" y="-108.014245014"/>
      <point x="31.5" y="2.48575498575"/>
      <point x="31.5" y="-108.014245014" type="curve"/>
      <point x="131.281643066" y="-108.014245014"/>
      <point x="183.5" y="-34.0158295971"/>
      <point x="183.5" y="71.5142806268" type="curve"/>
      <point x="183.5" y="124.264002412"/>
      <point x="183.5" y="177.015306705"/>
      <point x="183.5" y="229.76502849" type="curve"/>
      <point x="183.5" y="257.415198014"/>
      <point x="180.908417858" y="283.388141026"/>
      <point x="204.75" y="283.388141026" type="curve"/>
      <point x="204.75" y="399.413141026"/>
      <point x="204.75" y="283.388141026"/>
      <point x="204.75" y="399.413141026" type="curve"/>
      <point x="105.772386613" y="399.413141026"/>
      <point x="53.5" y="323.323919232"/>
      <point x="53.5" y="218.71502849" type="curve"/>
      <point x="53.5" y="167.806954955"/>
      <point x="53.5" y="116.897354162"/>
      <point x="53.5" y="65.9892806268" type="curve"/>
      <point x="53.5" y="33.6690879883"/>
      <point x="60.2115678211" y="2.48575498575"/>
      <point x="31.5" y="2.48575498575" type="curve"/>
    </contour>
    <contour>
      <point x="31.5" y="679.444444444"/>
      <point x="31.5" y="789.944444444"/>
      <point x="31.5" y="679.444444444" type="curve"/>
      <point x="61.2977703869" y="679.444444444"/>
      <point x="53.5" y="646.984528277"/>
      <point x="53.5" y="613.613960114" type="curve"/>
      <point x="53.5" y="564.257176859"/>
      <point x="53.5" y="514.898912885"/>
      <point x="53.5" y="465.54212963" type="curve"/>
      <point x="53.5" y="358.512124684"/>
      <point x="105.127741889" y="283.388141026"/>
      <point x="204.75" y="283.388141026" type="curve"/>
      <point x="204.75" y="399.413141026"/>
      <point x="204.75" y="283.388141026"/>
      <point x="204.75" y="399.413141026" type="curve"/>
      <point x="182.478023784" y="399.413141026"/>
      <point x="183.5" y="422.850164465"/>
      <point x="183.5" y="448.96712963" type="curve"/>
      <point x="183.5" y="503.848857635"/>
      <point x="183.5" y="558.732232109"/>
      <point x="183.5" y="613.613960114" type="curve"/>
      <point x="183.5" y="718.262431607"/>
      <point x="130.806822154" y="789.944444444"/>
      <point x="31.5" y="789.944444444" type="curve"/>
    </contour>
  </outline>
</glyph>
<glyph name="asciitilde" format="1">
  <advance width="586"/>
  <unicode hex="007E"/>
  <outline>
    <contour>
      <point x="459.0" y="358.0"/>
      <point x="434.0" y="366.0"/>
      <point x="390.0" y="380.0" type="curve"/>
      <point x="380.0" y="344.0"/>
      <point x="366.0" y="310.0"/>
      <point x="347.0" y="310.0" type="curve"/>
      <point x="329.0" y="310.0"/>
      <point x="320.0" y="317.0"/>
      <point x="308.0" y="329.0" type="curve"/>
      <point x="267.0" y="371.0"/>
      <point x="237.0" y="393.0"/>
      <point x="178.0" y="393.0" type="curve"/>
      <point x="84.0" y="393.0"/>
      <point x="41.0" y="337.0"/>
      <point x="19.0" y="242.0" type="curve"/>
      <point x="64.0" y="227.0"/>
      <point x="89.0" y="218.0"/>
      <point x="134.0" y="203.0" type="curve"/>
      <point x="142.0" y="241.0"/>
      <point x="155.0" y="275.0"/>
      <point x="176.0" y="275.0" type="curve"/>
      <point x="195.0" y="275.0"/>
      <point x="204.0" y="268.0"/>
      <point x="218.0" y="255.0" type="curve"/>
      <point x="260.0" y="213.0"/>
      <point x="290.0" y="193.0"/>
      <point x="349.0" y="192.0" type="curve"/>
      <point x="441.0" y="192.0"/>
      <point x="476.0" y="252.0"/>
      <point x="503.0" y="344.0" type="curve"/>
    </contour>
  </outline>
</glyph>
<glyph name="cent" format="1">
  <advance width="560"/>
  <unicode hex="00A2"/>
  <outline>
    <contour>
      <point x="382.0" y="-53.0"/>
      <point x="239.0" y="-53.0"/>
      <point x="382.0" y="-53.0" type="curve"/>
      <point x="382.0" y="-13.0"/>
      <point x="382.0" y="27.0"/>
      <point x="382.0" y="67.0" type="curve"/>
      <point x="239.0" y="67.0"/>
      <point x="382.0" y="67.0"/>
      <point x="239.0" y="67.0" type="curve"/>
      <point x="239.0" y="27.0"/>
      <point x="239.0" y="-13.0"/>
      <point x="239.0" y="-53.0" type="curve"/>
    </contour>
    <contour>
      <point x="255.0" y="778.0"/>
      <point x="398.0" y="778.0"/>
      <point x="255.0" y="778.0" type="curve"/>
      <point x="255.0" y="742.0"/>
      <point x="255.0" y="706.0"/>
      <point x="255.0" y="670.0" type="curve"/>
      <point x="398.0" y="670.0"/>
      <point x="255.0" y="670.0"/>
      <point x="398.0" y="670.0" type="curve"/>
      <point x="398.0" y="706.0"/>
      <point x="398.0" y="742.0"/>
      <point x="398.0" y="778.0" type="curve"/>
    </contour>
    <contour>
      <point x="527.0" y="610.0"/>
      <point x="446.0" y="519.0"/>
      <point x="527.0" y="610.0" type="curve"/>
      <point x="465.0" y="667.0"/>
      <point x="412.0" y="687.0"/>
      <point x="335.0" y="687.0" type="curve"/>
      <point x="153.0" y="687.0"/>
      <point x="51.0" y="554.0"/>
      <point x="51.0" y="363.0" type="curve"/>
      <point x="51.0" y="180.0"/>
      <point x="134.0" y="45.0"/>
      <point x="304.0" y="45.0" type="curve"/>
      <point x="396.0" y="45.0"/>
      <point x="461.0" y="71.0"/>
      <point x="523.0" y="146.0" type="curve"/>
      <point x="437.0" y="228.0"/>
      <point x="523.0" y="146.0"/>
      <point x="437.0" y="228.0" type="curve"/>
      <point x="399.0" y="191.0"/>
      <point x="370.0" y="161.0"/>
      <point x="317.0" y="161.0" type="curve"/>
      <point x="224.0" y="161.0"/>
      <point x="194.0" y="256.0"/>
      <point x="194.0" y="369.0" type="curve"/>
      <point x="194.0" y="480.0"/>
      <point x="234.0" y="571.0"/>
      <point x="322.0" y="571.0" type="curve"/>
      <point x="373.0" y="571.0"/>
      <point x="407.0" y="553.0"/>
      <point x="446.0" y="519.0" type="curve"/>
    </contour>
  </outline>
</glyph>
<glyph name="sterling" format="1">
  <advance width="401"/>
  <unicode hex="00A3"/>
  <outline>
    <contour>
      <point x="333.0" y="111.0"/>
      <point x="333.0" y="0.0"/>
      <point x="333.0" y="111.0" type="curve"/>
      <point x="233.0" y="111.0"/>
      <point x="123.2489925" y="110.5"/>
      <point x="22.5" y="110.5" type="curve"/>
      <point x="22.5" y="0.0"/>
      <point x="22.5" y="110.5"/>
      <point x="22.5" y="0.0" type="curve"/>
      <point x="123.2489925" y="-1.23377856357e-14"/>
      <point x="232.0" y="0.0"/>
      <point x="333.0" y="0.0" type="curve"/>
    </contour>
    <contour>
      <point x="289.5" y="430.187321937"/>
      <point x="289.5" y="319.687321937"/>
      <point x="289.5" y="430.187321937" type="curve"/>
      <point x="209.2508025" y="430.187321937"/>
      <point x="118.0" y="430.0"/>
      <point x="38.0" y="430.0" type="curve"/>
      <point x="38.0" y="320.0"/>
      <point x="38.0" y="430.0"/>
      <point x="38.0" y="320.0" type="curve"/>
      <point x="118.0" y="320.0"/>
      <point x="209.2508025" y="319.687321937"/>
      <point x="289.5" y="319.687321937" type="curve"/>
    </contour>
    <contour>
      <point x="364.0" y="660.0"/>
      <point x="292.0" y="579.0"/>
      <point x="364.0" y="660.0" type="curve"/>
      <point x="324.0" y="707.0"/>
      <point x="287.043251191" y="719.673041311"/>
      <point x="234.625" y="719.673041311" type="curve"/>
      <point x="75.5547893681" y="719.673041311"/>
      <point x="40.0" y="557.0"/>
      <point x="74.0" y="362.0" type="curve"/>
      <point x="96.0" y="234.0"/>
      <point x="93.0" y="111.0"/>
      <point x="22.5" y="110.5" type="curve"/>
      <point x="22.5" y="0.0"/>
      <point x="22.5" y="110.5"/>
      <point x="22.5" y="0.0" type="curve"/>
      <point x="196.759995124" y="-2.13399897246e-14"/>
      <point x="235.078734038" y="177.358961726"/>
      <point x="199.75" y="385.987321937" type="curve"/>
      <point x="180.335949319" y="501.643442492"/>
      <point x="172.0" y="615.0"/>
      <point x="228.125" y="614.698041311" type="curve"/>
      <point x="256.154097901" y="614.698041311"/>
      <point x="271.108118544" y="598.40706295"/>
      <point x="292.375" y="579.28215812" type="curve"/>
    </contour>
  </outline>
</glyph>
<glyph name="currency" format="1">
  <advance width="442"/>
  <unicode hex="00A4"/>
  <outline>
    <contour>
      <point x="349.0" y="373.0"/>
      <point x="252.0" y="461.0"/>
      <point x="349.0" y="373.0" type="curve"/>
      <point x="373.0" y="400.0"/>
      <point x="397.0" y="428.0"/>
      <point x="421.0" y="455.0" type="curve"/>
      <point x="324.0" y="544.0"/>
      <point x="421.0" y="455.0"/>
      <point x="324.0" y="544.0" type="curve"/>
      <point x="300.0" y="516.0"/>
      <point x="276.0" y="489.0"/>
      <point x="252.0" y="461.0" type="curve"/>
    </contour>
    <contour>
      <point x="114.0" y="91.0"/>
      <point x="16.0" y="180.0"/>
      <point x="114.0" y="91.0" type="curve"/>
      <point x="137.0" y="118.0"/>
      <point x="159.0" y="144.0"/>
      <point x="182.0" y="171.0" type="curve"/>
      <point x="91.0" y="265.0"/>
      <point x="182.0" y="171.0"/>
      <point x="91.0" y="265.0" type="curve"/>
      <point x="66.0" y="236.0"/>
      <point x="41.0" y="208.0"/>
      <point x="16.0" y="180.0" type="curve"/>
    </contour>
    <contour>
      <point x="256.0" y="174.0"/>
      <point x="354.0" y="262.0"/>
      <point x="256.0" y="174.0" type="curve"/>
      <point x="279.0" y="147.0"/>
      <point x="302.0" y="120.0"/>
      <point x="325.0" y="94.0" type="curve"/>
      <point x="429.0" y="176.0"/>
      <point x="325.0" y="94.0"/>
      <point x="429.0" y="176.0" type="curve"/>
      <point x="404.0" y="205.0"/>
      <point x="379.0" y="234.0"/>
      <point x="354.0" y="262.0" type="curve"/>
    </contour>
    <contour>
      <point x="22.0" y="454.0"/>
      <point x="119.0" y="543.0"/>
      <point x="22.0" y="454.0" type="curve"/>
      <point x="45.0" y="428.0"/>
      <point x="67.0" y="401.0"/>
      <point x="90.0" y="374.0" type="curve"/>
      <point x="194.0" y="457.0"/>
      <point x="90.0" y="374.0"/>
      <point x="194.0" y="457.0" type="curve"/>
      <point x="169.0" y="486.0"/>
      <point x="144.0" y="514.0"/>
      <point x="119.0" y="543.0" type="curve"/>
    </contour>
    <contour>
      <point x="183.0" y="317.0"/>
      <point x="32.0" y="317.0"/>
      <point x="175.0" y="317.0" type="curve"/>
      <point x="175.0" y="359.0"/>
      <point x="181.0" y="400.0"/>
      <point x="218.0" y="400.0" type="curve"/>
      <point x="258.0" y="400.0"/>
      <point x="265.0" y="364.0"/>
      <point x="265.0" y="318.0" type="curve"/>
      <point x="265.0" y="274.0"/>
      <point x="259.0" y="228.0"/>
      <point x="221.0" y="228.0" type="curve"/>
      <point x="180.0" y="228.0"/>
      <point x="175.0" y="270.0"/>
      <point x="175.0" y="317.0" type="curve"/>
      <point x="32.0" y="317.0"/>
      <point x="183.0" y="317.0"/>
      <point x="40.0" y="317.0" type="curve"/>
      <point x="40.0" y="198.0"/>
      <point x="107.0" y="118.0"/>
      <point x="222.0" y="118.0" type="curve"/>
      <point x="337.0" y="118.0"/>
      <point x="403.0" y="201.0"/>
      <point x="403.0" y="320.0" type="curve"/>
      <point x="403.0" y="433.0"/>
      <point x="340.0" y="510.0"/>
      <point x="230.0" y="510.0" type="curve"/>
      <point x="113.0" y="510.0"/>
      <point x="40.0" y="434.0"/>
      <point x="40.0" y="317.0" type="curve"/>
    </contour>
  </outline>
</glyph>
<glyph name="yen" format="1">
  <advance width="677"/>
  <unicode hex="00A5"/>
  <outline>
    <contour>
      <point x="497.0" y="420.0"/>
      <point x="497.0" y="298.0"/>
      <point x="497.0" y="420.0" type="curve"/>
      <point x="444.0" y="420.0"/>
      <point x="391.0" y="420.0"/>
      <point x="339.0" y="420.0" type="curve"/>
      <point x="339.0" y="298.0"/>
      <point x="339.0" y="420.0"/>
      <point x="339.0" y="298.0" type="curve"/>
      <point x="391.0" y="298.0"/>
      <point x="444.0" y="298.0"/>
      <point x="497.0" y="298.0" type="curve"/>
    </contour>
    <contour>
      <point x="317.0" y="420.0"/>
      <point x="317.0" y="298.0"/>
      <point x="317.0" y="420.0" type="curve"/>
      <point x="265.0" y="420.0"/>
      <point x="213.0" y="420.0"/>
      <point x="162.0" y="420.0" type="curve"/>
      <point x="162.0" y="298.0"/>
      <point x="162.0" y="420.0"/>
      <point x="162.0" y="298.0" type="curve"/>
      <point x="213.0" y="298.0"/>
      <point x="265.0" y="298.0"/>
      <point x="317.0" y="298.0" type="curve"/>
    </contour>
    <contour>
      <point x="497.0" y="276.0"/>
      <point x="497.0" y="155.0"/>
      <point x="497.0" y="276.0" type="curve"/>
      <point x="385.0" y="276.0"/>
      <point x="273.0" y="276.0"/>
      <point x="162.0" y="276.0" type="curve"/>
      <point x="162.0" y="155.0"/>
      <point x="162.0" y="276.0"/>
      <point x="162.0" y="155.0" type="curve"/>
      <point x="273.0" y="155.0"/>
      <point x="385.0" y="155.0"/>
      <point x="497.0" y="155.0" type="curve"/>
    </contour>
    <contour>
      <point x="328.0" y="111.0"/>
      <point x="328.0" y="0.0"/>
      <point x="328.0" y="111.0" type="curve"/>
      <point x="191.0" y="111.0"/>
      <point x="328.0" y="111.0"/>
      <point x="191.0" y="111.0" type="curve"/>
      <point x="191.0" y="0.0"/>
      <point x="191.0" y="111.0"/>
      <point x="191.0" y="0.0" type="curve"/>
      <point x="237.0" y="0.0"/>
      <point x="283.0" y="0.0"/>
      <point x="328.0" y="0.0" type="curve"/>
    </contour>
    <contour>
      <point x="328.0" y="0.0"/>
      <point x="328.0" y="111.0"/>
      <point x="328.0" y="0.0" type="curve"/>
      <point x="374.0" y="0.0"/>
      <point x="420.0" y="0.0"/>
      <point x="466.0" y="0.0" type="curve"/>
      <point x="466.0" y="111.0"/>
      <point x="466.0" y="0.0"/>
      <point x="466.0" y="111.0" type="curve"/>
      <point x="328.0" y="111.0"/>
      <point x="466.0" y="111.0"/>
      <point x="328.0" y="111.0" type="curve"/>
    </contour>
    <contour>
      <point x="485.0" y="722.0"/>
      <point x="485.0" y="612.0"/>
      <point x="485.0" y="722.0" type="curve"/>
      <point x="440.0" y="722.0"/>
      <point x="394.0" y="722.0"/>
      <point x="348.0" y="722.0" type="curve"/>
      <point x="348.0" y="612.0"/>
      <point x="348.0" y="722.0"/>
      <point x="348.0" y="612.0" type="curve"/>
      <point x="485.0" y="612.0"/>
      <point x="348.0" y="612.0"/>
      <point x="485.0" y="612.0" type="curve"/>
    </contour>
    <contour>
      <point x="181.0" y="722.0"/>
      <point x="181.0" y="612.0"/>
      <point x="181.0" y="722.0" type="curve"/>
      <point x="135.0" y="722.0"/>
      <point x="89.0" y="722.0"/>
      <point x="44.0" y="722.0" type="curve"/>
      <point x="44.0" y="612.0"/>
      <point x="44.0" y="722.0"/>
      <point x="44.0" y="612.0" type="curve"/>
      <point x="181.0" y="612.0"/>
      <point x="44.0" y="612.0"/>
      <point x="181.0" y="612.0" type="curve"/>
    </contour>
    <contour>
      <point x="191.0" y="612.0"/>
      <point x="191.0" y="722.0"/>
      <point x="191.0" y="612.0" type="curve"/>
      <point x="328.0" y="612.0"/>
      <point x="191.0" y="612.0"/>
      <point x="328.0" y="612.0" type="curve"/>
      <point x="328.0" y="722.0"/>
      <point x="328.0" y="612.0"/>
      <point x="328.0" y="722.0" type="curve"/>
      <point x="283.0" y="722.0"/>
      <point x="237.0" y="722.0"/>
      <point x="191.0" y="722.0" type="curve"/>
    </contour>
    <contour>
      <point x="475.0" y="612.0"/>
      <point x="475.0" y="722.0"/>
      <point x="475.0" y="612.0" type="curve"/>
      <point x="613.0" y="612.0"/>
      <point x="475.0" y="612.0"/>
      <point x="613.0" y="612.0" type="curve"/>
      <point x="613.0" y="722.0"/>
      <point x="613.0" y="612.0"/>
      <point x="613.0" y="722.0" type="curve"/>
      <point x="567.0" y="722.0"/>
      <point x="521.0" y="722.0"/>
      <point x="475.0" y="722.0" type="curve"/>
    </contour>
    <contour>
      <point x="74.0" y="722.0"/>
      <point x="230.0" y="722.0"/>
      <point x="74.0" y="722.0" type="curve"/>
      <point x="133.0" y="592.0"/>
      <point x="197.0" y="465.0"/>
      <point x="257.0" y="335.0" type="curve"/>
      <point x="400.0" y="335.0"/>
      <point x="257.0" y="335.0"/>
      <point x="400.0" y="335.0" type="curve"/>
      <point x="342.0" y="463.0"/>
      <point x="288.0" y="594.0"/>
      <point x="230.0" y="722.0" type="curve"/>
    </contour>
    <contour>
      <point x="436.0" y="675.0"/>
      <point x="592.0" y="675.0"/>
      <point x="436.0" y="675.0" type="curve"/>
      <point x="375.0" y="564.0"/>
      <point x="318.0" y="450.0"/>
      <point x="257.0" y="338.0" type="curve"/>
      <point x="400.0" y="338.0"/>
      <point x="257.0" y="338.0"/>
      <point x="400.0" y="338.0" type="curve"/>
      <point x="462.0" y="452.0"/>
      <point x="530.0" y="562.0"/>
      <point x="592.0" y="675.0" type="curve"/>
    </contour>
    <contour>
      <point x="400.0" y="0.0"/>
      <point x="257.0" y="0.0"/>
      <point x="400.0" y="0.0" type="curve"/>
      <point x="400.0" y="112.0"/>
      <point x="400.0" y="223.0"/>
      <point x="400.0" y="335.0" type="curve"/>
      <point x="257.0" y="335.0"/>
      <point x="400.0" y="335.0"/>
      <point x="257.0" y="335.0" type="curve"/>
      <point x="257.0" y="223.0"/>
      <point x="257.0" y="112.0"/>
      <point x="257.0" y="0.0" type="curve"/>
    </contour>
  </outline>
</glyph>
